SplineFontDB: 3.2
FontName: AcariSans-Regular
FullName: Acari Sans Regular
FamilyName: Acari Sans
Weight: Book
Copyright: Copyright (c)2015, HK Grotesk Latin by Alfredo Marco Pradil (ammpradil@gmail.com) and HK Grotesk Cyrillic by Stefan Peev (http://www.contextbg.net/). HK Grotesk is a trademark of Alfredo Marco Pradil. Copyright (c) 2018-2023 The Acari Sans Project Authors (https://github.com/cssobral2013/acari-sans)
Version: 1.063; ttfautohint (v1.8.3)
ItalicAngle: 0
UnderlinePosition: -250
UnderlineWidth: 100
Ascent: 1600
Descent: 400
InvalidEm: 0
sfntRevision: 0x00011020
LayerCount: 2
Layer: 0 1 "Back" 1
Layer: 1 1 "Fore" 0
XUID: [1021 467 -1401554168 12689471]
StyleMap: 0x0040
FSType: 0
OS2Version: 4
OS2_WeightWidthSlopeOnly: 0
OS2_UseTypoMetrics: 0
CreationTime: 1480856841
ModificationTime: 1687307468
PfmFamily: 81
TTFWeight: 400
TTFWidth: 5
LineGap: 26
VLineGap: 0
Panose: 0 0 0 0 0 0 0 0 0 0
OS2TypoAscent: 1900
OS2TypoAOffset: 0
OS2TypoDescent: -487
OS2TypoDOffset: 0
OS2TypoLinegap: 26
OS2WinAscent: 1913
OS2WinAOffset: 0
OS2WinDescent: 500
OS2WinDOffset: 0
HheadAscent: 1900
HheadAOffset: 0
HheadDescent: -487
HheadDOffset: 0
OS2SubXSize: 1331
OS2SubYSize: 1228
OS2SubXOff: 0
OS2SubYOff: 153
OS2SupXSize: 1331
OS2SupYSize: 1228
OS2SupXOff: 0
OS2SupYOff: 716
OS2StrikeYSize: 82
OS2StrikeYPos: 599
OS2CapHeight: 1413
OS2XHeight: 1039
OS2Vendor: 'AMSP'
OS2CodePages: 20000197.00000000
OS2UnicodeRanges: 2000020f.00000001.00000000.00000000
Lookup: 1 0 0 "'locl' Localized Forms in Latin lookup 23" { "'locl' Localized Forms in Latin lookup 23-1" ("loclTRK") } ['locl' ('latn' <'AZE ' 'CRT ' 'KAZ ' 'TAT ' 'TRK ' > ) ]
Lookup: 1 0 0 "'aalt' Access All Alternates lookup 0" { "'aalt' Access All Alternates lookup 0 subtable"  } ['aalt' ('DFLT' <'dflt' > 'cyrl' <'BGR ' 'MKD ' 'RUS ' 'SRB ' 'dflt' > 'latn' <'AZE ' 'CRT ' 'KAZ ' 'MOL ' 'ROM ' 'TAT ' 'TRK ' 'dflt' > ) ]

StartChar: .notdef
Encoding: 65536 -1 0
Width: 728
GlyphClass: 1
Flags: W
LayerCount: 2
Fore
SplineSet
596 0 m 1,0,-1
 66 0 l 1,1,-1
 66 1333 l 1,2,-1
 596 1333 l 1,3,-1
 596 0 l 1,0,-1
530 66 m 1,4,-1
 530 1267 l 1,5,-1
 132 1267 l 1,6,-1
 132 66 l 1,7,-1
 530 66 l 1,4,-1
EndSplineSet
EndChar

StartChar: exclam
Encoding: 33 33 4
Width: 630
GlyphClass: 1
Flags: W
LayerCount: 2
Fore
SplineSet
372 381 m 1,0,-1
 258 381 l 1,1,-1
 229 1435 l 1,2,-1
 401 1435 l 1,3,-1
 372 381 l 1,0,-1
413 0 m 1,4,-1
 217 0 l 1,5,-1
 217 194 l 1,6,-1
 413 194 l 1,7,-1
 413 0 l 1,4,-1
EndSplineSet
EndChar

StartChar: quotedbl
Encoding: 34 34 5
Width: 908
GlyphClass: 1
Flags: W
LayerCount: 2
Fore
SplineSet
370 984 m 1,0,-1
 236 984 l 1,1,-1
 236 1413 l 1,2,-1
 370 1413 l 1,3,-1
 370 984 l 1,0,-1
672 984 m 1,4,-1
 536 984 l 1,5,-1
 536 1413 l 1,6,-1
 672 1413 l 1,7,-1
 672 984 l 1,4,-1
EndSplineSet
EndChar

StartChar: numbersign
Encoding: 35 35 6
Width: 1368
GlyphClass: 1
Flags: W
LayerCount: 2
Fore
SplineSet
816 0 m 1,0,-1
 696 0 l 1,1,-1
 788 436 l 1,2,-1
 467 436 l 1,3,-1
 377 0 l 1,4,-1
 257 0 l 1,5,-1
 347 438 l 1,6,-1
 107 438 l 1,7,-1
 107 551 l 1,8,-1
 371 551 l 1,9,-1
 437 884 l 1,10,-1
 189 884 l 1,11,-1
 189 994 l 1,12,-1
 461 994 l 1,13,-1
 555 1434 l 1,14,-1
 676 1434 l 1,15,-1
 581 997 l 1,16,-1
 902 997 l 1,17,-1
 994 1434 l 1,18,-1
 1114 1434 l 1,19,-1
 1022 995 l 1,20,-1
 1262 995 l 1,21,-1
 1262 884 l 1,22,-1
 999 884 l 1,23,-1
 931 551 l 1,24,-1
 1180 551 l 1,25,-1
 1180 442 l 1,26,-1
 908 442 l 1,27,-1
 816 0 l 1,0,-1
811 551 m 1,28,-1
 878 884 l 1,29,-1
 559 884 l 1,30,-1
 491 551 l 1,31,-1
 811 551 l 1,28,-1
EndSplineSet
EndChar

StartChar: dollar
Encoding: 36 36 7
Width: 1114
GlyphClass: 1
Flags: W
LayerCount: 2
Fore
SplineSet
610 -246 m 1,0,-1
 503 -246 l 1,1,-1
 503 -12 l 1,2,3
 347 4 347 4 230.5 99.5 c 128,-1,4
 114 195 114 195 83 367 c 1,5,-1
 235 409 l 1,6,7
 254 269 254 269 350 200.5 c 128,-1,8
 446 132 446 132 574 132 c 0,9,10
 657 132 657 132 720.5 158.5 c 128,-1,11
 784 185 784 185 820.5 240 c 128,-1,12
 857 295 857 295 857 382 c 0,13,14
 857 461 857 461 815 517 c 0,15,16
 776 568 776 568 712.5 606 c 128,-1,17
 649 644 649 644 540 691 c 0,18,19
 419 743 419 743 346 788.5 c 128,-1,20
 273 834 273 834 227 900 c 0,21,22
 177 970 177 970 177 1073 c 0,23,24
 177 1173 177 1173 220.5 1249 c 128,-1,25
 264 1325 264 1325 337.5 1371 c 128,-1,26
 411 1417 411 1417 503 1429 c 1,27,-1
 503 1659 l 1,28,-1
 610 1659 l 1,29,-1
 610 1432 l 1,30,31
 845 1411 845 1411 954 1210 c 1,32,-1
 831 1128 l 1,33,34
 786 1213 786 1213 714 1253 c 128,-1,35
 642 1293 642 1293 562 1293 c 0,36,37
 502 1293 502 1293 450.5 1268 c 128,-1,38
 399 1243 399 1243 367 1197 c 128,-1,39
 335 1151 335 1151 335 1088 c 0,40,41
 335 1015 335 1015 375 964 c 0,42,43
 412 916 412 916 472.5 880.5 c 128,-1,44
 533 845 533 845 638 800 c 0,45,46
 761 746 761 746 835.5 701.5 c 128,-1,47
 910 657 910 657 962.5 581.5 c 128,-1,48
 1015 506 1015 506 1015 393 c 0,49,50
 1015 271 1015 271 961 181 c 128,-1,51
 907 91 907 91 816 40.5 c 128,-1,52
 725 -10 725 -10 610 -15 c 1,53,-1
 610 -246 l 1,0,-1
EndSplineSet
EndChar

StartChar: percent
Encoding: 37 37 8
Width: 1576
GlyphClass: 1
Flags: W
LayerCount: 2
Fore
SplineSet
378 804 m 0,0,1
 289 804 289 804 232.5 854.5 c 128,-1,2
 176 905 176 905 153 976.5 c 128,-1,3
 130 1048 130 1048 130 1118 c 0,4,5
 130 1241 130 1241 184 1331 c 0,6,7
 247 1436 247 1436 372 1436 c 0,8,9
 456 1436 456 1436 511 1389.5 c 128,-1,10
 566 1343 566 1343 593.5 1270.5 c 128,-1,11
 621 1198 621 1198 621 1118 c 0,12,13
 621 1041 621 1041 595 969 c 128,-1,14
 569 897 569 897 515 850.5 c 128,-1,15
 461 804 461 804 378 804 c 0,0,1
471 2 m 1,16,-1
 339 2 l 1,17,-1
 1092 1407 l 1,18,-1
 1224 1407 l 1,19,-1
 471 2 l 1,16,-1
376 904 m 0,20,21
 422 904 422 904 451.5 936.5 c 128,-1,22
 481 969 481 969 495 1018.5 c 128,-1,23
 509 1068 509 1068 509 1120 c 0,24,25
 509 1170 509 1170 495 1219.5 c 128,-1,26
 481 1269 481 1269 451 1301.5 c 128,-1,27
 421 1334 421 1334 372 1334 c 0,28,29
 304 1334 304 1334 270 1269 c 128,-1,30
 236 1204 236 1204 236 1118 c 0,31,32
 236 1033 236 1033 271 968.5 c 128,-1,33
 306 904 306 904 376 904 c 0,20,21
1206 3 m 0,34,35
 1117 3 1117 3 1060.5 53.5 c 128,-1,36
 1004 104 1004 104 980.5 175 c 128,-1,37
 957 246 957 246 957 316 c 0,38,39
 957 439 957 439 1012 528 c 0,40,41
 1076 632 1076 632 1200 632 c 0,42,43
 1282 632 1282 632 1337.5 586 c 128,-1,44
 1393 540 1393 540 1420.5 467.5 c 128,-1,45
 1448 395 1448 395 1448 315 c 0,46,47
 1448 239 1448 239 1422.5 167.5 c 128,-1,48
 1397 96 1397 96 1343.5 49.5 c 128,-1,49
 1290 3 1290 3 1206 3 c 0,34,35
1204 103 m 0,50,51
 1250 103 1250 103 1280 135.5 c 128,-1,52
 1310 168 1310 168 1324 217.5 c 128,-1,53
 1338 267 1338 267 1338 317 c 0,54,55
 1338 402 1338 402 1303.5 466 c 128,-1,56
 1269 530 1269 530 1200 530 c 0,57,58
 1132 530 1132 530 1097.5 466 c 128,-1,59
 1063 402 1063 402 1063 316 c 0,60,61
 1063 231 1063 231 1098 167 c 128,-1,62
 1133 103 1133 103 1204 103 c 0,50,51
EndSplineSet
EndChar

StartChar: ampersand
Encoding: 38 38 9
Width: 1376
GlyphClass: 1
Flags: W
LayerCount: 2
Fore
SplineSet
1171 -54 m 1,0,-1
 975 177 l 1,1,2
 896 85 896 85 785 32 c 128,-1,3
 674 -21 674 -21 531 -21 c 0,4,5
 423 -21 423 -21 331 14 c 128,-1,6
 239 49 239 49 183 120.5 c 128,-1,7
 127 192 127 192 127 302 c 0,8,9
 127 406 127 406 175 489 c 0,10,11
 220 566 220 566 293 630 c 128,-1,12
 366 694 366 694 476 764 c 1,13,14
 394 862 394 862 340.5 949.5 c 128,-1,15
 287 1037 287 1037 287 1122 c 0,16,17
 287 1220 287 1220 335 1288.5 c 128,-1,18
 383 1357 383 1357 461 1393.5 c 128,-1,19
 539 1430 539 1430 629 1430 c 0,20,21
 723 1430 723 1430 794.5 1388 c 128,-1,22
 866 1346 866 1346 906.5 1276 c 128,-1,23
 947 1206 947 1206 947 1123 c 0,24,25
 947 1041 947 1041 911.5 976 c 128,-1,26
 876 911 876 911 813 854 c 128,-1,27
 750 797 750 797 665 740 c 1,28,-1
 960 394 l 1,29,30
 1016 518 1016 518 1033 691 c 1,31,-1
 1165 677 l 1,32,33
 1147 454 1147 454 1052 287 c 1,34,-1
 1270 32 l 1,35,-1
 1171 -54 l 1,0,-1
580 830 m 1,36,37
 699 903 699 903 762 971 c 128,-1,38
 825 1039 825 1039 825 1122 c 0,39,40
 825 1177 825 1177 797 1218.5 c 128,-1,41
 769 1260 769 1260 725 1283 c 128,-1,42
 681 1306 681 1306 631 1306 c 0,43,44
 576 1306 576 1306 527.5 1284.5 c 128,-1,45
 479 1263 479 1263 448.5 1221.5 c 128,-1,46
 418 1180 418 1180 418 1120 c 0,47,48
 418 1014 418 1014 580 830 c 1,36,37
533 112 m 0,49,50
 762 112 762 112 890 277 c 1,51,-1
 556 669 l 1,52,53
 364 551 364 551 298 443 c 0,54,55
 258 380 258 380 258 304 c 0,56,57
 258 206 258 206 337.5 159 c 128,-1,58
 417 112 417 112 533 112 c 0,49,50
EndSplineSet
EndChar

StartChar: quotesingle
Encoding: 39 39 10
Width: 605
GlyphClass: 1
Flags: W
LayerCount: 2
Fore
SplineSet
370 1013 m 1,0,-1
 236 1013 l 1,1,-1
 236 1442 l 1,2,-1
 370 1442 l 1,3,-1
 370 1013 l 1,0,-1
EndSplineSet
EndChar

StartChar: parenleft
Encoding: 40 40 11
Width: 560
GlyphClass: 1
Flags: W
LayerCount: 2
Fore
SplineSet
492 -32 m 1,0,-1
 367 -32 l 1,1,2
 253 101 253 101 190.5 316.5 c 128,-1,3
 128 532 128 532 128 705 c 0,4,5
 128 896 128 896 185.5 1094 c 128,-1,6
 243 1292 243 1292 365 1442 c 1,7,-1
 494 1442 l 1,8,9
 370 1278 370 1278 310 1087 c 128,-1,10
 250 896 250 896 250 702 c 0,11,12
 250 511 250 511 308.5 322 c 128,-1,13
 367 133 367 133 492 -32 c 1,0,-1
EndSplineSet
EndChar

StartChar: parenright
Encoding: 41 41 12
Width: 560
GlyphClass: 1
Flags: W
LayerCount: 2
Fore
SplineSet
193 -32 m 1,0,-1
 68 -32 l 1,1,2
 191 134 191 134 250.5 326 c 128,-1,3
 310 518 310 518 310 704 c 0,4,5
 310 895 310 895 246 1090 c 128,-1,6
 182 1285 182 1285 66 1442 c 1,7,-1
 194 1442 l 1,8,9
 317 1294 317 1294 374.5 1099.5 c 128,-1,10
 432 905 432 905 432 707 c 0,11,12
 432 529 432 529 369.5 314 c 128,-1,13
 307 99 307 99 193 -32 c 1,0,-1
EndSplineSet
EndChar

StartChar: asterisk
Encoding: 42 42 13
Width: 868
GlyphClass: 1
Flags: W
LayerCount: 2
Fore
SplineSet
556 850 m 1,0,-1
 433 1082 l 1,1,-1
 310 850 l 1,2,-1
 218 918 l 1,3,-1
 391 1115 l 1,4,-1
 142 1156 l 1,5,-1
 177 1268 l 1,6,-1
 408 1168 l 1,7,-1
 377 1413 l 1,8,-1
 490 1413 l 1,9,-1
 460 1168 l 1,10,-1
 690 1268 l 1,11,-1
 726 1156 l 1,12,-1
 476 1115 l 1,13,-1
 650 918 l 1,14,-1
 556 850 l 1,0,-1
EndSplineSet
EndChar

StartChar: plus
Encoding: 43 43 14
Width: 1265
GlyphClass: 1
Flags: W
LayerCount: 2
Fore
SplineSet
689 106 m 1,0,-1
 575 106 l 1,1,-1
 575 569 l 1,2,-1
 119 569 l 1,3,-1
 119 682 l 1,4,-1
 575 682 l 1,5,-1
 575 1143 l 1,6,-1
 689 1143 l 1,7,-1
 689 682 l 1,8,-1
 1146 682 l 1,9,-1
 1146 569 l 1,10,-1
 689 569 l 1,11,-1
 689 106 l 1,0,-1
EndSplineSet
EndChar

StartChar: comma
Encoding: 44 44 15
Width: 600
GlyphClass: 1
Flags: W
LayerCount: 2
Fore
SplineSet
225 -326 m 1,0,-1
 132 -326 l 1,1,-1
 276 264 l 1,2,-1
 469 264 l 1,3,-1
 225 -326 l 1,0,-1
EndSplineSet
EndChar

StartChar: hyphen
Encoding: 45 45 16
Width: 835
GlyphClass: 1
Flags: W
LayerCount: 2
Fore
SplineSet
674 578 m 1,0,-1
 161 578 l 1,1,-1
 161 692 l 1,2,-1
 674 692 l 1,3,-1
 674 578 l 1,0,-1
EndSplineSet
EndChar

StartChar: period
Encoding: 46 46 17
Width: 600
GlyphClass: 1
Flags: W
LayerCount: 2
Fore
SplineSet
399 0 m 1,0,-1
 201 0 l 1,1,-1
 201 194 l 1,2,-1
 399 194 l 1,3,-1
 399 0 l 1,0,-1
EndSplineSet
EndChar

StartChar: slash
Encoding: 47 47 18
Width: 927
GlyphClass: 1
Flags: W
LayerCount: 2
Fore
SplineSet
164 -430 m 1,0,-1
 11 -430 l 1,1,-1
 765 1516 l 1,2,-1
 917 1516 l 1,3,-1
 164 -430 l 1,0,-1
EndSplineSet
EndChar

StartChar: zero
Encoding: 48 48 19
Width: 1200
GlyphClass: 1
Flags: W
LayerCount: 2
Fore
SplineSet
607 -20 m 0,0,1
 515 -20 515 -20 441.5 10 c 128,-1,2
 368 40 368 40 311 91.5 c 128,-1,3
 254 143 254 143 213 213.5 c 128,-1,4
 172 284 172 284 145.5 364.5 c 128,-1,5
 119 445 119 445 106.5 532.5 c 128,-1,6
 94 620 94 620 94 707 c 0,7,8
 94 783 94 783 104.5 867 c 128,-1,9
 115 951 115 951 139 1032 c 128,-1,10
 163 1113 163 1113 201.5 1186 c 128,-1,11
 240 1259 240 1259 295.5 1314.5 c 128,-1,12
 351 1370 351 1370 425 1403 c 128,-1,13
 499 1436 499 1436 594 1436 c 0,14,15
 677 1436 677 1436 747 1407.5 c 128,-1,16
 817 1379 817 1379 873.5 1329 c 128,-1,17
 930 1279 930 1279 973.5 1210 c 128,-1,18
 1017 1141 1017 1141 1046 1059.5 c 128,-1,19
 1075 978 1075 978 1090 887.5 c 128,-1,20
 1105 797 1105 797 1105 703 c 0,21,22
 1105 619 1105 619 1092 533 c 128,-1,23
 1079 447 1079 447 1052 367 c 128,-1,24
 1025 287 1025 287 984.5 216.5 c 128,-1,25
 944 146 944 146 888.5 93.5 c 128,-1,26
 833 41 833 41 763 10.5 c 128,-1,27
 693 -20 693 -20 607 -20 c 0,0,1
602 121 m 0,28,29
 687 121 687 121 751 167 c 128,-1,30
 815 213 815 213 860 304 c 0,31,32
 904 391 904 391 923.5 497 c 128,-1,33
 943 603 943 603 943 714 c 0,34,35
 943 771 943 771 935.5 836 c 128,-1,36
 928 901 928 901 911.5 965 c 128,-1,37
 895 1029 895 1029 868.5 1087.5 c 128,-1,38
 842 1146 842 1146 803 1191 c 128,-1,39
 764 1236 764 1236 712 1262.5 c 128,-1,40
 660 1289 660 1289 593 1289 c 0,41,42
 506 1289 506 1289 440.5 1240.5 c 128,-1,43
 375 1192 375 1192 330.5 1110.5 c 128,-1,44
 286 1029 286 1029 264 923 c 128,-1,45
 242 817 242 817 242 703 c 0,46,47
 242 597 242 597 261.5 500.5 c 128,-1,48
 281 404 281 404 321 319 c 0,49,50
 366 222 366 222 435.5 171.5 c 128,-1,51
 505 121 505 121 602 121 c 0,28,29
EndSplineSet
Substitution2: "'subs' Subscript lookup 22 subtable" uni2080
Substitution2: "'sinf' Scientific Inferiors lookup 21 subtable" uni2080
Substitution2: "'sups' Superscript lookup 19 subtable" uni2070
Substitution2: "'aalt' Access All Alternates lookup 0 subtable" uni2070
EndChar

StartChar: one
Encoding: 49 49 20
Width: 1200
GlyphClass: 1
Flags: W
LayerCount: 2
Fore
SplineSet
762 0 m 1,0,-1
 604 0 l 1,1,-1
 604 1086 l 1,2,-1
 226 1086 l 1,3,-1
 226 1211 l 1,4,-1
 442 1211 l 2,5,6
 528 1211 528 1211 573 1261.5 c 128,-1,7
 618 1312 618 1312 618 1386 c 2,8,-1
 618 1413 l 1,9,-1
 762 1413 l 1,10,-1
 762 0 l 1,0,-1
EndSplineSet
Substitution2: "'subs' Subscript lookup 22 subtable" uni2081
Substitution2: "'sinf' Scientific Inferiors lookup 21 subtable" uni2081
Substitution2: "'sups' Superscript lookup 19 subtable" onesuperior
Substitution2: "'aalt' Access All Alternates lookup 0 subtable" onesuperior
EndChar

StartChar: two
Encoding: 50 50 21
Width: 1200
GlyphClass: 1
Flags: W
LayerCount: 2
Fore
SplineSet
1078 0 m 1,0,-1
 102 0 l 1,1,-1
 102 142 l 1,2,3
 391 326 391 326 576 522 c 0,4,5
 715 669 715 669 779.5 786.5 c 128,-1,6
 844 904 844 904 844 1024 c 0,7,8
 844 1113 844 1113 812 1172.5 c 128,-1,9
 780 1232 780 1232 724.5 1261.5 c 128,-1,10
 669 1291 669 1291 598 1291 c 0,11,12
 509 1291 509 1291 447.5 1247.5 c 128,-1,13
 386 1204 386 1204 352.5 1127.5 c 128,-1,14
 319 1051 319 1051 314 950 c 1,15,-1
 158 965 l 1,16,17
 158 1116 158 1116 213 1220.5 c 128,-1,18
 268 1325 268 1325 366 1378.5 c 128,-1,19
 464 1432 464 1432 594 1432 c 0,20,21
 725 1432 725 1432 817.5 1380.5 c 128,-1,22
 910 1329 910 1329 959 1238 c 128,-1,23
 1008 1147 1008 1147 1008 1029 c 0,24,25
 1008 882 1008 882 928 738.5 c 128,-1,26
 848 595 848 595 674 423 c 0,27,28
 566 315 566 315 485.5 251 c 128,-1,29
 405 187 405 187 320 134 c 1,30,-1
 1078 134 l 1,31,-1
 1078 0 l 1,0,-1
EndSplineSet
Substitution2: "'subs' Subscript lookup 22 subtable" uni2082
Substitution2: "'sinf' Scientific Inferiors lookup 21 subtable" uni2082
Substitution2: "'sups' Superscript lookup 19 subtable" twosuperior
Substitution2: "'aalt' Access All Alternates lookup 0 subtable" twosuperior
EndChar

StartChar: three
Encoding: 51 51 22
Width: 1200
GlyphClass: 1
Flags: W
LayerCount: 2
Fore
SplineSet
578 -20 m 0,0,1
 483 -20 483 -20 397 5 c 128,-1,2
 311 30 311 30 245 81.5 c 128,-1,3
 179 133 179 133 140.5 212 c 128,-1,4
 102 291 102 291 102 399 c 1,5,-1
 246 413 l 1,6,7
 246 319 246 319 292.5 253 c 128,-1,8
 339 187 339 187 415 152.5 c 128,-1,9
 491 118 491 118 580 118 c 0,10,11
 663 118 663 118 738 150 c 128,-1,12
 813 182 813 182 860.5 246 c 128,-1,13
 908 310 908 310 908 407 c 0,14,15
 908 498 908 498 866.5 559 c 128,-1,16
 825 620 825 620 755 650.5 c 128,-1,17
 685 681 685 681 600 681 c 2,18,-1
 500 681 l 1,19,-1
 500 818 l 1,20,-1
 600 818 l 2,21,22
 703 818 703 818 766.5 877.5 c 128,-1,23
 830 937 830 937 830 1049 c 0,24,25
 830 1129 830 1129 794 1183.5 c 128,-1,26
 758 1238 758 1238 700 1265.5 c 128,-1,27
 642 1293 642 1293 576 1293 c 0,28,29
 462 1293 462 1293 389.5 1225.5 c 128,-1,30
 317 1158 317 1158 312 1047 c 1,31,-1
 170 1063 l 1,32,33
 170 1181 170 1181 224.5 1264 c 128,-1,34
 279 1347 279 1347 370.5 1390.5 c 128,-1,35
 462 1434 462 1434 574 1434 c 0,36,37
 682 1434 682 1434 774 1391.5 c 128,-1,38
 866 1349 866 1349 922 1267.5 c 128,-1,39
 978 1186 978 1186 978 1068 c 0,40,41
 978 974 978 974 936.5 893.5 c 128,-1,42
 895 813 895 813 812 761 c 1,43,44
 935 716 935 716 993 621 c 128,-1,45
 1051 526 1051 526 1054 402 c 0,46,47
 1054 262 1054 262 990 168.5 c 128,-1,48
 926 75 926 75 818 27.5 c 128,-1,49
 710 -20 710 -20 578 -20 c 0,0,1
EndSplineSet
Substitution2: "'subs' Subscript lookup 22 subtable" uni2083
Substitution2: "'sinf' Scientific Inferiors lookup 21 subtable" uni2083
Substitution2: "'sups' Superscript lookup 19 subtable" threesuperior
Substitution2: "'aalt' Access All Alternates lookup 0 subtable" threesuperior
EndChar

StartChar: four
Encoding: 52 52 23
Width: 1200
GlyphClass: 1
Flags: W
LayerCount: 2
Fore
SplineSet
871 0 m 1,0,-1
 719 0 l 1,1,-1
 719 381 l 1,2,-1
 72 381 l 1,3,-1
 72 469 l 1,4,-1
 731 1413 l 1,5,-1
 871 1413 l 1,6,-1
 871 514 l 1,7,-1
 1094 514 l 1,8,-1
 1094 381 l 1,9,-1
 871 381 l 1,10,-1
 871 0 l 1,0,-1
719 514 m 1,11,-1
 719 1173 l 1,12,-1
 254 514 l 1,13,-1
 719 514 l 1,11,-1
EndSplineSet
Substitution2: "'subs' Subscript lookup 22 subtable" uni2084
Substitution2: "'sinf' Scientific Inferiors lookup 21 subtable" uni2084
Substitution2: "'sups' Superscript lookup 19 subtable" uni2074
Substitution2: "'aalt' Access All Alternates lookup 0 subtable" uni2074
EndChar

StartChar: five
Encoding: 53 53 24
Width: 1200
GlyphClass: 1
Flags: W
LayerCount: 2
Fore
SplineSet
596 -20 m 0,0,1
 474 -20 474 -20 379 32.5 c 128,-1,2
 284 85 284 85 222 173 c 128,-1,3
 160 261 160 261 136 372 c 1,4,-1
 276 419 l 1,5,6
 302 291 302 291 377 202.5 c 128,-1,7
 452 114 452 114 594 114 c 0,8,9
 698 114 698 114 767.5 164.5 c 128,-1,10
 837 215 837 215 871.5 295 c 128,-1,11
 906 375 906 375 906 462 c 0,12,13
 906 546 906 546 873 622 c 128,-1,14
 840 698 840 698 773.5 745.5 c 128,-1,15
 707 793 707 793 606 793 c 0,16,17
 518 793 518 793 442.5 752 c 128,-1,18
 367 711 367 711 320 637 c 1,19,-1
 184 701 l 1,20,-1
 308 1413 l 1,21,-1
 1006 1413 l 1,22,-1
 1006 1275 l 1,23,-1
 428 1275 l 1,24,-1
 352 819 l 1,25,26
 457 923 457 923 628 923 c 0,27,28
 764 923 764 923 863 858 c 128,-1,29
 962 793 962 793 1016 687.5 c 128,-1,30
 1070 582 1070 582 1070 462 c 0,31,32
 1070 328 1070 328 1007.5 219 c 128,-1,33
 945 110 945 110 837.5 45 c 128,-1,34
 730 -20 730 -20 596 -20 c 0,0,1
EndSplineSet
Substitution2: "'subs' Subscript lookup 22 subtable" uni2085
Substitution2: "'sinf' Scientific Inferiors lookup 21 subtable" uni2085
Substitution2: "'sups' Superscript lookup 19 subtable" uni2075
Substitution2: "'aalt' Access All Alternates lookup 0 subtable" uni2075
EndChar

StartChar: six
Encoding: 54 54 25
Width: 1200
GlyphClass: 1
Flags: W
LayerCount: 2
Fore
SplineSet
606 -20 m 0,0,1
 470 -20 470 -20 364.5 45.5 c 128,-1,2
 259 111 259 111 198.5 218 c 128,-1,3
 138 325 138 325 138 449 c 0,4,5
 138 583 138 583 206 694 c 2,6,-1
 618 1413 l 1,7,-1
 792 1413 l 1,8,-1
 480 888 l 1,9,10
 546 901 546 901 606 901 c 0,11,12
 735 901 735 901 840.5 843.5 c 128,-1,13
 946 786 946 786 1009 684.5 c 128,-1,14
 1072 583 1072 583 1072 452 c 0,15,16
 1072 332 1072 332 1014.5 223.5 c 128,-1,17
 957 115 957 115 845 45 c 0,18,19
 738 -20 738 -20 606 -20 c 0,0,1
606 122 m 0,20,21
 697 122 697 122 768.5 168.5 c 128,-1,22
 840 215 840 215 881 289.5 c 128,-1,23
 922 364 922 364 922 450 c 0,24,25
 922 544 922 544 878 618.5 c 128,-1,26
 834 693 834 693 762 735.5 c 128,-1,27
 690 778 690 778 606 778 c 0,28,29
 512 778 512 778 441 731.5 c 128,-1,30
 370 685 370 685 330 610 c 128,-1,31
 290 535 290 535 290 450 c 0,32,33
 290 354 290 354 334.5 280 c 128,-1,34
 379 206 379 206 451.5 164 c 128,-1,35
 524 122 524 122 606 122 c 0,20,21
EndSplineSet
Substitution2: "'subs' Subscript lookup 22 subtable" uni2086
Substitution2: "'sinf' Scientific Inferiors lookup 21 subtable" uni2086
Substitution2: "'sups' Superscript lookup 19 subtable" uni2076
Substitution2: "'aalt' Access All Alternates lookup 0 subtable" uni2076
EndChar

StartChar: seven
Encoding: 55 55 26
Width: 1200
GlyphClass: 1
Flags: W
LayerCount: 2
Fore
SplineSet
458 0 m 1,0,-1
 284 0 l 1,1,-1
 884 1275 l 1,2,-1
 128 1275 l 1,3,-1
 128 1413 l 1,4,-1
 1068 1413 l 1,5,-1
 1068 1335 l 1,6,-1
 458 0 l 1,0,-1
EndSplineSet
Substitution2: "'subs' Subscript lookup 22 subtable" uni2087
Substitution2: "'sinf' Scientific Inferiors lookup 21 subtable" uni2087
Substitution2: "'sups' Superscript lookup 19 subtable" uni2077
Substitution2: "'aalt' Access All Alternates lookup 0 subtable" uni2077
EndChar

StartChar: eight
Encoding: 56 56 27
Width: 1200
GlyphClass: 1
Flags: W
LayerCount: 2
Fore
SplineSet
600 -20 m 0,0,1
 508 -20 508 -20 423 4.5 c 128,-1,2
 338 29 338 29 271 79.5 c 128,-1,3
 204 130 204 130 165 207 c 128,-1,4
 126 284 126 284 126 389 c 0,5,6
 126 648 126 648 374 762 c 1,7,8
 291 810 291 810 243.5 889.5 c 128,-1,9
 196 969 196 969 196 1070 c 0,10,11
 196 1185 196 1185 251.5 1266.5 c 128,-1,12
 307 1348 307 1348 399.5 1391 c 128,-1,13
 492 1434 492 1434 602 1434 c 0,14,15
 707 1434 707 1434 799 1392 c 128,-1,16
 891 1350 891 1350 947.5 1268.5 c 128,-1,17
 1004 1187 1004 1187 1004 1070 c 0,18,19
 1004 967 1004 967 956.5 888 c 128,-1,20
 909 809 909 809 830 762 c 1,21,22
 943 713 943 713 1008.5 618 c 128,-1,23
 1074 523 1074 523 1074 390 c 0,24,25
 1074 252 1074 252 1009.5 161 c 128,-1,26
 945 70 945 70 837.5 25 c 128,-1,27
 730 -20 730 -20 600 -20 c 0,0,1
606 811 m 0,28,29
 673 811 673 811 730 839.5 c 128,-1,30
 787 868 787 868 821.5 922 c 128,-1,31
 856 976 856 976 856 1053 c 0,32,33
 856 1133 856 1133 821.5 1188.5 c 128,-1,34
 787 1244 787 1244 730 1272.5 c 128,-1,35
 673 1301 673 1301 604 1301 c 0,36,37
 540 1301 540 1301 482.5 1273.5 c 128,-1,38
 425 1246 425 1246 388.5 1194 c 128,-1,39
 352 1142 352 1142 352 1066 c 0,40,41
 352 948 352 948 423 879.5 c 128,-1,42
 494 811 494 811 606 811 c 0,28,29
600 110 m 0,43,44
 684 110 684 110 756.5 142.5 c 128,-1,45
 829 175 829 175 873.5 240 c 128,-1,46
 918 305 918 305 918 401 c 0,47,48
 918 496 918 496 873.5 561 c 128,-1,49
 829 626 829 626 756.5 659 c 128,-1,50
 684 692 684 692 600 692 c 256,51,52
 516 692 516 692 441.5 659.5 c 128,-1,53
 367 627 367 627 321 558 c 0,54,55
 278 492 278 492 278 402 c 0,56,57
 278 306 278 306 323 241 c 128,-1,58
 368 176 368 176 441.5 143 c 128,-1,59
 515 110 515 110 600 110 c 0,43,44
EndSplineSet
Substitution2: "'subs' Subscript lookup 22 subtable" uni2088
Substitution2: "'sinf' Scientific Inferiors lookup 21 subtable" uni2088
Substitution2: "'sups' Superscript lookup 19 subtable" uni2078
Substitution2: "'aalt' Access All Alternates lookup 0 subtable" uni2078
EndChar

StartChar: nine
Encoding: 57 57 28
Width: 1200
GlyphClass: 1
Flags: W
LayerCount: 2
Fore
SplineSet
582 0 m 1,0,-1
 412 0 l 1,1,-1
 720 526 l 1,2,3
 660 512 660 512 594 512 c 0,4,5
 463 512 463 512 357.5 571 c 128,-1,6
 252 630 252 630 190 732 c 128,-1,7
 128 834 128 834 128 961 c 0,8,9
 128 1080 128 1080 185.5 1189.5 c 128,-1,10
 243 1299 243 1299 355 1369 c 0,11,12
 462 1434 462 1434 596 1434 c 256,13,14
 730 1434 730 1434 835 1369 c 128,-1,15
 940 1304 940 1304 1001 1196.5 c 128,-1,16
 1062 1089 1062 1089 1062 964 c 0,17,18
 1062 832 1062 832 996 719 c 2,19,-1
 582 0 l 1,0,-1
594 635 m 0,20,21
 688 635 688 635 759 681.5 c 128,-1,22
 830 728 830 728 870 803 c 128,-1,23
 910 878 910 878 910 963 c 0,24,25
 910 1059 910 1059 865.5 1133 c 128,-1,26
 821 1207 821 1207 748.5 1249 c 128,-1,27
 676 1291 676 1291 594 1291 c 0,28,29
 503 1291 503 1291 431.5 1244.5 c 128,-1,30
 360 1198 360 1198 319 1123.5 c 128,-1,31
 278 1049 278 1049 278 963 c 0,32,33
 278 869 278 869 322 794.5 c 128,-1,34
 366 720 366 720 438 677.5 c 128,-1,35
 510 635 510 635 594 635 c 0,20,21
EndSplineSet
Substitution2: "'subs' Subscript lookup 22 subtable" uni2089
Substitution2: "'sinf' Scientific Inferiors lookup 21 subtable" uni2089
Substitution2: "'sups' Superscript lookup 19 subtable" uni2079
Substitution2: "'aalt' Access All Alternates lookup 0 subtable" uni2079
EndChar

StartChar: colon
Encoding: 58 58 29
Width: 600
GlyphClass: 1
Flags: W
LayerCount: 2
Fore
SplineSet
397 761 m 1,0,-1
 202 761 l 1,1,-1
 202 954 l 1,2,-1
 397 954 l 1,3,-1
 397 761 l 1,0,-1
397 0 m 1,4,-1
 202 0 l 1,5,-1
 202 194 l 1,6,-1
 397 194 l 1,7,-1
 397 0 l 1,4,-1
EndSplineSet
EndChar

StartChar: semicolon
Encoding: 59 59 30
Width: 600
GlyphClass: 1
Flags: W
LayerCount: 2
Fore
SplineSet
419 761 m 1,0,-1
 223 761 l 1,1,-1
 223 954 l 1,2,-1
 419 954 l 1,3,-1
 419 761 l 1,0,-1
193 -326 m 1,4,-1
 100 -326 l 1,5,-1
 244 264 l 1,6,-1
 437 264 l 1,7,-1
 193 -326 l 1,4,-1
EndSplineSet
EndChar

StartChar: less
Encoding: 60 60 31
Width: 1211
GlyphClass: 1
Flags: W
LayerCount: 2
Fore
SplineSet
1001 170 m 1,0,-1
 102 674 l 1,1,-1
 1001 1178 l 1,2,-1
 1069 1060 l 1,3,-1
 352 674 l 1,4,-1
 1069 287 l 1,5,-1
 1001 170 l 1,0,-1
EndSplineSet
EndChar

StartChar: equal
Encoding: 61 61 32
Width: 1263
GlyphClass: 1
Flags: W
LayerCount: 2
Fore
SplineSet
1011 775 m 1,0,-1
 252 775 l 1,1,-1
 252 911 l 1,2,-1
 1011 911 l 1,3,-1
 1011 775 l 1,0,-1
1011 433 m 1,4,-1
 252 433 l 1,5,-1
 252 569 l 1,6,-1
 1011 569 l 1,7,-1
 1011 433 l 1,4,-1
EndSplineSet
EndChar

StartChar: greater
Encoding: 62 62 33
Width: 1211
GlyphClass: 1
Flags: W
LayerCount: 2
Fore
SplineSet
210 170 m 1,0,-1
 142 287 l 1,1,-1
 859 674 l 1,2,-1
 142 1060 l 1,3,-1
 210 1178 l 1,4,-1
 1108 674 l 1,5,-1
 210 170 l 1,0,-1
EndSplineSet
EndChar

StartChar: question
Encoding: 63 63 34
Width: 1020
GlyphClass: 1
Flags: W
LayerCount: 2
Fore
SplineSet
571 376 m 1,0,-1
 435 376 l 1,1,-1
 435 605 l 2,2,3
 435 674 435 674 457.5 718 c 128,-1,4
 480 762 480 762 516 788.5 c 128,-1,5
 552 815 552 815 604 845 c 0,6,7
 656 874 656 874 690.5 899 c 128,-1,8
 725 924 725 924 746.5 966 c 128,-1,9
 768 1008 768 1008 768 1073 c 0,10,11
 768 1152 768 1152 733 1202.5 c 128,-1,12
 698 1253 698 1253 638 1277 c 128,-1,13
 578 1301 578 1301 503 1301 c 0,14,15
 397 1301 397 1301 319.5 1240 c 128,-1,16
 242 1179 242 1179 237 1062 c 1,17,-1
 93 1062 l 1,18,19
 93 1179 93 1179 148.5 1262 c 128,-1,20
 204 1345 204 1345 295 1389.5 c 128,-1,21
 386 1434 386 1434 494 1434 c 0,22,23
 604 1434 604 1434 699 1394 c 128,-1,24
 794 1354 794 1354 852.5 1273 c 128,-1,25
 911 1192 911 1192 911 1070 c 0,26,27
 911 980 911 980 882.5 923 c 128,-1,28
 854 866 854 866 812.5 831.5 c 128,-1,29
 771 797 771 797 705 761 c 0,30,31
 658 735 658 735 631.5 715 c 128,-1,32
 605 695 605 695 588 668.5 c 128,-1,33
 571 642 571 642 571 603 c 2,34,-1
 571 376 l 1,0,-1
604 0 m 1,35,-1
 408 0 l 1,36,-1
 408 194 l 1,37,-1
 604 194 l 1,38,-1
 604 0 l 1,35,-1
EndSplineSet
EndChar

StartChar: at
Encoding: 64 64 35
Width: 2066
GlyphClass: 1
Flags: W
LayerCount: 2
Fore
SplineSet
1026 -348 m 0,0,1
 796 -348 796 -348 594.5 -248.5 c 128,-1,2
 393 -149 393 -149 267 56 c 0,3,4
 150 252 150 252 150 515 c 0,5,6
 150 770 150 770 261 978.5 c 128,-1,7
 372 1187 372 1187 579 1312 c 0,8,9
 782 1432 782 1432 1045 1432 c 0,10,11
 1248 1432 1248 1432 1410 1363.5 c 128,-1,12
 1572 1295 1572 1295 1686 1175 c 128,-1,13
 1800 1055 1800 1055 1860.5 897 c 128,-1,14
 1921 739 1921 739 1921 560 c 0,15,16
 1921 407 1921 407 1874.5 267 c 128,-1,17
 1828 127 1828 127 1724 34 c 0,18,19
 1623 -53 1623 -53 1474 -53 c 0,20,21
 1348 -53 1348 -53 1277 9.5 c 128,-1,22
 1206 72 1206 72 1206 180 c 0,23,24
 1206 206 1206 206 1208 220 c 1,25,26
 1146 144 1146 144 1062 105 c 128,-1,27
 978 66 978 66 890 66 c 0,28,29
 785 66 785 66 716 117.5 c 128,-1,30
 647 169 647 169 612.5 254.5 c 128,-1,31
 578 340 578 340 578 441 c 0,32,33
 578 573 578 573 632.5 711 c 128,-1,34
 687 849 687 849 798 947 c 0,35,36
 903 1038 903 1038 1040 1038 c 0,37,38
 1142 1038 1142 1038 1214 987.5 c 128,-1,39
 1286 937 1286 937 1308 849 c 1,40,-1
 1337 989 l 1,41,-1
 1486 989 l 1,42,43
 1469 908 1469 908 1433 758 c 0,44,45
 1391 584 1391 584 1363 451 c 0,46,47
 1339 331 1339 331 1339 244 c 0,48,49
 1339 166 1339 166 1367.5 133 c 128,-1,50
 1396 100 1396 100 1466 100 c 0,51,52
 1579 100 1579 100 1649 169.5 c 128,-1,53
 1719 239 1719 239 1748.5 343.5 c 128,-1,54
 1778 448 1778 448 1778 562 c 0,55,56
 1778 764 1778 764 1689.5 930.5 c 128,-1,57
 1601 1097 1601 1097 1430 1198 c 0,58,59
 1263 1293 1263 1293 1046 1293 c 0,60,61
 870 1293 870 1293 730.5 1232 c 128,-1,62
 591 1171 591 1171 493 1065 c 128,-1,63
 395 959 395 959 343.5 818.5 c 128,-1,64
 292 678 292 678 292 519 c 0,65,66
 292 344 292 344 350.5 210.5 c 128,-1,67
 409 77 409 77 510.5 -14.5 c 128,-1,68
 612 -106 612 -106 745.5 -152.5 c 128,-1,69
 879 -199 879 -199 1028 -199 c 0,70,71
 1154 -199 1154 -199 1276 -160 c 1,72,-1
 1329 -297 l 1,73,74
 1190 -348 1190 -348 1026 -348 c 0,0,1
908 215 m 0,75,76
 1017 215 1017 215 1097 286 c 0,77,78
 1179 361 1179 361 1218 465.5 c 128,-1,79
 1257 570 1257 570 1257 668 c 0,80,81
 1257 769 1257 769 1212 829 c 128,-1,82
 1167 889 1167 889 1065 889 c 0,83,84
 955 889 955 889 876 819 c 0,85,86
 792 743 792 743 753 639 c 128,-1,87
 714 535 714 535 714 438 c 0,88,89
 714 338 714 338 759.5 276.5 c 128,-1,90
 805 215 805 215 908 215 c 0,75,76
EndSplineSet
EndChar

StartChar: A
Encoding: 65 65 36
Width: 1306
GlyphClass: 1
Flags: W
LayerCount: 2
Fore
SplineSet
1243 0 m 1,0,-1
 1073 0 l 1,1,-1
 965 307 l 1,2,-1
 344 307 l 1,3,-1
 236 0 l 1,4,-1
 63 0 l 1,5,-1
 594 1413 l 1,6,-1
 716 1413 l 1,7,-1
 1243 0 l 1,0,-1
911 452 m 1,8,-1
 656 1180 l 1,9,-1
 397 452 l 1,10,-1
 911 452 l 1,8,-1
EndSplineSet
Substitution2: "Single Substitution lookup 3 subtable" ordfeminine
Substitution2: "Single Substitution lookup 2 subtable" ordfeminine
Position2: "'cpsp' Capital Spacing lookup 0 subtable" dx=5 dy=0 dh=10 dv=0
EndChar

StartChar: B
Encoding: 66 66 37
Width: 1243
GlyphClass: 1
Flags: W
LayerCount: 2
Fore
SplineSet
676 0 m 2,0,-1
 212 0 l 1,1,-1
 212 1413 l 1,2,-1
 603 1413 l 2,3,4
 795 1413 795 1413 918 1333 c 0,5,6
 1056 1242 1056 1242 1056 1063 c 0,7,8
 1056 854 1056 854 873 748 c 1,9,10
 992 695 992 695 1058.5 605.5 c 128,-1,11
 1125 516 1125 516 1125 377 c 0,12,13
 1125 243 1125 243 1062 159 c 0,14,15
 995 73 995 73 893.5 36.5 c 128,-1,16
 792 0 792 0 676 0 c 2,0,-1
603 791 m 2,17,18
 731 791 731 791 811 853.5 c 128,-1,19
 891 916 891 916 891 1042 c 0,20,21
 891 1169 891 1169 813.5 1220 c 128,-1,22
 736 1271 736 1271 605 1271 c 2,23,-1
 367 1271 l 1,24,-1
 367 791 l 1,25,-1
 603 791 l 2,17,18
680 147 m 2,26,27
 969 147 969 147 969 386 c 0,28,29
 969 527 969 527 889 588 c 128,-1,30
 809 649 809 649 683 649 c 2,31,-1
 367 649 l 1,32,-1
 367 147 l 1,33,-1
 680 147 l 2,26,27
EndSplineSet
Position2: "'cpsp' Capital Spacing lookup 0 subtable" dx=5 dy=0 dh=10 dv=0
EndChar

StartChar: C
Encoding: 67 67 38
Width: 1420
GlyphClass: 1
Flags: W
LayerCount: 2
Fore
SplineSet
759 -20 m 0,0,1
 550 -20 550 -20 407 77 c 0,2,3
 258 181 258 181 191.5 347 c 128,-1,4
 125 513 125 513 125 707 c 0,5,6
 125 836 125 836 153.5 954.5 c 128,-1,7
 182 1073 182 1073 244 1171.5 c 128,-1,8
 306 1270 306 1270 406 1339 c 0,9,10
 548 1436 548 1436 757 1436 c 0,11,12
 948 1436 948 1436 1097 1342.5 c 128,-1,13
 1246 1249 1246 1249 1332 1060 c 1,14,-1
 1186 997 l 1,15,16
 1145 1148 1145 1148 1030 1218.5 c 128,-1,17
 915 1289 915 1289 755 1289 c 256,18,19
 595 1289 595 1289 489 1211 c 0,20,21
 378 1128 378 1128 329.5 998 c 128,-1,22
 281 868 281 868 281 717 c 0,23,24
 281 558 281 558 329.5 423.5 c 128,-1,25
 378 289 378 289 489 205 c 0,26,27
 596 126 596 126 759 126 c 0,28,29
 916 126 916 126 1024 198 c 128,-1,30
 1132 270 1132 270 1188 421 c 1,31,-1
 1334 358 l 1,32,33
 1252 172 1252 172 1102.5 76 c 128,-1,34
 953 -20 953 -20 759 -20 c 0,0,1
EndSplineSet
Position2: "'cpsp' Capital Spacing lookup 0 subtable" dx=5 dy=0 dh=10 dv=0
EndChar

StartChar: D
Encoding: 68 68 39
Width: 1406
GlyphClass: 1
Flags: W
LayerCount: 2
Fore
SplineSet
570 0 m 2,0,-1
 212 0 l 1,1,-1
 212 1413 l 1,2,-1
 572 1413 l 2,3,4
 921 1413 921 1413 1103 1226.5 c 128,-1,5
 1285 1040 1285 1040 1285 696 c 0,6,7
 1285 469 1285 469 1199.5 314 c 128,-1,8
 1114 159 1114 159 954 79.5 c 128,-1,9
 794 0 794 0 570 0 c 2,0,-1
546 145 m 2,10,11
 707 145 707 145 839.5 203.5 c 128,-1,12
 972 262 972 262 1052 393 c 0,13,14
 1126 519 1126 519 1126 707 c 0,15,16
 1126 883 1126 883 1067 1009.5 c 128,-1,17
 1008 1136 1008 1136 884.5 1203.5 c 128,-1,18
 761 1271 761 1271 568 1271 c 2,19,-1
 371 1271 l 1,20,-1
 371 145 l 1,21,-1
 546 145 l 2,10,11
EndSplineSet
Position2: "'cpsp' Capital Spacing lookup 0 subtable" dx=5 dy=0 dh=10 dv=0
EndChar

StartChar: E
Encoding: 69 69 40
Width: 1239
GlyphClass: 1
Flags: W
LayerCount: 2
Fore
SplineSet
1127 0 m 1,0,-1
 212 0 l 1,1,-1
 212 1413 l 1,2,-1
 1127 1413 l 1,3,-1
 1127 1276 l 1,4,-1
 371 1276 l 1,5,-1
 371 774 l 1,6,-1
 1028 774 l 1,7,-1
 1028 641 l 1,8,-1
 371 641 l 1,9,-1
 371 145 l 1,10,-1
 1127 145 l 1,11,-1
 1127 0 l 1,0,-1
EndSplineSet
Position2: "'cpsp' Capital Spacing lookup 0 subtable" dx=5 dy=0 dh=10 dv=0
EndChar

StartChar: F
Encoding: 70 70 41
Width: 1196
GlyphClass: 1
Flags: W
LayerCount: 2
Fore
SplineSet
371 0 m 1,0,-1
 212 0 l 1,1,-1
 212 1413 l 1,2,-1
 1118 1413 l 1,3,-1
 1118 1276 l 1,4,-1
 371 1276 l 1,5,-1
 371 774 l 1,6,-1
 1030 774 l 1,7,-1
 1030 641 l 1,8,-1
 371 641 l 1,9,-1
 371 0 l 1,0,-1
EndSplineSet
Position2: "'cpsp' Capital Spacing lookup 0 subtable" dx=5 dy=0 dh=10 dv=0
EndChar

StartChar: G
Encoding: 71 71 42
Width: 1509
GlyphClass: 1
Flags: W
LayerCount: 2
Fore
SplineSet
759 -20 m 0,0,1
 550 -20 550 -20 407 77 c 0,2,3
 258 181 258 181 191.5 347 c 128,-1,4
 125 513 125 513 125 707 c 0,5,6
 125 900 125 900 192.5 1066.5 c 128,-1,7
 260 1233 260 1233 408 1338 c 0,8,9
 550 1436 550 1436 757 1436 c 0,10,11
 960 1436 960 1436 1105.5 1338.5 c 128,-1,12
 1251 1241 1251 1241 1331 1060 c 1,13,-1
 1186 997 l 1,14,15
 1125 1133 1125 1133 1017 1210 c 128,-1,16
 909 1287 909 1287 755 1287 c 0,17,18
 595 1287 595 1287 489 1210 c 0,19,20
 378 1127 378 1127 329.5 997.5 c 128,-1,21
 281 868 281 868 281 717 c 0,22,23
 281 595 281 595 308.5 488.5 c 128,-1,24
 336 382 336 382 394 301 c 128,-1,25
 452 220 452 220 542.5 174 c 128,-1,26
 633 128 633 128 759 128 c 0,27,28
 875 128 875 128 977 180 c 128,-1,29
 1079 232 1079 232 1143 342 c 0,30,31
 1203 446 1203 446 1205 590 c 1,32,-1
 882 590 l 1,33,-1
 882 715 l 1,34,-1
 1355 715 l 1,35,-1
 1355 0 l 1,36,-1
 1223 0 l 1,37,-1
 1221 258 l 1,38,39
 1191 183 1191 183 1128 120 c 128,-1,40
 1065 57 1065 57 971.5 18.5 c 128,-1,41
 878 -20 878 -20 759 -20 c 0,0,1
EndSplineSet
Position2: "'cpsp' Capital Spacing lookup 0 subtable" dx=5 dy=0 dh=10 dv=0
EndChar

StartChar: H
Encoding: 72 72 43
Width: 1455
GlyphClass: 1
Flags: W
LayerCount: 2
Fore
SplineSet
1243 0 m 1,0,-1
 1084 0 l 1,1,-1
 1084 641 l 1,2,-1
 371 641 l 1,3,-1
 371 0 l 1,4,-1
 212 0 l 1,5,-1
 212 1413 l 1,6,-1
 371 1413 l 1,7,-1
 371 774 l 1,8,-1
 1084 774 l 1,9,-1
 1084 1413 l 1,10,-1
 1243 1413 l 1,11,-1
 1243 0 l 1,0,-1
EndSplineSet
Position2: "'cpsp' Capital Spacing lookup 0 subtable" dx=5 dy=0 dh=10 dv=0
EndChar

StartChar: I
Encoding: 73 73 44
Width: 582
GlyphClass: 1
Flags: W
LayerCount: 2
Fore
SplineSet
371 0 m 1,0,-1
 212 0 l 1,1,-1
 212 1413 l 1,2,-1
 371 1413 l 1,3,-1
 371 0 l 1,0,-1
EndSplineSet
Position2: "'cpsp' Capital Spacing lookup 0 subtable" dx=5 dy=0 dh=10 dv=0
EndChar

StartChar: J
Encoding: 74 74 45
Width: 1119
GlyphClass: 1
Flags: W
LayerCount: 2
Fore
SplineSet
498 -20 m 0,0,1
 368 -20 368 -20 275.5 36 c 128,-1,2
 183 92 183 92 131.5 186 c 128,-1,3
 80 280 80 280 72 396 c 1,4,-1
 227 417 l 1,5,6
 232 339 232 339 261.5 272 c 128,-1,7
 291 205 291 205 349.5 162.5 c 128,-1,8
 408 120 408 120 498 120 c 0,9,10
 607 120 607 120 666.5 166.5 c 128,-1,11
 726 213 726 213 749 292 c 128,-1,12
 772 371 772 371 772 485 c 2,13,-1
 772 1413 l 1,14,-1
 931 1413 l 1,15,-1
 931 502 l 2,16,17
 931 254 931 254 827 117 c 128,-1,18
 723 -20 723 -20 498 -20 c 0,0,1
EndSplineSet
Position2: "'cpsp' Capital Spacing lookup 0 subtable" dx=5 dy=0 dh=10 dv=0
EndChar

StartChar: K
Encoding: 75 75 46
Width: 1452
GlyphClass: 1
Flags: W
LayerCount: 2
Fore
SplineSet
1389 0 m 1,0,-1
 1198 0 l 1,1,-1
 716 747 l 1,2,-1
 371 390 l 1,3,-1
 371 0 l 1,4,-1
 212 0 l 1,5,-1
 212 1413 l 1,6,-1
 371 1413 l 1,7,-1
 371 584 l 1,8,-1
 1152 1413 l 1,9,-1
 1356 1413 l 1,10,-1
 822 856 l 1,11,-1
 1389 0 l 1,0,-1
EndSplineSet
Position2: "'cpsp' Capital Spacing lookup 0 subtable" dx=5 dy=0 dh=10 dv=0
EndChar

StartChar: L
Encoding: 76 76 47
Width: 1037
GlyphClass: 1
Flags: W
LayerCount: 2
Fore
SplineSet
975 0 m 1,0,-1
 212 0 l 1,1,-1
 212 1413 l 1,2,-1
 371 1413 l 1,3,-1
 371 145 l 1,4,-1
 975 145 l 1,5,-1
 975 0 l 1,0,-1
EndSplineSet
Position2: "'cpsp' Capital Spacing lookup 0 subtable" dx=5 dy=0 dh=10 dv=0
EndChar

StartChar: M
Encoding: 77 77 48
Width: 1762
GlyphClass: 1
Flags: W
LayerCount: 2
Fore
SplineSet
1550 0 m 1,0,-1
 1393 0 l 1,1,-1
 1393 1276 l 1,2,-1
 968 123 l 1,3,-1
 794 123 l 1,4,-1
 370 1276 l 1,5,-1
 370 0 l 1,6,-1
 212 0 l 1,7,-1
 212 1413 l 1,8,-1
 470 1413 l 1,9,-1
 878 278 l 1,10,-1
 1292 1413 l 1,11,-1
 1550 1413 l 1,12,-1
 1550 0 l 1,0,-1
EndSplineSet
Position2: "'cpsp' Capital Spacing lookup 0 subtable" dx=5 dy=0 dh=10 dv=0
EndChar

StartChar: N
Encoding: 78 78 49
Width: 1418
GlyphClass: 1
Flags: W
LayerCount: 2
Fore
SplineSet
1206 0 m 1,0,-1
 974 0 l 1,1,-1
 370 1247 l 1,2,-1
 370 0 l 1,3,-1
 212 0 l 1,4,-1
 212 1413 l 1,5,-1
 441 1413 l 1,6,-1
 1049 168 l 1,7,-1
 1049 1413 l 1,8,-1
 1206 1413 l 1,9,-1
 1206 0 l 1,0,-1
EndSplineSet
Position2: "'cpsp' Capital Spacing lookup 0 subtable" dx=5 dy=0 dh=10 dv=0
EndChar

StartChar: O
Encoding: 79 79 50
Width: 1515
GlyphClass: 1
Flags: W
LayerCount: 2
Fore
SplineSet
756 -20 m 0,0,1
 549 -20 549 -20 407 78 c 0,2,3
 258 182 258 182 190.5 348.5 c 128,-1,4
 123 515 123 515 123 707 c 256,5,6
 123 899 123 899 190.5 1065.5 c 128,-1,7
 258 1232 258 1232 407 1337 c 0,8,9
 549 1434 549 1434 756 1434 c 0,10,11
 964 1434 964 1434 1107 1337 c 0,12,13
 1256 1232 1256 1232 1324 1065.5 c 128,-1,14
 1392 899 1392 899 1392 707 c 256,15,16
 1392 515 1392 515 1324 348.5 c 128,-1,17
 1256 182 1256 182 1107 78 c 0,18,19
 964 -20 964 -20 756 -20 c 0,0,1
756 126 m 0,20,21
 920 126 920 126 1029 206 c 0,22,23
 1141 290 1141 290 1189.5 422.5 c 128,-1,24
 1238 555 1238 555 1238 707 c 256,25,26
 1238 859 1238 859 1189 991 c 128,-1,27
 1140 1123 1140 1123 1029 1208 c 0,28,29
 920 1287 920 1287 756 1287 c 0,30,31
 594 1287 594 1287 487 1208 c 0,32,33
 375 1123 375 1123 326.5 991 c 128,-1,34
 278 859 278 859 278 707 c 256,35,36
 278 555 278 555 326.5 423 c 128,-1,37
 375 291 375 291 487 206 c 0,38,39
 594 126 594 126 756 126 c 0,20,21
EndSplineSet
Substitution2: "Single Substitution lookup 3 subtable" ordmasculine
Substitution2: "Single Substitution lookup 2 subtable" ordmasculine
Position2: "'cpsp' Capital Spacing lookup 0 subtable" dx=5 dy=0 dh=10 dv=0
EndChar

StartChar: P
Encoding: 80 80 51
Width: 1148
GlyphClass: 1
Flags: W
LayerCount: 2
Fore
SplineSet
370 0 m 1,0,-1
 212 0 l 1,1,-1
 212 1413 l 1,2,-1
 608 1413 l 2,3,4
 814 1413 814 1413 937 1309 c 128,-1,5
 1060 1205 1060 1205 1060 1023 c 0,6,7
 1060 897 1060 897 1004 811.5 c 128,-1,8
 948 726 948 726 846.5 682 c 128,-1,9
 745 638 745 638 608 638 c 2,10,-1
 370 638 l 1,11,-1
 370 0 l 1,0,-1
608 779 m 2,12,13
 745 779 745 779 824.5 838 c 128,-1,14
 904 897 904 897 904 1023 c 0,15,16
 904 1140 904 1140 827.5 1206 c 128,-1,17
 751 1272 751 1272 608 1272 c 2,18,-1
 370 1272 l 1,19,-1
 370 779 l 1,20,-1
 608 779 l 2,12,13
EndSplineSet
Position2: "'cpsp' Capital Spacing lookup 0 subtable" dx=5 dy=0 dh=10 dv=0
EndChar

StartChar: Q
Encoding: 81 81 52
Width: 1545
GlyphClass: 1
Flags: W
LayerCount: 2
Fore
SplineSet
1336 -97 m 1,0,-1
 1143 102 l 1,1,2
 995 -20 995 -20 756 -20 c 0,3,4
 549 -20 549 -20 407 78 c 0,5,6
 258 182 258 182 190.5 348.5 c 128,-1,7
 123 515 123 515 123 707 c 256,8,9
 123 899 123 899 190.5 1065.5 c 128,-1,10
 258 1232 258 1232 407 1337 c 0,11,12
 549 1434 549 1434 756 1434 c 0,13,14
 964 1434 964 1434 1107 1337 c 0,15,16
 1256 1232 1256 1232 1324 1065.5 c 128,-1,17
 1392 899 1392 899 1392 706 c 0,18,19
 1392 564 1392 564 1354.5 431 c 128,-1,20
 1317 298 1317 298 1236 196 c 1,21,-1
 1431 -1 l 1,22,-1
 1336 -97 l 1,0,-1
756 124 m 0,23,24
 921 124 921 124 1033 206 c 1,25,-1
 834 410 l 1,26,-1
 926 507 l 1,27,-1
 1127 304 l 1,28,29
 1233 462 1233 462 1233 707 c 0,30,31
 1233 861 1233 861 1185 993 c 128,-1,32
 1137 1125 1137 1125 1027 1210 c 0,33,34
 920 1289 920 1289 756 1289 c 0,35,36
 594 1289 594 1289 488 1209 c 0,37,38
 378 1124 378 1124 330 991.5 c 128,-1,39
 282 859 282 859 282 707 c 0,40,41
 282 591 282 591 309 485.5 c 128,-1,42
 336 380 336 380 393 299 c 128,-1,43
 450 218 450 218 540 171 c 128,-1,44
 630 124 630 124 756 124 c 0,23,24
EndSplineSet
Position2: "'cpsp' Capital Spacing lookup 0 subtable" dx=5 dy=0 dh=10 dv=0
EndChar

StartChar: R
Encoding: 82 82 53
Width: 1220
GlyphClass: 1
Flags: W
LayerCount: 2
Fore
SplineSet
1142 -2 m 1,0,-1
 956 -2 l 1,1,-1
 603 632 l 1,2,-1
 371 632 l 1,3,-1
 371 -2 l 1,4,-1
 212 -2 l 1,5,-1
 212 1411 l 1,6,-1
 616 1411 l 2,7,8
 737 1411 737 1411 838 1365 c 128,-1,9
 939 1319 939 1319 999.5 1231.5 c 128,-1,10
 1060 1144 1060 1144 1060 1019 c 0,11,12
 1060 874 1060 874 977 778 c 128,-1,13
 894 682 894 682 759 653 c 1,14,-1
 1142 -2 l 1,0,-1
642 778 m 1,15,16
 718 782 718 782 777 810 c 128,-1,17
 836 838 836 838 870 890 c 128,-1,18
 904 942 904 942 904 1019 c 0,19,20
 904 1101 904 1101 867 1157 c 128,-1,21
 830 1213 830 1213 765.5 1242 c 128,-1,22
 701 1271 701 1271 618 1271 c 2,23,-1
 373 1271 l 1,24,-1
 373 778 l 1,25,-1
 642 778 l 1,15,16
EndSplineSet
Position2: "'cpsp' Capital Spacing lookup 0 subtable" dx=5 dy=0 dh=10 dv=0
EndChar

StartChar: S
Encoding: 83 83 54
Width: 1110
GlyphClass: 1
Flags: W
LayerCount: 2
Fore
SplineSet
571 -16 m 0,0,1
 474 -16 474 -16 391 10.5 c 128,-1,2
 308 37 308 37 244 86.5 c 128,-1,3
 180 136 180 136 138.5 206 c 128,-1,4
 97 276 97 276 83 362 c 1,5,-1
 231 406 l 1,6,7
 240 340 240 340 267.5 288 c 128,-1,8
 295 236 295 236 339 200 c 128,-1,9
 383 164 383 164 442 144.5 c 128,-1,10
 501 125 501 125 572 125 c 0,11,12
 709 125 709 125 783.5 191 c 128,-1,13
 858 257 858 257 858 378 c 0,14,15
 858 439 858 439 834.5 483 c 128,-1,16
 811 527 811 527 771 560 c 128,-1,17
 731 593 731 593 679.5 619 c 128,-1,18
 628 645 628 645 571 670 c 0,19,20
 501 701 501 701 431 734.5 c 128,-1,21
 361 768 361 768 304.5 814 c 128,-1,22
 248 860 248 860 212.5 923 c 128,-1,23
 177 986 177 986 177 1076 c 0,24,25
 177 1154 177 1154 205.5 1219.5 c 128,-1,26
 234 1285 234 1285 285 1333 c 128,-1,27
 336 1381 336 1381 406 1407.5 c 128,-1,28
 476 1434 476 1434 560 1434 c 0,29,30
 690 1434 690 1434 788.5 1378.5 c 128,-1,31
 887 1323 887 1323 952 1214 c 1,32,-1
 833 1134 l 1,33,34
 791 1212 791 1212 720 1254.5 c 128,-1,35
 649 1297 649 1297 558 1297 c 0,36,37
 509 1297 509 1297 467.5 1281.5 c 128,-1,38
 426 1266 426 1266 395.5 1238.5 c 128,-1,39
 365 1211 365 1211 348 1173 c 128,-1,40
 331 1135 331 1135 331 1090 c 0,41,42
 331 1030 331 1030 355.5 988 c 128,-1,43
 380 946 380 946 421 914 c 128,-1,44
 462 882 462 882 515 857 c 128,-1,45
 568 832 568 832 626 807 c 0,46,47
 695 777 695 777 764 743 c 128,-1,48
 833 709 833 709 888 661.5 c 128,-1,49
 943 614 943 614 977.5 548.5 c 128,-1,50
 1012 483 1012 483 1012 390 c 0,51,52
 1012 300 1012 300 979.5 225.5 c 128,-1,53
 947 151 947 151 889 97 c 128,-1,54
 831 43 831 43 750 13.5 c 128,-1,55
 669 -16 669 -16 571 -16 c 0,0,1
EndSplineSet
Position2: "'cpsp' Capital Spacing lookup 0 subtable" dx=5 dy=0 dh=10 dv=0
EndChar

StartChar: T
Encoding: 84 84 55
Width: 1234
GlyphClass: 1
Flags: W
LayerCount: 2
Fore
SplineSet
697 0 m 1,0,-1
 537 0 l 1,1,-1
 537 1282 l 1,2,-1
 60 1282 l 1,3,-1
 60 1413 l 1,4,-1
 1174 1413 l 1,5,-1
 1174 1282 l 1,6,-1
 697 1282 l 1,7,-1
 697 0 l 1,0,-1
EndSplineSet
Position2: "'cpsp' Capital Spacing lookup 0 subtable" dx=5 dy=0 dh=10 dv=0
EndChar

StartChar: U
Encoding: 85 85 56
Width: 1352
GlyphClass: 1
Flags: W
LayerCount: 2
Fore
SplineSet
675 -20 m 0,0,1
 507 -20 507 -20 397 53 c 0,2,3
 283 131 283 131 233.5 253 c 128,-1,4
 184 375 184 375 184 518 c 2,5,-1
 184 1413 l 1,6,-1
 343 1413 l 1,7,-1
 343 563 l 2,8,9
 343 362 343 362 419 246 c 128,-1,10
 495 130 495 130 675 130 c 0,11,12
 1011 130 1011 130 1011 563 c 2,13,-1
 1011 1413 l 1,14,-1
 1170 1413 l 1,15,-1
 1170 528 l 2,16,17
 1170 416 1170 416 1141.5 316.5 c 128,-1,18
 1113 217 1113 217 1053 141.5 c 128,-1,19
 993 66 993 66 899 23 c 128,-1,20
 805 -20 805 -20 675 -20 c 0,0,1
EndSplineSet
Position2: "'cpsp' Capital Spacing lookup 0 subtable" dx=5 dy=0 dh=10 dv=0
EndChar

StartChar: V
Encoding: 86 86 57
Width: 1324
GlyphClass: 1
Flags: W
LayerCount: 2
Fore
SplineSet
732 0 m 1,0,-1
 596 0 l 1,1,-1
 63 1413 l 1,2,-1
 229 1413 l 1,3,-1
 664 210 l 1,4,-1
 1099 1413 l 1,5,-1
 1261 1413 l 1,6,-1
 732 0 l 1,0,-1
EndSplineSet
Position2: "'cpsp' Capital Spacing lookup 0 subtable" dx=5 dy=0 dh=10 dv=0
EndChar

StartChar: W
Encoding: 87 87 58
Width: 1973
GlyphClass: 1
Flags: W
LayerCount: 2
Fore
SplineSet
1502 0 m 1,0,-1
 1328 0 l 1,1,-1
 990 1158 l 1,2,-1
 645 0 l 1,3,-1
 471 0 l 1,4,-1
 74 1413 l 1,5,-1
 236 1413 l 1,6,-1
 572 194 l 1,7,-1
 923 1413 l 1,8,-1
 1051 1413 l 1,9,-1
 1403 194 l 1,10,-1
 1737 1413 l 1,11,-1
 1900 1413 l 1,12,-1
 1502 0 l 1,0,-1
EndSplineSet
Position2: "'cpsp' Capital Spacing lookup 0 subtable" dx=5 dy=0 dh=10 dv=0
EndChar

StartChar: X
Encoding: 88 88 59
Width: 1260
GlyphClass: 1
Flags: W
LayerCount: 2
Fore
SplineSet
1188 0 m 1,0,-1
 1003 0 l 1,1,-1
 629 576 l 1,2,-1
 261 0 l 1,3,-1
 72 0 l 1,4,-1
 540 707 l 1,5,-1
 74 1413 l 1,6,-1
 263 1413 l 1,7,-1
 631 827 l 1,8,-1
 1001 1413 l 1,9,-1
 1186 1413 l 1,10,-1
 723 707 l 1,11,-1
 1188 0 l 1,0,-1
EndSplineSet
Position2: "'cpsp' Capital Spacing lookup 0 subtable" dx=5 dy=0 dh=10 dv=0
EndChar

StartChar: Y
Encoding: 89 89 60
Width: 1316
GlyphClass: 1
Flags: W
LayerCount: 2
Fore
SplineSet
737 0 m 1,0,-1
 581 0 l 1,1,-1
 581 553 l 1,2,-1
 52 1413 l 1,3,-1
 238 1413 l 1,4,-1
 657 714 l 1,5,-1
 1079 1413 l 1,6,-1
 1264 1413 l 1,7,-1
 737 553 l 1,8,-1
 737 0 l 1,0,-1
EndSplineSet
Position2: "'cpsp' Capital Spacing lookup 0 subtable" dx=5 dy=0 dh=10 dv=0
EndChar

StartChar: Z
Encoding: 90 90 61
Width: 1273
GlyphClass: 1
Flags: W
LayerCount: 2
Fore
SplineSet
1175 0 m 1,0,-1
 87 0 l 1,1,-1
 87 124 l 1,2,-1
 982 1276 l 1,3,-1
 132 1276 l 1,4,-1
 132 1413 l 1,5,-1
 1175 1413 l 1,6,-1
 1175 1283 l 1,7,-1
 284 144 l 1,8,-1
 1175 144 l 1,9,-1
 1175 0 l 1,0,-1
EndSplineSet
Position2: "'cpsp' Capital Spacing lookup 0 subtable" dx=5 dy=0 dh=10 dv=0
EndChar

StartChar: bracketleft
Encoding: 91 91 62
Width: 633
GlyphClass: 1
Flags: W
LayerCount: 2
Fore
SplineSet
566 -93 m 1,0,-1
 204 -93 l 1,1,-1
 204 1504 l 1,2,-1
 566 1504 l 1,3,-1
 566 1413 l 1,4,-1
 330 1413 l 1,5,-1
 330 0 l 1,6,-1
 566 0 l 1,7,-1
 566 -93 l 1,0,-1
EndSplineSet
EndChar

StartChar: backslash
Encoding: 92 92 63
Width: 927
GlyphClass: 1
Flags: W
LayerCount: 2
Fore
SplineSet
917 -430 m 1,0,-1
 765 -430 l 1,1,-1
 11 1516 l 1,2,-1
 164 1516 l 1,3,-1
 917 -430 l 1,0,-1
EndSplineSet
EndChar

StartChar: bracketright
Encoding: 93 93 64
Width: 633
GlyphClass: 1
Flags: W
LayerCount: 2
Fore
SplineSet
429 -93 m 1,0,-1
 67 -93 l 1,1,-1
 67 0 l 1,2,-1
 303 0 l 1,3,-1
 303 1413 l 1,4,-1
 67 1413 l 1,5,-1
 67 1504 l 1,6,-1
 429 1504 l 1,7,-1
 429 -93 l 1,0,-1
EndSplineSet
EndChar

StartChar: asciicircum
Encoding: 94 94 65
Width: 974
GlyphClass: 1
Flags: W
LayerCount: 2
Fore
SplineSet
852 839 m 1,0,-1
 694 839 l 1,1,-1
 486 1173 l 1,2,-1
 282 839 l 1,3,-1
 124 839 l 1,4,-1
 486 1428 l 1,5,-1
 852 839 l 1,0,-1
EndSplineSet
EndChar

StartChar: underscore
Encoding: 95 95 66
Width: 1236
GlyphClass: 1
Flags: W
LayerCount: 2
Fore
SplineSet
1008 -114 m 1,0,-1
 228 -114 l 1,1,-1
 228 0 l 1,2,-1
 1008 0 l 1,3,-1
 1008 -114 l 1,0,-1
EndSplineSet
EndChar

StartChar: a
Encoding: 97 97 68
Width: 1045
GlyphClass: 1
Flags: W
LayerCount: 2
Fore
SplineSet
414 -20 m 0,0,1
 319 -20 319 -20 242.5 15.5 c 128,-1,2
 166 51 166 51 121.5 120 c 128,-1,3
 77 189 77 189 77 289 c 0,4,5
 77 396 77 396 132 462.5 c 128,-1,6
 187 529 187 529 289 560.5 c 128,-1,7
 391 592 391 592 534 592 c 2,8,-1
 769 592 l 1,9,10
 769 751 769 751 709 838.5 c 128,-1,11
 649 926 649 926 514 926 c 0,12,13
 333 926 333 926 226 770 c 1,14,-1
 117 860 l 1,15,16
 260 1056 260 1056 504 1056 c 0,17,18
 636 1056 636 1056 725.5 1003.5 c 128,-1,19
 815 951 815 951 860.5 856.5 c 128,-1,20
 906 762 906 762 906 637 c 2,21,-1
 906 0 l 1,22,-1
 779 0 l 1,23,-1
 776 198 l 1,24,25
 718 83 718 83 621 31.5 c 128,-1,26
 524 -20 524 -20 414 -20 c 0,0,1
429 106 m 0,27,28
 509 106 509 106 572 140 c 128,-1,29
 635 174 635 174 679 228.5 c 128,-1,30
 723 283 723 283 746 349 c 128,-1,31
 769 415 769 415 769 479 c 1,32,-1
 546 479 l 2,33,34
 383 479 383 479 307.5 431 c 128,-1,35
 232 383 232 383 232 284 c 0,36,37
 232 221 232 221 258 182 c 128,-1,38
 284 143 284 143 328.5 124.5 c 128,-1,39
 373 106 373 106 429 106 c 0,27,28
EndSplineSet
Substitution2: "Single Substitution lookup 3 subtable" ordfeminine
Substitution2: "Single Substitution lookup 2 subtable" ordfeminine
EndChar

StartChar: b
Encoding: 98 98 69
Width: 1150
GlyphClass: 1
Flags: W
LayerCount: 2
Fore
SplineSet
647 -20 m 0,0,1
 436 -20 436 -20 326 137 c 1,2,-1
 326 0 l 1,3,-1
 177 0 l 1,4,-1
 177 1413 l 1,5,-1
 326 1413 l 1,6,-1
 326 902 l 1,7,8
 441 1062 441 1062 646 1062 c 0,9,10
 782 1062 782 1062 874 987.5 c 128,-1,11
 966 913 966 913 1013.5 790 c 128,-1,12
 1061 667 1061 667 1061 520 c 0,13,14
 1061 377 1061 377 1015 253.5 c 128,-1,15
 969 130 969 130 871 53 c 0,16,17
 777 -20 777 -20 647 -20 c 0,0,1
609 111 m 0,18,19
 712 111 712 111 779.5 168 c 128,-1,20
 847 225 847 225 879.5 318 c 128,-1,21
 912 411 912 411 912 520 c 0,22,23
 912 627 912 627 880 720.5 c 128,-1,24
 848 814 848 814 781 872 c 128,-1,25
 714 930 714 930 609 930 c 0,26,27
 507 930 507 930 441.5 873 c 128,-1,28
 376 816 376 816 344.5 723 c 128,-1,29
 313 630 313 630 313 520 c 0,30,31
 313 413 313 413 343 320 c 128,-1,32
 373 227 373 227 438.5 169 c 128,-1,33
 504 111 504 111 609 111 c 0,18,19
EndSplineSet
EndChar

StartChar: c
Encoding: 99 99 70
Width: 1000
GlyphClass: 1
Flags: W
LayerCount: 2
Fore
SplineSet
544 -20 m 0,0,1
 432 -20 432 -20 348 23.5 c 128,-1,2
 264 67 264 67 208 142.5 c 128,-1,3
 152 218 152 218 124 315 c 128,-1,4
 96 412 96 412 96 518 c 0,5,6
 96 655 96 655 145 778 c 128,-1,7
 194 901 194 901 299 982 c 0,8,9
 399 1056 399 1056 542 1056 c 0,10,11
 687 1056 687 1056 789 982.5 c 128,-1,12
 891 909 891 909 943 787 c 1,13,-1
 797 724 l 1,14,15
 771 823 771 823 700 875.5 c 128,-1,16
 629 928 629 928 539 928 c 0,17,18
 438 928 438 928 372 868 c 0,19,20
 304 804 304 804 276.5 710.5 c 128,-1,21
 249 617 249 617 249 518 c 0,22,23
 249 349 249 349 314 236 c 0,24,25
 389 107 389 107 539 107 c 0,26,27
 635 107 635 107 703.5 161.5 c 128,-1,28
 772 216 772 216 797 311 c 1,29,-1
 932 252 l 1,30,31
 888 128 888 128 789 54 c 128,-1,32
 690 -20 690 -20 544 -20 c 0,0,1
EndSplineSet
AlternateSubs2: "'salt' Stylistic Alternatives lookup 15 subtable" c.001
Substitution2: "'aalt' Access All Alternates lookup 0 subtable" c.001
EndChar

StartChar: d
Encoding: 100 100 71
Width: 1151
GlyphClass: 1
Flags: W
LayerCount: 2
Fore
SplineSet
513 -20 m 0,0,1
 380 -20 380 -20 288 54 c 128,-1,2
 196 128 196 128 148 251 c 128,-1,3
 100 374 100 374 100 520 c 0,4,5
 100 663 100 663 147 787 c 128,-1,6
 194 911 194 911 292 988 c 0,7,8
 385 1060 385 1060 512 1060 c 0,9,10
 723 1060 723 1060 835 902 c 1,11,-1
 835 1413 l 1,12,-1
 984 1413 l 1,13,-1
 984 0 l 1,14,-1
 839 0 l 1,15,-1
 836 140 l 1,16,17
 722 -20 722 -20 513 -20 c 0,0,1
550 116 m 0,18,19
 654 116 654 116 719.5 170.5 c 128,-1,20
 785 225 785 225 816 317 c 128,-1,21
 847 409 847 409 847 520 c 0,22,23
 847 626 847 626 817.5 717.5 c 128,-1,24
 788 809 788 809 722.5 865.5 c 128,-1,25
 657 922 657 922 550 922 c 0,26,27
 449 922 449 922 383 867.5 c 128,-1,28
 317 813 317 813 285 721 c 128,-1,29
 253 629 253 629 253 520 c 0,30,31
 253 414 253 414 283.5 322 c 128,-1,32
 314 230 314 230 379.5 173 c 128,-1,33
 445 116 445 116 550 116 c 0,18,19
EndSplineSet
EndChar

StartChar: e
Encoding: 101 101 72
Width: 1060
GlyphClass: 1
Flags: W
LayerCount: 2
Fore
SplineSet
556 -12 m 0,0,1
 407 -12 407 -12 302.5 58.5 c 128,-1,2
 198 129 198 129 146.5 249 c 128,-1,3
 95 369 95 369 95 514 c 0,4,5
 95 657 95 657 146 780 c 128,-1,6
 197 903 197 903 296.5 977.5 c 128,-1,7
 396 1052 396 1052 538 1052 c 0,8,9
 771 1052 771 1052 873 899.5 c 128,-1,10
 975 747 975 747 975 508 c 1,11,-1
 970 470 l 1,12,-1
 252 470 l 1,13,14
 252 369 252 369 285 294 c 0,15,16
 319 214 319 214 387.5 167 c 128,-1,17
 456 120 456 120 553 120 c 0,18,19
 652 120 652 120 720.5 144.5 c 128,-1,20
 789 169 789 169 847 231 c 1,21,-1
 949 143 l 1,22,23
 865 60 865 60 773 24 c 128,-1,24
 681 -12 681 -12 556 -12 c 0,0,1
832 592 m 1,25,-1
 832 598 l 2,26,27
 832 744 832 744 757.5 831.5 c 128,-1,28
 683 919 683 919 538 919 c 0,29,30
 448 919 448 919 384.5 876.5 c 128,-1,31
 321 834 321 834 289 759 c 128,-1,32
 257 684 257 684 252 592 c 1,33,-1
 832 592 l 1,25,-1
EndSplineSet
EndChar

StartChar: f
Encoding: 102 102 73
Width: 696
GlyphClass: 1
Flags: W
LayerCount: 2
Fore
SplineSet
372 0 m 1,0,-1
 223 0 l 1,1,-1
 223 917 l 1,2,-1
 33 917 l 1,3,-1
 33 1037 l 1,4,-1
 224 1037 l 1,5,-1
 224 1191 l 2,6,7
 224 1272 224 1272 260.5 1325.5 c 128,-1,8
 297 1379 297 1379 360.5 1406.5 c 128,-1,9
 424 1434 424 1434 501 1434 c 0,10,11
 589 1434 589 1434 669 1396 c 1,12,-1
 632 1281 l 1,13,14
 564 1308 564 1308 510 1308 c 0,15,16
 450 1308 450 1308 411 1276.5 c 128,-1,17
 372 1245 372 1245 372 1178 c 2,18,-1
 372 1039 l 1,19,-1
 670 1039 l 1,20,-1
 670 917 l 1,21,-1
 372 917 l 1,22,-1
 372 0 l 1,0,-1
EndSplineSet
EndChar

StartChar: g
Encoding: 103 103 74
Width: 1043
GlyphClass: 1
Flags: W
LayerCount: 2
Fore
SplineSet
553 -458 m 0,0,1
 417 -458 417 -458 318.5 -410.5 c 128,-1,2
 220 -363 220 -363 166 -284 c 128,-1,3
 112 -205 112 -205 112 -110 c 0,4,5
 112 -93 112 -93 115 -71 c 1,6,-1
 259 79 l 1,7,8
 132 151 132 151 132 289 c 0,9,10
 132 394 132 394 205 458 c 1,11,12
 121 555 121 555 121 680 c 0,13,14
 121 804 121 804 173 885 c 128,-1,15
 225 966 225 966 312.5 1009 c 128,-1,16
 400 1052 400 1052 506 1052 c 0,17,18
 664 1052 664 1052 771 960 c 1,19,-1
 931 1082 l 1,20,-1
 1008 990 l 1,21,-1
 845 860 l 1,22,23
 882 784 882 784 882 694 c 0,24,25
 882 582 882 582 830.5 503 c 128,-1,26
 779 424 779 424 693.5 382 c 128,-1,27
 608 340 608 340 503 340 c 256,28,29
 398 340 398 340 309 382 c 1,30,31
 264 348 264 348 264 303 c 0,32,33
 264 231 264 231 335.5 197.5 c 128,-1,34
 407 164 407 164 538 146 c 0,35,36
 676 127 676 127 760.5 104 c 128,-1,37
 845 81 845 81 903 22 c 128,-1,38
 961 -37 961 -37 961 -145 c 0,39,40
 961 -250 961 -250 905 -319.5 c 128,-1,41
 849 -389 849 -389 755.5 -423.5 c 128,-1,42
 662 -458 662 -458 553 -458 c 0,0,1
502 464 m 0,43,44
 610 464 610 464 671 529 c 128,-1,45
 732 594 732 594 732 697 c 0,46,47
 732 761 732 761 704.5 815 c 128,-1,48
 677 869 677 869 625.5 901.5 c 128,-1,49
 574 934 574 934 502 934 c 256,50,51
 430 934 430 934 379.5 900.5 c 128,-1,52
 329 867 329 867 301.5 813 c 128,-1,53
 274 759 274 759 274 697 c 0,54,55
 274 590 274 590 336 527 c 128,-1,56
 398 464 398 464 502 464 c 0,43,44
565 -326 m 0,57,58
 635 -326 635 -326 695 -307.5 c 128,-1,59
 755 -289 755 -289 791.5 -252 c 128,-1,60
 828 -215 828 -215 828 -159 c 0,61,62
 828 -61 828 -61 709 -30 c 0,63,64
 657 -18 657 -18 534 3 c 0,65,66
 424 21 424 21 372 36 c 1,67,-1
 250 -114 l 1,68,69
 251 -169 251 -169 288.5 -217 c 128,-1,70
 326 -265 326 -265 395.5 -295.5 c 128,-1,71
 465 -326 465 -326 565 -326 c 0,57,58
EndSplineSet
Substitution2: "'ss01' Style Set 1 lookup 16 subtable" g.ss01
AlternateSubs2: "'salt' Stylistic Alternatives lookup 15 subtable" g.ss01
Substitution2: "'aalt' Access All Alternates lookup 0 subtable" g.ss01
EndChar

StartChar: h
Encoding: 104 104 75
Width: 1144
GlyphClass: 1
Flags: W
LayerCount: 2
Fore
SplineSet
1006 0 m 1,0,-1
 855 0 l 1,1,-1
 855 619 l 2,2,3
 855 746 855 746 806.5 830.5 c 128,-1,4
 758 915 758 915 640 915 c 0,5,6
 546 915 546 915 475.5 866 c 128,-1,7
 405 817 405 817 365 738.5 c 128,-1,8
 325 660 325 660 325 572 c 2,9,-1
 325 0 l 1,10,-1
 177 0 l 1,11,-1
 177 1413 l 1,12,-1
 325 1413 l 1,13,-1
 325 873 l 1,14,15
 379 957 379 957 469.5 1006.5 c 128,-1,16
 560 1056 560 1056 660 1056 c 0,17,18
 779 1056 779 1056 855.5 1000.5 c 128,-1,19
 932 945 932 945 969 850.5 c 128,-1,20
 1006 756 1006 756 1006 640 c 2,21,-1
 1006 0 l 1,0,-1
EndSplineSet
EndChar

StartChar: i
Encoding: 105 105 76
Width: 501
GlyphClass: 1
Flags: W
LayerCount: 2
Fore
SplineSet
333 0 m 1,0,-1
 168 0 l 1,1,-1
 168 1039 l 1,2,-1
 333 1039 l 1,3,-1
 333 0 l 1,0,-1
333 1221 m 1,4,-1
 168 1221 l 1,5,-1
 168 1413 l 1,6,-1
 333 1413 l 1,7,-1
 333 1221 l 1,4,-1
EndSplineSet
Substitution2: "'locl' Localized Forms in Latin lookup 23-1" i.loclTRK
Substitution2: "Single Substitution lookup 2 subtable" dotlessi
Substitution2: "'aalt' Access All Alternates lookup 0 subtable" i.loclTRK
EndChar

StartChar: j
Encoding: 106 106 77
Width: 513
GlyphClass: 1
Flags: W
LayerCount: 2
Fore
SplineSet
339 1221 m 1,0,-1
 178 1221 l 1,1,-1
 178 1413 l 1,2,-1
 339 1413 l 1,3,-1
 339 1221 l 1,0,-1
74 -438 m 0,4,5
 38 -438 38 -438 -6.5 -428.5 c 128,-1,6
 -51 -419 -51 -419 -82 -407 c 1,7,-1
 -47 -275 l 1,8,9
 17 -291 17 -291 70 -291 c 0,10,11
 130 -291 130 -291 154 -253.5 c 128,-1,12
 178 -216 178 -216 178 -155 c 2,13,-1
 178 1039 l 1,14,-1
 339 1039 l 1,15,-1
 339 -143 l 2,16,17
 339 -228 339 -228 311.5 -295 c 128,-1,18
 284 -362 284 -362 225.5 -400 c 128,-1,19
 167 -438 167 -438 74 -438 c 0,4,5
EndSplineSet
Substitution2: "Single Substitution lookup 2 subtable" uni0237
EndChar

StartChar: k
Encoding: 107 107 78
Width: 1075
GlyphClass: 1
Flags: W
LayerCount: 2
Fore
SplineSet
1050 0 m 1,0,-1
 863 0 l 1,1,-1
 546 548 l 1,2,-1
 324 302 l 1,3,-1
 324 0 l 1,4,-1
 175 0 l 1,5,-1
 175 1413 l 1,6,-1
 323 1413 l 1,7,-1
 324 495 l 1,8,-1
 788 1039 l 1,9,-1
 981 1039 l 1,10,-1
 642 657 l 1,11,-1
 1050 0 l 1,0,-1
EndSplineSet
EndChar

StartChar: l
Encoding: 108 108 79
Width: 523
GlyphClass: 1
Flags: W
LayerCount: 2
Fore
SplineSet
338 -20 m 0,0,1
 266 -20 266 -20 228.5 8 c 128,-1,2
 191 36 191 36 181.5 82.5 c 128,-1,3
 172 129 172 129 172 202 c 2,4,-1
 172 1413 l 1,5,-1
 323 1413 l 1,6,-1
 323 166 l 2,7,8
 323 151 323 151 333.5 130.5 c 128,-1,9
 344 110 344 110 375 110 c 0,10,11
 418 110 418 110 474 120 c 1,12,-1
 474 0 l 1,13,14
 408 -20 408 -20 338 -20 c 0,0,1
EndSplineSet
EndChar

StartChar: m
Encoding: 109 109 80
Width: 1736
GlyphClass: 1
Flags: W
LayerCount: 2
Fore
SplineSet
1598 0 m 1,0,-1
 1447 0 l 1,1,-1
 1447 619 l 2,2,3
 1447 749 1447 749 1397 839.5 c 128,-1,4
 1347 930 1347 930 1224 930 c 0,5,6
 1139 930 1139 930 1080.5 882.5 c 128,-1,7
 1022 835 1022 835 991.5 758.5 c 128,-1,8
 961 682 961 682 961 596 c 2,9,-1
 961 0 l 1,10,-1
 809 0 l 1,11,-1
 809 623 l 2,12,13
 809 754 809 754 760.5 842 c 128,-1,14
 712 930 712 930 591 930 c 0,15,16
 505 930 505 930 445.5 882.5 c 128,-1,17
 386 835 386 835 356 758.5 c 128,-1,18
 326 682 326 682 326 596 c 2,19,-1
 326 0 l 1,20,-1
 175 0 l 1,21,-1
 175 1039 l 1,22,-1
 326 1039 l 1,23,-1
 326 865 l 1,24,25
 358 950 358 950 432.5 1004 c 128,-1,26
 507 1058 507 1058 605 1058 c 0,27,28
 713 1058 713 1058 797 1008 c 128,-1,29
 881 958 881 958 921 852 c 1,30,31
 972 954 972 954 1055 1005 c 128,-1,32
 1138 1056 1138 1056 1243 1056 c 0,33,34
 1367 1056 1367 1056 1445.5 1000 c 128,-1,35
 1524 944 1524 944 1561 847.5 c 128,-1,36
 1598 751 1598 751 1598 631 c 2,37,-1
 1598 0 l 1,0,-1
EndSplineSet
EndChar

StartChar: n
Encoding: 110 110 81
Width: 1140
GlyphClass: 1
Flags: W
LayerCount: 2
Fore
SplineSet
1002 0 m 1,0,-1
 853 0 l 1,1,-1
 853 619 l 2,2,3
 853 914 853 914 633 914 c 0,4,5
 544 914 544 914 474.5 867.5 c 128,-1,6
 405 821 405 821 365 747.5 c 128,-1,7
 325 674 325 674 325 594 c 2,8,-1
 325 0 l 1,9,-1
 175 0 l 1,10,-1
 175 1039 l 1,11,-1
 325 1039 l 1,12,-1
 325 880 l 1,13,14
 374 960 374 960 460 1008 c 128,-1,15
 546 1056 546 1056 647 1056 c 0,16,17
 771 1056 771 1056 849.5 1000 c 128,-1,18
 928 944 928 944 965 847.5 c 128,-1,19
 1002 751 1002 751 1002 631 c 2,20,-1
 1002 0 l 1,0,-1
EndSplineSet
EndChar

StartChar: o
Encoding: 111 111 82
Width: 1143
GlyphClass: 1
Flags: W
LayerCount: 2
Fore
SplineSet
574 -20 m 0,0,1
 425 -20 425 -20 316 54.5 c 128,-1,2
 207 129 207 129 148 250.5 c 128,-1,3
 89 372 89 372 89 516 c 0,4,5
 89 659 89 659 148 781.5 c 128,-1,6
 207 904 207 904 322 980 c 0,7,8
 432 1052 432 1052 574 1052 c 0,9,10
 724 1052 724 1052 833 977 c 128,-1,11
 942 902 942 902 1001.5 780 c 128,-1,12
 1061 658 1061 658 1061 516 c 0,13,14
 1061 370 1061 370 1000 247.5 c 128,-1,15
 939 125 939 125 829.5 52.5 c 128,-1,16
 720 -20 720 -20 574 -20 c 0,0,1
574 112 m 256,17,18
 686 112 686 112 756 166.5 c 128,-1,19
 826 221 826 221 859.5 312.5 c 128,-1,20
 893 404 893 404 893 516 c 0,21,22
 893 624 893 624 861 716 c 128,-1,23
 829 808 829 808 759 863.5 c 128,-1,24
 689 919 689 919 574 919 c 0,25,26
 463 919 463 919 392.5 864.5 c 128,-1,27
 322 810 322 810 289 718 c 128,-1,28
 256 626 256 626 256 516 c 0,29,30
 256 407 256 407 288.5 314.5 c 128,-1,31
 321 222 321 222 391.5 167 c 128,-1,32
 462 112 462 112 574 112 c 256,17,18
EndSplineSet
Substitution2: "Single Substitution lookup 3 subtable" ordmasculine
Substitution2: "Single Substitution lookup 2 subtable" ordmasculine
EndChar

StartChar: p
Encoding: 112 112 83
Width: 1151
GlyphClass: 1
Flags: W
LayerCount: 2
Fore
SplineSet
327 -438 m 1,0,-1
 177 -438 l 1,1,-1
 177 1039 l 1,2,-1
 327 1039 l 1,3,-1
 327 902 l 1,4,5
 435 1060 435 1060 647 1060 c 0,6,7
 782 1060 782 1060 874 987 c 128,-1,8
 966 914 966 914 1014 791 c 128,-1,9
 1062 668 1062 668 1062 520 c 0,10,11
 1062 377 1062 377 1015.5 253.5 c 128,-1,12
 969 130 969 130 871 53 c 0,13,14
 777 -20 777 -20 648 -20 c 0,15,16
 439 -20 439 -20 327 137 c 1,17,-1
 327 -438 l 1,0,-1
608 111 m 256,18,19
 712 111 712 111 779.5 166.5 c 128,-1,20
 847 222 847 222 879.5 315.5 c 128,-1,21
 912 409 912 409 912 520 c 0,22,23
 912 626 912 626 881 719 c 128,-1,24
 850 812 850 812 783 870 c 128,-1,25
 716 928 716 928 608 928 c 0,26,27
 507 928 507 928 441.5 871 c 128,-1,28
 376 814 376 814 344.5 721 c 128,-1,29
 313 628 313 628 313 520 c 0,30,31
 313 415 313 415 343.5 321.5 c 128,-1,32
 374 228 374 228 439 169.5 c 128,-1,33
 504 111 504 111 608 111 c 256,18,19
EndSplineSet
EndChar

StartChar: q
Encoding: 113 113 84
Width: 1152
GlyphClass: 1
Flags: W
LayerCount: 2
Fore
SplineSet
986 -438 m 1,0,-1
 835 -438 l 1,1,-1
 835 137 l 1,2,3
 722 -20 722 -20 513 -20 c 0,4,5
 380 -20 380 -20 288 54 c 128,-1,6
 196 128 196 128 148 251 c 128,-1,7
 100 374 100 374 100 520 c 0,8,9
 100 663 100 663 147 787 c 128,-1,10
 194 911 194 911 292 988 c 0,11,12
 386 1060 386 1060 514 1060 c 0,13,14
 723 1060 723 1060 835 902 c 1,15,-1
 835 1039 l 1,16,-1
 986 1039 l 1,17,-1
 986 -438 l 1,0,-1
550 111 m 0,18,19
 653 111 653 111 718.5 166 c 128,-1,20
 784 221 784 221 815.5 314.5 c 128,-1,21
 847 408 847 408 847 520 c 0,22,23
 847 626 847 626 817 718.5 c 128,-1,24
 787 811 787 811 721.5 869 c 128,-1,25
 656 927 656 927 550 927 c 0,26,27
 449 927 449 927 383 871.5 c 128,-1,28
 317 816 317 816 285 723 c 128,-1,29
 253 630 253 630 253 520 c 0,30,31
 253 412 253 412 284 319 c 128,-1,32
 315 226 315 226 380.5 168.5 c 128,-1,33
 446 111 446 111 550 111 c 0,18,19
EndSplineSet
EndChar

StartChar: r
Encoding: 114 114 85
Width: 813
GlyphClass: 1
Flags: W
LayerCount: 2
Fore
SplineSet
326 0 m 1,0,-1
 175 0 l 1,1,-1
 175 1039 l 1,2,-1
 328 1039 l 1,3,-1
 328 841 l 1,4,5
 356 942 356 942 444.5 998 c 128,-1,6
 533 1054 533 1054 623 1054 c 0,7,8
 665 1054 665 1054 714.5 1042.5 c 128,-1,9
 764 1031 764 1031 798 1008 c 1,10,-1
 744 879 l 1,11,12
 690 926 690 926 612 926 c 0,13,14
 518 926 518 926 454 861 c 128,-1,15
 390 796 390 796 358 686.5 c 128,-1,16
 326 577 326 577 326 444 c 2,17,-1
 326 0 l 1,0,-1
EndSplineSet
EndChar

StartChar: s
Encoding: 115 115 86
Width: 884
GlyphClass: 1
Flags: W
LayerCount: 2
Fore
SplineSet
457 -20 m 0,0,1
 363 -20 363 -20 286 14 c 0,2,3
 129 84 129 84 80 232 c 1,4,-1
 205 303 l 1,5,6
 232 223 232 223 301.5 167.5 c 128,-1,7
 371 112 371 112 462 112 c 0,8,9
 552 112 552 112 607.5 144 c 128,-1,10
 663 176 663 176 663 245 c 256,11,12
 663 314 663 314 633 349.5 c 128,-1,13
 603 385 603 385 556 408.5 c 128,-1,14
 509 432 509 432 416 462 c 0,15,16
 312 496 312 496 260 526 c 0,17,18
 131 603 131 603 131 778 c 0,19,20
 131 867 131 867 176 928.5 c 128,-1,21
 221 990 221 990 294.5 1022 c 128,-1,22
 368 1054 368 1054 471 1054 c 256,23,24
 574 1054 574 1054 659 997.5 c 128,-1,25
 744 941 744 941 791 855 c 1,26,-1
 673 784 l 1,27,28
 606 919 606 919 443 919 c 256,29,30
 280 919 280 919 280 787 c 0,31,32
 280 690 280 690 365 649 c 0,33,34
 411 627 411 627 504 595 c 256,35,36
 597 563 597 563 662 528 c 0,37,38
 812 445 812 445 812 266 c 0,39,40
 812 166 812 166 761.5 103 c 128,-1,41
 711 40 711 40 630.5 10 c 128,-1,42
 550 -20 550 -20 457 -20 c 0,0,1
EndSplineSet
Substitution2: "'hist' Historical Forms lookup 20 subtable" longs
Substitution2: "'aalt' Access All Alternates lookup 0 subtable" longs
EndChar

StartChar: t
Encoding: 116 116 87
Width: 689
GlyphClass: 1
Flags: W
LayerCount: 2
Fore
SplineSet
460 -20 m 0,0,1
 209 -20 209 -20 209 278 c 2,2,-1
 209 917 l 1,3,-1
 46 917 l 1,4,-1
 46 1039 l 1,5,-1
 210 1039 l 1,6,-1
 210 1239 l 1,7,-1
 359 1364 l 1,8,-1
 359 1039 l 1,9,-1
 624 1039 l 1,10,-1
 624 917 l 1,11,-1
 359 917 l 1,12,-1
 359 272 l 2,13,14
 359 185 359 185 397 144 c 128,-1,15
 435 103 435 103 493 103 c 0,16,17
 543 103 543 103 597 129 c 1,18,-1
 597 0 l 1,19,20
 548 -20 548 -20 460 -20 c 0,0,1
EndSplineSet
EndChar

StartChar: u
Encoding: 117 117 88
Width: 1137
GlyphClass: 1
Flags: W
LayerCount: 2
Fore
SplineSet
503 -23 m 0,0,1
 379 -23 379 -23 301 36 c 128,-1,2
 223 95 223 95 186 196.5 c 128,-1,3
 149 298 149 298 149 424 c 2,4,-1
 149 1039 l 1,5,-1
 298 1039 l 1,6,-1
 298 414 l 2,7,8
 298 284 298 284 346.5 195 c 128,-1,9
 395 106 395 106 516 106 c 0,10,11
 604 106 604 106 674.5 154 c 128,-1,12
 745 202 745 202 785.5 281 c 128,-1,13
 826 360 826 360 826 452 c 2,14,-1
 826 1039 l 1,15,-1
 974 1039 l 1,16,-1
 974 0 l 1,17,-1
 826 0 l 1,18,-1
 826 172 l 1,19,20
 805 128 805 128 760.5 83.5 c 128,-1,21
 716 39 716 39 650 8 c 128,-1,22
 584 -23 584 -23 503 -23 c 0,0,1
EndSplineSet
EndChar

StartChar: v
Encoding: 118 118 89
Width: 984
GlyphClass: 1
Flags: W
LayerCount: 2
Fore
SplineSet
563 0 m 1,0,-1
 425 0 l 1,1,-1
 37 1039 l 1,2,-1
 207 1039 l 1,3,-1
 494 202 l 1,4,-1
 783 1039 l 1,5,-1
 950 1039 l 1,6,-1
 563 0 l 1,0,-1
EndSplineSet
EndChar

StartChar: w
Encoding: 119 119 90
Width: 1471
GlyphClass: 1
Flags: W
LayerCount: 2
Fore
SplineSet
493 -1 m 1,0,-1
 342 -1 l 1,1,-1
 52 1039 l 1,2,-1
 216 1039 l 1,3,-1
 428 205 l 1,4,-1
 668 1039 l 1,5,-1
 810 1039 l 1,6,-1
 1048 207 l 1,7,-1
 1259 1039 l 1,8,-1
 1425 1039 l 1,9,-1
 1134 0 l 1,10,-1
 983 0 l 1,11,-1
 740 843 l 1,12,-1
 493 -1 l 1,0,-1
EndSplineSet
EndChar

StartChar: x
Encoding: 120 120 91
Width: 953
GlyphClass: 1
Flags: W
LayerCount: 2
Fore
SplineSet
909 0 m 1,0,-1
 724 0 l 1,1,-1
 480 393 l 1,2,-1
 238 0 l 1,3,-1
 48 0 l 1,4,-1
 398 524 l 1,5,-1
 48 1039 l 1,6,-1
 238 1039 l 1,7,-1
 480 654 l 1,8,-1
 724 1039 l 1,9,-1
 909 1039 l 1,10,-1
 563 524 l 1,11,-1
 909 0 l 1,0,-1
EndSplineSet
EndChar

StartChar: y
Encoding: 121 121 92
Width: 1011
GlyphClass: 1
Flags: W
LayerCount: 2
Fore
SplineSet
421 -430 m 1,0,-1
 258 -430 l 1,1,-1
 436 17 l 1,2,-1
 36 1039 l 1,3,-1
 208 1039 l 1,4,-1
 513 199 l 1,5,-1
 808 1039 l 1,6,-1
 978 1039 l 1,7,-1
 421 -430 l 1,0,-1
EndSplineSet
EndChar

StartChar: z
Encoding: 122 122 93
Width: 961
GlyphClass: 1
Flags: W
LayerCount: 2
Fore
SplineSet
886 0 m 1,0,-1
 69 0 l 1,1,-1
 69 113 l 1,2,-1
 704 917 l 1,3,-1
 99 917 l 1,4,-1
 99 1039 l 1,5,-1
 886 1039 l 1,6,-1
 886 916 l 1,7,-1
 262 128 l 1,8,-1
 886 128 l 1,9,-1
 886 0 l 1,0,-1
EndSplineSet
EndChar

StartChar: braceleft
Encoding: 123 123 94
Width: 599
GlyphClass: 1
Flags: W
LayerCount: 2
Fore
SplineSet
476 -120 m 1,0,-1
 404 -120 l 2,1,2
 353 -120 353 -120 315.5 -98.5 c 128,-1,3
 278 -77 278 -77 249 -38 c 0,4,5
 215 8 215 8 215 106 c 2,6,-1
 215 473 l 2,7,8
 215 548 215 548 84 594 c 1,9,-1
 84 709 l 1,10,11
 215 743 215 743 215 862 c 2,12,-1
 215 1290 l 2,13,14
 215 1400 215 1400 266 1452 c 128,-1,15
 317 1504 317 1504 425 1504 c 0,16,17
 502 1504 502 1504 526 1503 c 1,18,-1
 526 1413 l 1,19,20
 496 1419 496 1419 461 1419 c 0,21,22
 352 1419 352 1419 352 1356 c 2,23,-1
 352 850 l 2,24,25
 352 781 352 781 310.5 732.5 c 128,-1,26
 269 684 269 684 173 645 c 1,27,28
 266 613 266 613 309 573 c 128,-1,29
 352 533 352 533 352 477 c 2,30,-1
 352 113 l 2,31,32
 352 -36 352 -36 485 -36 c 0,33,34
 502 -36 502 -36 526 -29 c 1,35,-1
 526 -119 l 1,36,-1
 476 -120 l 1,0,-1
EndSplineSet
EndChar

StartChar: bar
Encoding: 124 124 95
Width: 621
GlyphClass: 1
Flags: W
LayerCount: 2
Fore
SplineSet
365 -512 m 1,0,-1
 256 -512 l 1,1,-1
 256 1534 l 1,2,-1
 365 1534 l 1,3,-1
 365 -512 l 1,0,-1
EndSplineSet
EndChar

StartChar: braceright
Encoding: 125 125 96
Width: 599
GlyphClass: 1
Flags: W
LayerCount: 2
Fore
SplineSet
196 -120 m 2,0,-1
 125 -120 l 1,1,-1
 73 -119 l 1,2,-1
 73 -29 l 1,3,4
 99 -36 99 -36 114 -36 c 0,5,6
 247 -36 247 -36 247 113 c 2,7,-1
 247 477 l 2,8,9
 247 535 247 535 294 575.5 c 128,-1,10
 341 616 341 616 426 645 c 1,11,12
 332 682 332 682 289.5 728.5 c 128,-1,13
 247 775 247 775 247 850 c 2,14,-1
 247 1356 l 2,15,16
 247 1419 247 1419 138 1419 c 0,17,18
 105 1419 105 1419 73 1413 c 1,19,-1
 73 1503 l 1,20,21
 101 1504 101 1504 174 1504 c 0,22,23
 383 1504 383 1504 383 1298 c 2,24,-1
 383 862 l 2,25,26
 383 744 383 744 514 709 c 1,27,-1
 514 594 l 1,28,29
 383 547 383 547 383 473 c 2,30,-1
 383 106 l 2,31,32
 383 -1 383 -1 352 -41 c 128,-1,33
 321 -81 321 -81 284 -100.5 c 128,-1,34
 247 -120 247 -120 196 -120 c 2,0,-1
EndSplineSet
EndChar

StartChar: asciitilde
Encoding: 126 126 97
Width: 1160
GlyphClass: 1
Flags: W
LayerCount: 2
Fore
SplineSet
739 379 m 0,0,1
 681 379 681 379 637 405 c 128,-1,2
 593 431 593 431 542 477 c 0,3,4
 498 516 498 516 469 534 c 128,-1,5
 440 552 440 552 405 552 c 0,6,7
 309 552 309 552 309 414 c 2,8,-1
 309 406 l 1,9,-1
 210 406 l 1,10,11
 210 516 210 516 259.5 583.5 c 128,-1,12
 309 651 309 651 403 651 c 0,13,14
 454 651 454 651 493 637 c 128,-1,15
 532 623 532 623 558.5 603 c 128,-1,16
 585 583 585 583 622 550 c 0,17,18
 658 517 658 517 684.5 500 c 128,-1,19
 711 483 711 483 745 483 c 0,20,21
 801 483 801 483 823 524.5 c 128,-1,22
 845 566 845 566 845 645 c 1,23,-1
 952 645 l 1,24,25
 952 518 952 518 896.5 448.5 c 128,-1,26
 841 379 841 379 739 379 c 0,0,1
EndSplineSet
EndChar

StartChar: exclamdown
Encoding: 161 161 99
Width: 628
GlyphClass: 1
Flags: W
LayerCount: 2
Fore
SplineSet
411 806 m 1,0,-1
 215 806 l 1,1,-1
 215 999 l 1,2,-1
 411 999 l 1,3,-1
 411 806 l 1,0,-1
399 -436 m 1,4,-1
 228 -436 l 1,5,-1
 256 619 l 1,6,-1
 370 619 l 1,7,-1
 399 -436 l 1,4,-1
EndSplineSet
EndChar

StartChar: cent
Encoding: 162 162 100
Width: 1134
GlyphClass: 1
Flags: W
LayerCount: 2
Fore
SplineSet
654 -205 m 1,0,-1
 544 -205 l 1,1,-1
 544 -16 l 1,2,3
 419 0 419 0 334.5 72.5 c 128,-1,4
 250 145 250 145 207.5 257 c 128,-1,5
 165 369 165 369 165 498 c 0,6,7
 165 624 165 624 207 736 c 128,-1,8
 249 848 249 848 333 922 c 128,-1,9
 417 996 417 996 544 1013 c 1,10,-1
 544 1200 l 1,11,-1
 654 1200 l 1,12,-1
 654 1013 l 1,13,14
 892 979 892 979 992 754 c 1,15,-1
 844 693 l 1,16,17
 819 781 819 781 752.5 828.5 c 128,-1,18
 686 876 686 876 602 876 c 0,19,20
 504 876 504 876 442 822 c 0,21,22
 377 763 377 763 349.5 677 c 128,-1,23
 322 591 322 591 322 498 c 0,24,25
 322 340 322 340 385 237 c 0,26,27
 458 120 458 120 602 120 c 0,28,29
 687 120 687 120 753.5 168 c 128,-1,30
 820 216 820 216 844 302 c 1,31,-1
 980 245 l 1,32,33
 892 12 892 12 654 -17 c 1,34,-1
 654 -205 l 1,0,-1
EndSplineSet
EndChar

StartChar: sterling
Encoding: 163 163 101
Width: 1241
GlyphClass: 1
Flags: W
LayerCount: 2
Fore
SplineSet
1179 0 m 1,0,-1
 163 0 l 1,1,-1
 163 118 l 1,2,3
 168 118 168 118 231 175 c 0,4,5
 408 336 408 336 408 462 c 0,6,7
 408 523 408 523 382 637 c 1,8,-1
 166 637 l 1,9,-1
 166 770 l 1,10,-1
 349 770 l 1,11,12
 348 770 348 770 340 797 c 0,13,14
 301 917 301 917 301 1015 c 0,15,16
 301 1129 301 1129 347.5 1224.5 c 128,-1,17
 394 1320 394 1320 483.5 1376.5 c 128,-1,18
 573 1433 573 1433 697 1433 c 0,19,20
 828 1433 828 1433 925 1353 c 128,-1,21
 1022 1273 1022 1273 1068 1148 c 1,22,-1
 943 1101 l 1,23,24
 910 1192 910 1192 845.5 1246 c 128,-1,25
 781 1300 781 1300 697 1300 c 0,26,27
 616 1300 616 1300 556.5 1264 c 128,-1,28
 497 1228 497 1228 465.5 1164 c 128,-1,29
 434 1100 434 1100 434 1016 c 0,30,31
 434 921 434 921 470 810 c 0,32,33
 482 770 482 770 483 770 c 2,34,-1
 956 770 l 1,35,-1
 956 637 l 1,36,-1
 517 637 l 1,37,38
 538 537 538 537 538 464 c 0,39,40
 538 376 538 376 500 302 c 128,-1,41
 462 228 462 228 415 178 c 0,42,43
 378 139 378 139 370 133 c 1,44,-1
 1179 133 l 1,45,-1
 1179 0 l 1,0,-1
EndSplineSet
EndChar

StartChar: currency
Encoding: 164 164 102
Width: 1375
GlyphClass: 1
Flags: W
LayerCount: 2
Fore
SplineSet
1058 167 m 1,0,-1
 952 272 l 1,1,2
 830 182 830 182 686 182 c 0,3,4
 616 182 616 182 547.5 204.5 c 128,-1,5
 479 227 479 227 419 272 c 1,6,-1
 316 167 l 1,7,-1
 223 264 l 1,8,-1
 328 367 l 1,9,10
 282 427 282 427 260.5 496 c 128,-1,11
 239 565 239 565 239 633 c 0,12,13
 239 702 239 702 261 769.5 c 128,-1,14
 283 837 283 837 328 895 c 1,15,-1
 225 995 l 1,16,-1
 318 1094 l 1,17,-1
 421 988 l 1,18,19
 541 1079 541 1079 690 1079 c 0,20,21
 836 1079 836 1079 952 990 c 1,22,-1
 1056 1092 l 1,23,-1
 1149 999 l 1,24,-1
 1047 897 l 1,25,26
 1136 781 1136 781 1136 631 c 0,27,28
 1136 561 1136 561 1114 492.5 c 128,-1,29
 1092 424 1092 424 1047 365 c 1,30,-1
 1149 264 l 1,31,-1
 1058 167 l 1,0,-1
685 313 m 0,32,33
 777 313 777 313 858.5 365.5 c 128,-1,34
 940 418 940 418 980 511 c 0,35,36
 1003 569 1003 569 1003 631 c 0,37,38
 1003 723 1003 723 950.5 803.5 c 128,-1,39
 898 884 898 884 807 923 c 0,40,41
 749 946 749 946 687 946 c 0,42,43
 595 946 595 946 514 895 c 128,-1,44
 433 844 433 844 393 749 c 0,45,46
 369 690 369 690 369 628 c 0,47,48
 369 538 369 538 412.5 467 c 128,-1,49
 456 396 456 396 528 354.5 c 128,-1,50
 600 313 600 313 685 313 c 0,32,33
EndSplineSet
EndChar

StartChar: yen
Encoding: 165 165 103
Width: 1307
GlyphClass: 1
Flags: W
LayerCount: 2
Fore
SplineSet
725 0 m 1,0,-1
 582 0 l 1,1,-1
 582 296 l 1,2,-1
 283 296 l 1,3,-1
 283 413 l 1,4,-1
 582 413 l 1,5,-1
 582 532 l 1,6,-1
 283 532 l 1,7,-1
 283 648 l 1,8,-1
 527 648 l 1,9,-1
 52 1413 l 1,10,-1
 220 1413 l 1,11,-1
 655 712 l 1,12,-1
 1088 1413 l 1,13,-1
 1255 1413 l 1,14,-1
 780 649 l 1,15,-1
 1026 649 l 1,16,-1
 1026 532 l 1,17,-1
 725 532 l 1,18,-1
 725 413 l 1,19,-1
 1026 413 l 1,20,-1
 1026 296 l 1,21,-1
 725 296 l 1,22,-1
 725 0 l 1,0,-1
EndSplineSet
EndChar

StartChar: brokenbar
Encoding: 166 166 104
Width: 618
GlyphClass: 1
Flags: W
LayerCount: 2
Fore
SplineSet
363 731 m 1,0,-1
 256 731 l 1,1,-1
 256 1475 l 1,2,-1
 363 1475 l 1,3,-1
 363 731 l 1,0,-1
363 -307 m 1,4,-1
 256 -307 l 1,5,-1
 256 420 l 1,6,-1
 363 420 l 1,7,-1
 363 -307 l 1,4,-1
EndSplineSet
EndChar

StartChar: section
Encoding: 167 167 105
Width: 1125
GlyphClass: 1
Flags: W
LayerCount: 2
Fore
SplineSet
568 -18 m 0,0,1
 423 -18 423 -18 312.5 50.5 c 128,-1,2
 202 119 202 119 159 265 c 1,3,-1
 297 312 l 1,4,5
 323 208 323 208 392 160.5 c 128,-1,6
 461 113 461 113 571 113 c 0,7,8
 671 113 671 113 738.5 150 c 128,-1,9
 806 187 806 187 806 278 c 0,10,11
 806 330 806 330 774.5 359.5 c 128,-1,12
 743 389 743 389 693 406 c 128,-1,13
 643 423 643 423 556 441 c 0,14,15
 444 465 444 465 375 490 c 128,-1,16
 306 515 306 515 257 571.5 c 128,-1,17
 208 628 208 628 208 727 c 0,18,19
 208 792 208 792 235.5 847.5 c 128,-1,20
 263 903 263 903 310 944 c 1,21,22
 210 1018 210 1018 210 1139 c 0,23,24
 210 1233 210 1233 259.5 1299 c 128,-1,25
 309 1365 309 1365 388.5 1399.5 c 128,-1,26
 468 1434 468 1434 558 1434 c 0,27,28
 682 1434 682 1434 779 1373 c 128,-1,29
 876 1312 876 1312 927 1186 c 1,30,-1
 790 1140 l 1,31,32
 742 1304 742 1304 555 1304 c 0,33,34
 499 1304 499 1304 450.5 1284.5 c 128,-1,35
 402 1265 402 1265 372 1227.5 c 128,-1,36
 342 1190 342 1190 342 1135 c 0,37,38
 342 1087 342 1087 373.5 1058.5 c 128,-1,39
 405 1030 405 1030 452.5 1015.5 c 128,-1,40
 500 1001 500 1001 583 984 c 0,41,42
 697 960 697 960 768 934.5 c 128,-1,43
 839 909 839 909 889.5 850 c 128,-1,44
 940 791 940 791 940 688 c 0,45,46
 940 629 940 629 917 573 c 128,-1,47
 894 517 894 517 844 475 c 1,48,49
 940 404 940 404 940 276 c 0,50,51
 940 175 940 175 888 110 c 128,-1,52
 836 45 836 45 751 13.5 c 128,-1,53
 666 -18 666 -18 568 -18 c 0,0,1
697 532 m 1,54,55
 806 578 806 578 806 693 c 0,56,57
 806 754 806 754 765.5 790.5 c 128,-1,58
 725 827 725 827 667.5 846 c 128,-1,59
 610 865 610 865 523 882 c 2,60,-1
 458 896 l 1,61,62
 401 872 401 872 371.5 827.5 c 128,-1,63
 342 783 342 783 342 730 c 0,64,65
 342 674 342 674 383.5 639 c 128,-1,66
 425 604 425 604 482.5 584.5 c 128,-1,67
 540 565 540 565 626 548 c 0,68,69
 672 539 672 539 697 532 c 1,54,55
EndSplineSet
EndChar

StartChar: copyright
Encoding: 169 169 107
Width: 1750
GlyphClass: 1
Flags: W
LayerCount: 2
Fore
SplineSet
875 -51 m 0,0,1
 732 -51 732 -51 608 -2.5 c 128,-1,2
 484 46 484 46 386.5 130.5 c 128,-1,3
 289 215 289 215 224 327 c 0,4,5
 123 501 123 501 123 707 c 0,6,7
 123 850 123 850 171 975 c 128,-1,8
 219 1100 219 1100 303 1198 c 128,-1,9
 387 1296 387 1296 498 1362 c 0,10,11
 671 1464 671 1464 875 1464 c 0,12,13
 1018 1464 1018 1464 1142 1415.5 c 128,-1,14
 1266 1367 1266 1367 1363.5 1282.5 c 128,-1,15
 1461 1198 1461 1198 1526 1086 c 0,16,17
 1627 912 1627 912 1627 707 c 0,18,19
 1627 563 1627 563 1579 438 c 128,-1,20
 1531 313 1531 313 1447 215 c 128,-1,21
 1363 117 1363 117 1252 51 c 0,22,23
 1079 -51 1079 -51 875 -51 c 0,0,1
875 69 m 0,24,25
 993 69 993 69 1097 110.5 c 128,-1,26
 1201 152 1201 152 1283.5 224 c 128,-1,27
 1366 296 1366 296 1422 391 c 0,28,29
 1508 537 1508 537 1508 707 c 0,30,31
 1508 825 1508 825 1467 929.5 c 128,-1,32
 1426 1034 1426 1034 1354.5 1117.5 c 128,-1,33
 1283 1201 1283 1201 1190 1257 c 0,34,35
 1044 1344 1044 1344 875 1344 c 0,36,37
 758 1344 758 1344 654 1302.5 c 128,-1,38
 550 1261 550 1261 467 1189 c 128,-1,39
 384 1117 384 1117 328 1023 c 0,40,41
 241 876 241 876 241 707 c 0,42,43
 241 589 241 589 282.5 484.5 c 128,-1,44
 324 380 324 380 395.5 296.5 c 128,-1,45
 467 213 467 213 561 157 c 0,46,47
 707 69 707 69 875 69 c 0,24,25
892 300 m 0,48,49
 776 300 776 300 697 354.5 c 128,-1,50
 618 409 618 409 578.5 500.5 c 128,-1,51
 539 592 539 592 539 705 c 0,52,53
 539 814 539 814 577.5 906 c 128,-1,54
 616 998 616 998 694 1053.5 c 128,-1,55
 772 1109 772 1109 892 1109 c 0,56,57
 990 1109 990 1109 1071.5 1061.5 c 128,-1,58
 1153 1014 1153 1014 1198 919 c 1,59,-1
 1090 873 l 1,60,61
 1059 932 1059 932 1007.5 961 c 128,-1,62
 956 990 956 990 892 990 c 0,63,64
 811 990 811 990 758.5 951 c 128,-1,65
 706 912 706 912 680.5 847 c 128,-1,66
 655 782 655 782 655 705 c 0,67,68
 655 630 655 630 679.5 565 c 128,-1,69
 704 500 704 500 756 460.5 c 128,-1,70
 808 421 808 421 890 421 c 0,71,72
 953 421 953 421 1005.5 450.5 c 128,-1,73
 1058 480 1058 480 1088 539 c 1,74,-1
 1198 492 l 1,75,76
 1153 395 1153 395 1072.5 347.5 c 128,-1,77
 992 300 992 300 892 300 c 0,48,49
EndSplineSet
EndChar

StartChar: ordfeminine
Encoding: 170 170 108
Width: 850
GlyphClass: 2
Flags: W
LayerCount: 2
Fore
SplineSet
341 709 m 0,0,1
 280 709 280 709 227.5 734 c 128,-1,2
 175 759 175 759 143 806.5 c 128,-1,3
 111 854 111 854 111 920 c 0,4,5
 111 995 111 995 144.5 1041 c 128,-1,6
 178 1087 178 1087 237 1108 c 128,-1,7
 296 1129 296 1129 372 1129 c 2,8,-1
 584 1129 l 1,9,10
 582 1336 582 1336 410 1336 c 0,11,12
 350 1336 350 1336 303 1306.5 c 128,-1,13
 256 1277 256 1277 229 1235 c 1,14,-1
 138 1293 l 1,15,16
 193 1368 193 1368 260 1401 c 128,-1,17
 327 1434 327 1434 415 1434 c 0,18,19
 507 1434 507 1434 568 1398 c 128,-1,20
 629 1362 629 1362 660 1298.5 c 128,-1,21
 691 1235 691 1235 691 1152 c 2,22,-1
 691 723 l 1,23,-1
 594 723 l 1,24,-1
 589 840 l 1,25,26
 541 770 541 770 480.5 739.5 c 128,-1,27
 420 709 420 709 341 709 c 0,0,1
367 810 m 0,28,29
 431 810 431 810 479.5 843.5 c 128,-1,30
 528 877 528 877 555.5 927.5 c 128,-1,31
 583 978 583 978 584 1032 c 1,32,-1
 382 1032 l 2,33,34
 321 1032 321 1032 278 1003 c 128,-1,35
 235 974 235 974 235 920 c 0,36,37
 235 886 235 886 255.5 861.5 c 128,-1,38
 276 837 276 837 306.5 823.5 c 128,-1,39
 337 810 337 810 367 810 c 0,28,29
EndSplineSet
EndChar

StartChar: guillemotleft
Encoding: 171 171 109
Width: 963
GlyphClass: 1
Flags: W
LayerCount: 2
Fore
SplineSet
433 185 m 1,0,-1
 64 512 l 1,1,-1
 433 837 l 1,2,-1
 433 675 l 1,3,-1
 240 512 l 1,4,-1
 433 347 l 1,5,-1
 433 185 l 1,0,-1
797 185 m 1,6,-1
 426 512 l 1,7,-1
 797 837 l 1,8,-1
 797 675 l 1,9,-1
 602 512 l 1,10,-1
 797 347 l 1,11,-1
 797 185 l 1,6,-1
EndSplineSet
EndChar

StartChar: logicalnot
Encoding: 172 172 110
Width: 1284
GlyphClass: 1
Flags: W
LayerCount: 2
Fore
SplineSet
1031 291 m 1,0,-1
 891 291 l 1,1,-1
 891 663 l 1,2,-1
 153 663 l 1,3,-1
 153 797 l 1,4,-1
 1031 797 l 1,5,-1
 1031 291 l 1,0,-1
EndSplineSet
EndChar

StartChar: uni00AD
Encoding: 173 173 111
Width: 979
GlyphClass: 1
Flags: W
LayerCount: 2
Fore
SplineSet
818 578 m 1,0,-1
 161 578 l 1,1,-1
 161 692 l 1,2,-1
 818 692 l 1,3,-1
 818 578 l 1,0,-1
EndSplineSet
EndChar

StartChar: registered
Encoding: 174 174 112
Width: 1750
GlyphClass: 1
Flags: W
LayerCount: 2
Fore
SplineSet
875 -49 m 0,0,1
 732 -49 732 -49 608 -0.5 c 128,-1,2
 484 48 484 48 386.5 132.5 c 128,-1,3
 289 217 289 217 224 329 c 0,4,5
 123 503 123 503 123 709 c 0,6,7
 123 852 123 852 171 977 c 128,-1,8
 219 1102 219 1102 303 1200 c 128,-1,9
 387 1298 387 1298 498 1364 c 0,10,11
 671 1466 671 1466 875 1466 c 0,12,13
 1018 1466 1018 1466 1142 1417.5 c 128,-1,14
 1266 1369 1266 1369 1363.5 1284.5 c 128,-1,15
 1461 1200 1461 1200 1526 1088 c 0,16,17
 1627 914 1627 914 1627 709 c 0,18,19
 1627 565 1627 565 1579 440 c 128,-1,20
 1531 315 1531 315 1447 217 c 128,-1,21
 1363 119 1363 119 1252 53 c 0,22,23
 1079 -49 1079 -49 875 -49 c 0,0,1
875 63 m 0,24,25
 995 63 995 63 1100.5 104.5 c 128,-1,26
 1206 146 1206 146 1289.5 218.5 c 128,-1,27
 1373 291 1373 291 1429 387 c 0,28,29
 1516 536 1516 536 1516 709 c 0,30,31
 1516 830 1516 830 1474.5 936 c 128,-1,32
 1433 1042 1433 1042 1361 1126 c 128,-1,33
 1289 1210 1289 1210 1195 1267 c 0,34,35
 1047 1355 1047 1355 875 1355 c 0,36,37
 755 1355 755 1355 649.5 1313.5 c 128,-1,38
 544 1272 544 1272 460.5 1199 c 128,-1,39
 377 1126 377 1126 321 1031 c 0,40,41
 233 882 233 882 233 709 c 0,42,43
 233 588 233 588 274.5 481.5 c 128,-1,44
 316 375 316 375 388.5 291 c 128,-1,45
 461 207 461 207 556 151 c 0,46,47
 703 63 703 63 875 63 c 0,24,25
1226 304 m 1,48,-1
 1084 304 l 1,49,-1
 907 637 l 1,50,-1
 749 637 l 1,51,-1
 749 304 l 1,52,-1
 627 304 l 1,53,-1
 627 1099 l 1,54,-1
 929 1099 l 2,55,56
 1065 1099 1065 1099 1127.5 1037 c 128,-1,57
 1190 975 1190 975 1190 867 c 0,58,59
 1190 768 1190 768 1143 715.5 c 128,-1,60
 1096 663 1096 663 1024 649 c 1,61,-1
 1226 304 l 1,48,-1
929 747 m 2,62,63
 1078 747 1078 747 1078 865 c 0,64,65
 1078 928 1078 928 1043 958 c 128,-1,66
 1008 988 1008 988 929 988 c 2,67,-1
 739 988 l 1,68,-1
 739 747 l 1,69,-1
 929 747 l 2,62,63
EndSplineSet
EndChar

StartChar: degree
Encoding: 176 176 114
Width: 950
GlyphClass: 1
Flags: W
LayerCount: 2
Fore
SplineSet
476 848 m 0,0,1
 391 848 391 848 325 889 c 128,-1,2
 259 930 259 930 221 997 c 128,-1,3
 183 1064 183 1064 183 1141 c 0,4,5
 183 1227 183 1227 224.5 1293 c 128,-1,6
 266 1359 266 1359 333 1396.5 c 128,-1,7
 400 1434 400 1434 476 1434 c 0,8,9
 559 1434 559 1434 625 1393 c 128,-1,10
 691 1352 691 1352 729 1285.5 c 128,-1,11
 767 1219 767 1219 767 1141 c 0,12,13
 767 1057 767 1057 726.5 990.5 c 128,-1,14
 686 924 686 924 619.5 886 c 128,-1,15
 553 848 553 848 476 848 c 0,0,1
476 941 m 0,16,17
 559 941 559 941 616.5 1000.5 c 128,-1,18
 674 1060 674 1060 674 1141 c 0,19,20
 674 1226 674 1226 614 1283 c 128,-1,21
 554 1340 554 1340 476 1340 c 0,22,23
 390 1340 390 1340 333 1280 c 128,-1,24
 276 1220 276 1220 276 1141 c 0,25,26
 276 1054 276 1054 337 997.5 c 128,-1,27
 398 941 398 941 476 941 c 0,16,17
EndSplineSet
EndChar

StartChar: plusminus
Encoding: 177 177 115
Width: 1320
GlyphClass: 1
Flags: W
LayerCount: 2
Fore
SplineSet
717 106 m 1,0,-1
 603 106 l 1,1,-1
 603 569 l 1,2,-1
 146 569 l 1,3,-1
 146 682 l 1,4,-1
 603 682 l 1,5,-1
 603 1143 l 1,6,-1
 717 1143 l 1,7,-1
 717 682 l 1,8,-1
 1174 682 l 1,9,-1
 1174 569 l 1,10,-1
 717 569 l 1,11,-1
 717 106 l 1,0,-1
1173 -114 m 1,12,-1
 147 -114 l 1,13,-1
 147 0 l 1,14,-1
 1173 0 l 1,15,-1
 1173 -114 l 1,12,-1
EndSplineSet
EndChar

StartChar: twosuperior
Encoding: 178 178 116
Width: 818
GlyphClass: 2
Flags: W
LayerCount: 2
Fore
SplineSet
741 486 m 1,0,-1
 64 486 l 1,1,-1
 64 592 l 1,2,3
 232 694 232 694 350 802 c 128,-1,4
 468 910 468 910 526 1006 c 0,5,6
 571 1081 571 1081 571 1162 c 0,7,8
 571 1249 571 1249 525 1292 c 128,-1,9
 479 1335 479 1335 407 1335 c 0,10,11
 318 1335 318 1335 270.5 1274.5 c 128,-1,12
 223 1214 223 1214 218 1115 c 1,13,-1
 101 1124 l 1,14,15
 101 1278 101 1278 185.5 1359.5 c 128,-1,16
 270 1441 270 1441 405 1441 c 0,17,18
 543 1441 543 1441 618.5 1366.5 c 128,-1,19
 694 1292 694 1292 694 1176 c 0,20,21
 694 1079 694 1079 639 985 c 128,-1,22
 584 891 584 891 465 777 c 0,23,24
 391 706 391 706 336 664 c 128,-1,25
 281 622 281 622 222 587 c 1,26,-1
 741 587 l 1,27,-1
 741 486 l 1,0,-1
EndSplineSet
EndChar

StartChar: threesuperior
Encoding: 179 179 117
Width: 852
GlyphClass: 2
Flags: W
LayerCount: 2
Fore
SplineSet
412 466 m 256,0,1
 317 466 317 466 238 497 c 128,-1,2
 159 528 159 528 111.5 591 c 128,-1,3
 64 654 64 654 64 751 c 1,4,-1
 172 760 l 1,5,6
 172 699 172 699 205.5 656.5 c 128,-1,7
 239 614 239 614 294 592 c 128,-1,8
 349 570 349 570 413 570 c 0,9,10
 473 570 473 570 527 591 c 128,-1,11
 581 612 581 612 615 653 c 128,-1,12
 649 694 649 694 649 756 c 0,13,14
 649 814 649 814 619.5 853.5 c 128,-1,15
 590 893 590 893 539.5 913 c 128,-1,16
 489 933 489 933 428 933 c 2,17,-1
 356 933 l 1,18,-1
 356 1037 l 1,19,-1
 427 1037 l 2,20,21
 501 1037 501 1037 546 1075.5 c 128,-1,22
 591 1114 591 1114 591 1185 c 0,23,24
 591 1236 591 1236 565.5 1271 c 128,-1,25
 540 1306 540 1306 499 1323.5 c 128,-1,26
 458 1341 458 1341 410 1341 c 0,27,28
 329 1341 329 1341 277 1298 c 128,-1,29
 225 1255 225 1255 222 1184 c 1,30,-1
 115 1194 l 1,31,32
 115 1275 115 1275 154.5 1332 c 128,-1,33
 194 1389 194 1389 260.5 1418.5 c 128,-1,34
 327 1448 327 1448 409 1448 c 0,35,36
 489 1448 489 1448 555.5 1419.5 c 128,-1,37
 622 1391 622 1391 662 1335.5 c 128,-1,38
 702 1280 702 1280 702 1201 c 0,39,40
 702 1138 702 1138 671 1083.5 c 128,-1,41
 640 1029 640 1029 578 994 c 1,42,43
 670 964 670 964 713.5 900 c 128,-1,44
 757 836 757 836 759 753 c 0,45,46
 759 657 759 657 712 593.5 c 128,-1,47
 665 530 665 530 586 498 c 128,-1,48
 507 466 507 466 412 466 c 256,0,1
EndSplineSet
EndChar

StartChar: uni00B5
Encoding: 181 181 119
Width: 1318
GlyphClass: 1
Flags: W
LayerCount: 2
Fore
SplineSet
401 -266 m 1,0,-1
 265 -266 l 1,1,-1
 265 1039 l 1,2,-1
 422 1039 l 1,3,-1
 422 416 l 2,4,5
 422 286 422 286 470 202 c 128,-1,6
 518 118 518 118 634 118 c 0,7,8
 722 118 722 118 792.5 165 c 128,-1,9
 863 212 863 212 904 286.5 c 128,-1,10
 945 361 945 361 945 442 c 2,11,-1
 945 1039 l 1,12,-1
 1102 1039 l 1,13,-1
 1102 0 l 1,14,-1
 945 0 l 1,15,-1
 945 171 l 1,16,17
 921 124 921 124 874.5 80 c 128,-1,18
 828 36 828 36 763 6.5 c 128,-1,19
 698 -23 698 -23 620 -23 c 0,20,21
 512 -23 512 -23 423 28 c 1,22,-1
 401 -266 l 1,0,-1
EndSplineSet
EndChar

StartChar: paragraph
Encoding: 182 182 120
Width: 1332
GlyphClass: 1
Flags: W
LayerCount: 2
Fore
SplineSet
708 -246 m 1,0,-1
 572 -246 l 1,1,-1
 572 623 l 1,2,3
 458 623 458 623 354.5 668.5 c 128,-1,4
 251 714 251 714 183 808 c 0,5,6
 120 898 120 898 120 1018 c 0,7,8
 120 1143 120 1143 184.5 1231.5 c 128,-1,9
 249 1320 249 1320 352 1366.5 c 128,-1,10
 455 1413 455 1413 572 1413 c 2,11,-1
 708 1413 l 1,12,-1
 708 -246 l 1,0,-1
1076 -246 m 1,13,-1
 940 -246 l 1,14,-1
 940 1413 l 1,15,-1
 1076 1413 l 1,16,-1
 1076 -246 l 1,13,-1
EndSplineSet
EndChar

StartChar: periodcentered
Encoding: 183 183 121
Width: 643
GlyphClass: 1
Flags: W
LayerCount: 2
Fore
SplineSet
320 699 m 0,0,1
 267 699 267 699 231.5 735.5 c 128,-1,2
 196 772 196 772 196 824 c 0,3,4
 196 880 196 880 232 914 c 128,-1,5
 268 948 268 948 320 948 c 0,6,7
 373 948 373 948 409 913 c 128,-1,8
 445 878 445 878 445 824 c 0,9,10
 445 772 445 772 408.5 735.5 c 128,-1,11
 372 699 372 699 320 699 c 0,0,1
EndSplineSet
EndChar

StartChar: onesuperior
Encoding: 185 185 123
Width: 805
GlyphClass: 2
Flags: W
LayerCount: 2
Fore
SplineSet
518 486 m 1,0,-1
 399 486 l 1,1,-1
 399 1200 l 1,2,-1
 147 1200 l 1,3,-1
 147 1294 l 1,4,-1
 291 1294 l 2,5,6
 349 1294 349 1294 379 1327.5 c 128,-1,7
 409 1361 409 1361 409 1410 c 2,8,-1
 409 1428 l 1,9,-1
 518 1428 l 1,10,-1
 518 486 l 1,0,-1
EndSplineSet
EndChar

StartChar: ordmasculine
Encoding: 186 186 124
Width: 898
GlyphClass: 2
Flags: W
LayerCount: 2
Fore
SplineSet
450 711 m 0,0,1
 347 711 347 711 270.5 760.5 c 128,-1,2
 194 810 194 810 151.5 892.5 c 128,-1,3
 109 975 109 975 109 1073 c 0,4,5
 109 1230 109 1230 207 1332 c 128,-1,6
 305 1434 305 1434 450 1434 c 0,7,8
 553 1434 553 1434 629 1384 c 128,-1,9
 705 1334 705 1334 746.5 1251.5 c 128,-1,10
 788 1169 788 1169 788 1073 c 0,11,12
 788 974 788 974 745.5 891.5 c 128,-1,13
 703 809 703 809 626.5 760 c 128,-1,14
 550 711 550 711 450 711 c 0,0,1
450 820 m 0,15,16
 555 820 555 820 605.5 891.5 c 128,-1,17
 656 963 656 963 656 1073 c 256,18,19
 656 1183 656 1183 605 1254.5 c 128,-1,20
 554 1326 554 1326 450 1326 c 0,21,22
 344 1326 344 1326 292.5 1254.5 c 128,-1,23
 241 1183 241 1183 241 1073 c 0,24,25
 241 962 241 962 292 891 c 128,-1,26
 343 820 343 820 450 820 c 0,15,16
EndSplineSet
EndChar

StartChar: guillemotright
Encoding: 187 187 125
Width: 963
GlyphClass: 1
Flags: W
LayerCount: 2
Fore
SplineSet
163 185 m 1,0,-1
 163 347 l 1,1,-1
 357 512 l 1,2,-1
 163 675 l 1,3,-1
 163 837 l 1,4,-1
 532 512 l 1,5,-1
 163 185 l 1,0,-1
526 185 m 1,6,-1
 526 347 l 1,7,-1
 719 512 l 1,8,-1
 526 675 l 1,9,-1
 526 837 l 1,10,-1
 897 512 l 1,11,-1
 526 185 l 1,6,-1
EndSplineSet
EndChar

StartChar: questiondown
Encoding: 191 191 126
Width: 1019
GlyphClass: 1
Flags: W
LayerCount: 2
Fore
SplineSet
612 806 m 1,0,-1
 417 806 l 1,1,-1
 417 999 l 1,2,-1
 612 999 l 1,3,-1
 612 806 l 1,0,-1
524 -434 m 0,4,5
 409 -434 409 -434 315 -392.5 c 128,-1,6
 221 -351 221 -351 165 -270.5 c 128,-1,7
 109 -190 109 -190 109 -71 c 0,8,9
 109 85 109 85 206 168 c 0,10,11
 248 203 248 203 315 240 c 0,12,13
 382 276 382 276 415.5 309 c 128,-1,14
 449 342 449 342 449 398 c 2,15,-1
 449 623 l 1,16,-1
 586 623 l 1,17,-1
 586 396 l 2,18,19
 586 270 586 270 507 212 c 0,20,21
 468 184 468 184 416 155 c 0,22,23
 364 125 364 125 330 101 c 0,24,25
 252 44 252 44 252 -75 c 0,26,27
 252 -187 252 -187 326 -244.5 c 128,-1,28
 400 -302 400 -302 517 -302 c 0,29,30
 627 -302 627 -302 703 -240 c 128,-1,31
 779 -178 779 -178 783 -59 c 1,32,-1
 928 -59 l 1,33,34
 922 -239 922 -239 805 -336.5 c 128,-1,35
 688 -434 688 -434 524 -434 c 0,4,5
EndSplineSet
EndChar

StartChar: Aring
Encoding: 197 197 132
Width: 1306
GlyphClass: 1
Flags: W
LayerCount: 2
Fore
SplineSet
1243 0 m 1,0,-1
 1073 0 l 1,1,-1
 965 307 l 1,2,-1
 344 307 l 1,3,-1
 236 0 l 1,4,-1
 63 0 l 1,5,-1
 564 1337 l 1,6,7
 514 1361 514 1361 482.5 1409 c 128,-1,8
 451 1457 451 1457 451 1520 c 0,9,10
 451 1610 451 1610 511.5 1667 c 128,-1,11
 572 1724 572 1724 652 1724 c 0,12,13
 739 1724 739 1724 798 1663.5 c 128,-1,14
 857 1603 857 1603 857 1520 c 0,15,16
 857 1459 857 1459 825 1411.5 c 128,-1,17
 793 1364 793 1364 744 1340 c 1,18,-1
 1243 0 l 1,0,-1
652 1420 m 256,19,20
 694 1420 694 1420 723 1448.5 c 128,-1,21
 752 1477 752 1477 752 1521 c 0,22,23
 752 1562 752 1562 724.5 1590.5 c 128,-1,24
 697 1619 697 1619 652 1619 c 0,25,26
 608 1619 608 1619 581 1592 c 128,-1,27
 554 1565 554 1565 554 1521 c 0,28,29
 554 1476 554 1476 582 1448 c 128,-1,30
 610 1420 610 1420 652 1420 c 256,19,20
911 452 m 1,31,-1
 656 1180 l 1,32,-1
 397 452 l 1,33,-1
 911 452 l 1,31,-1
EndSplineSet
Position2: "'cpsp' Capital Spacing lookup 0 subtable" dx=5 dy=0 dh=10 dv=0
EndChar

StartChar: AE
Encoding: 198 198 133
Width: 1815
GlyphClass: 1
Flags: W
LayerCount: 2
Fore
SplineSet
1706 0 m 1,0,-1
 804 0 l 1,1,-1
 804 307 l 1,2,-1
 338 307 l 1,3,-1
 227 0 l 1,4,-1
 63 0 l 1,5,-1
 589 1413 l 1,6,-1
 1706 1413 l 1,7,-1
 1706 1284 l 1,8,-1
 959 1284 l 1,9,-1
 959 774 l 1,10,-1
 1618 774 l 1,11,-1
 1618 639 l 1,12,-1
 959 639 l 1,13,-1
 959 136 l 1,14,-1
 1706 136 l 1,15,-1
 1706 0 l 1,0,-1
804 448 m 1,16,-1
 804 1284 l 1,17,-1
 691 1284 l 1,18,-1
 387 448 l 1,19,-1
 804 448 l 1,16,-1
EndSplineSet
Position2: "'cpsp' Capital Spacing lookup 0 subtable" dx=5 dy=0 dh=10 dv=0
EndChar

StartChar: Eth
Encoding: 208 208 143
Width: 1423
GlyphClass: 1
Flags: W
LayerCount: 2
Fore
SplineSet
592 0 m 2,0,-1
 229 0 l 1,1,-1
 229 655 l 1,2,-1
 117 655 l 1,3,-1
 117 770 l 1,4,-1
 229 770 l 1,5,-1
 229 1413 l 1,6,-1
 594 1413 l 2,7,8
 941 1413 941 1413 1121.5 1226 c 128,-1,9
 1302 1039 1302 1039 1302 696 c 0,10,11
 1302 469 1302 469 1217 314 c 128,-1,12
 1132 159 1132 159 973 79.5 c 128,-1,13
 814 0 814 0 592 0 c 2,0,-1
568 147 m 2,14,15
 733 147 733 147 862 206 c 128,-1,16
 991 265 991 265 1065 389 c 128,-1,17
 1139 513 1139 513 1139 707 c 0,18,19
 1139 884 1139 884 1081 1009.5 c 128,-1,20
 1023 1135 1023 1135 901.5 1201.5 c 128,-1,21
 780 1268 780 1268 590 1268 c 2,22,-1
 391 1268 l 1,23,-1
 391 770 l 1,24,-1
 772 770 l 1,25,-1
 772 655 l 1,26,-1
 391 655 l 1,27,-1
 391 147 l 1,28,-1
 568 147 l 2,14,15
EndSplineSet
Position2: "'cpsp' Capital Spacing lookup 0 subtable" dx=5 dy=0 dh=10 dv=0
EndChar

StartChar: multiply
Encoding: 215 215 150
Width: 1104
GlyphClass: 1
Flags: W
LayerCount: 2
Fore
SplineSet
879 217 m 1,0,-1
 553 544 l 1,1,-1
 229 221 l 1,2,-1
 148 301 l 1,3,-1
 471 625 l 1,4,-1
 145 950 l 1,5,-1
 226 1032 l 1,6,-1
 553 705 l 1,7,-1
 875 1028 l 1,8,-1
 956 948 l 1,9,-1
 633 625 l 1,10,-1
 959 299 l 1,11,-1
 879 217 l 1,0,-1
EndSplineSet
EndChar

StartChar: Oslash
Encoding: 216 216 151
Width: 1515
GlyphClass: 1
Flags: W
LayerCount: 2
Fore
SplineSet
756 -20 m 0,0,1
 580 -20 580 -20 448 53 c 1,2,-1
 418 0 l 1,3,-1
 290 0 l 1,4,-1
 356 116 l 1,5,6
 236 220 236 220 179.5 376 c 128,-1,7
 123 532 123 532 123 707 c 0,8,9
 123 899 123 899 190.5 1065.5 c 128,-1,10
 258 1232 258 1232 407 1337 c 0,11,12
 549 1434 549 1434 756 1434 c 0,13,14
 930 1434 930 1434 1063 1362 c 1,15,-1
 1092 1413 l 1,16,-1
 1220 1413 l 1,17,-1
 1156 1300 l 1,18,19
 1278 1195 1278 1195 1335 1039 c 128,-1,20
 1392 883 1392 883 1392 707 c 0,21,22
 1392 515 1392 515 1324 348.5 c 128,-1,23
 1256 182 1256 182 1107 78 c 0,24,25
 964 -20 964 -20 756 -20 c 0,0,1
433 252 m 1,26,-1
 989 1232 l 1,27,28
 888 1287 888 1287 756 1287 c 0,29,30
 594 1287 594 1287 487 1208 c 0,31,32
 375 1123 375 1123 326.5 991 c 128,-1,33
 278 859 278 859 278 707 c 0,34,35
 278 576 278 576 315 456.5 c 128,-1,36
 352 337 352 337 433 252 c 1,26,-1
756 126 m 0,37,38
 920 126 920 126 1029 206 c 0,39,40
 1141 290 1141 290 1189.5 422.5 c 128,-1,41
 1238 555 1238 555 1238 707 c 0,42,43
 1238 841 1238 841 1200 961 c 128,-1,44
 1162 1081 1162 1081 1079 1165 c 1,45,-1
 522 183 l 1,46,47
 623 126 623 126 756 126 c 0,37,38
EndSplineSet
Position2: "'cpsp' Capital Spacing lookup 0 subtable" dx=5 dy=0 dh=10 dv=0
EndChar

StartChar: Thorn
Encoding: 222 222 157
Width: 1149
GlyphClass: 1
Flags: W
LayerCount: 2
Fore
SplineSet
371 0 m 1,0,-1
 212 0 l 1,1,-1
 212 1413 l 1,2,-1
 371 1413 l 1,3,-1
 371 1214 l 1,4,-1
 621 1214 l 2,5,6
 827 1214 827 1214 944 1107 c 128,-1,7
 1061 1000 1061 1000 1061 819 c 0,8,9
 1061 693 1061 693 1003.5 607 c 128,-1,10
 946 521 946 521 844 476.5 c 128,-1,11
 742 432 742 432 609 432 c 2,12,-1
 371 432 l 1,13,-1
 371 0 l 1,0,-1
609 579 m 2,14,15
 743 579 743 579 822.5 636.5 c 128,-1,16
 902 694 902 694 902 816 c 256,17,18
 902 938 902 938 822.5 998.5 c 128,-1,19
 743 1059 743 1059 609 1059 c 2,20,-1
 371 1059 l 1,21,-1
 371 579 l 1,22,-1
 609 579 l 2,14,15
EndSplineSet
Position2: "'cpsp' Capital Spacing lookup 0 subtable" dx=5 dy=0 dh=10 dv=0
EndChar

StartChar: germandbls
Encoding: 223 223 158
Width: 1191
GlyphClass: 1
Flags: W
LayerCount: 2
Fore
SplineSet
735 -18 m 0,0,1
 606 -18 606 -18 466 48 c 1,2,-1
 530 188 l 1,3,4
 639 131 639 131 736 131 c 0,5,6
 808 131 808 131 868.5 178 c 128,-1,7
 929 225 929 225 929 293 c 0,8,9
 929 382 929 382 856 451 c 0,10,11
 820 484 820 484 770 526 c 0,12,13
 720 567 720 567 685 600 c 0,14,15
 608 672 608 672 608 769 c 2,16,-1
 608 772 l 2,17,18
 608 814 608 814 624 844 c 128,-1,19
 640 874 640 874 664.5 894.5 c 128,-1,20
 689 915 689 915 726 941 c 0,21,22
 762 967 762 967 786.5 988 c 128,-1,23
 811 1009 811 1009 827 1038 c 128,-1,24
 843 1067 843 1067 843 1106 c 0,25,26
 843 1184 843 1184 777 1240.5 c 128,-1,27
 711 1297 711 1297 595 1297 c 0,28,29
 326 1297 326 1297 326 907 c 2,30,-1
 326 0 l 1,31,-1
 177 0 l 1,32,-1
 177 908 l 2,33,34
 177 1182 177 1182 290.5 1308 c 128,-1,35
 404 1434 404 1434 591 1434 c 0,36,37
 686 1434 686 1434 779.5 1393 c 128,-1,38
 873 1352 873 1352 937 1272 c 0,39,40
 996 1194 996 1194 996 1094 c 0,41,42
 996 1020 996 1020 960.5 976.5 c 128,-1,43
 925 933 925 933 861 894 c 0,44,45
 811 862 811 862 787 835 c 128,-1,46
 763 808 763 808 763 768 c 0,47,48
 763 713 763 713 819 665 c 0,49,50
 844 643 844 643 885 611 c 0,51,52
 945 565 945 565 987 526 c 0,53,54
 1081 438 1081 438 1081 308 c 0,55,56
 1081 208 1081 208 1033 135 c 128,-1,57
 985 62 985 62 906.5 22 c 128,-1,58
 828 -18 828 -18 735 -18 c 0,0,1
EndSplineSet
EndChar

StartChar: ae
Encoding: 230 230 165
Width: 1707
GlyphClass: 1
Flags: W
LayerCount: 2
Fore
SplineSet
408 -20 m 0,0,1
 318 -20 318 -20 243.5 18.5 c 128,-1,2
 169 57 169 57 124 126 c 128,-1,3
 79 195 79 195 79 283 c 0,4,5
 79 444 79 444 180 518 c 128,-1,6
 281 592 281 592 455 592 c 2,7,-1
 775 592 l 1,8,9
 775 936 775 936 510 936 c 0,10,11
 420 936 420 936 348 891.5 c 128,-1,12
 276 847 276 847 234 781 c 1,13,-1
 119 862 l 1,14,15
 197 962 197 962 291 1009 c 128,-1,16
 385 1056 385 1056 517 1056 c 0,17,18
 769 1056 769 1056 854 863 c 1,19,20
 953 1052 953 1052 1191 1052 c 0,21,22
 1425 1052 1425 1052 1526.5 899.5 c 128,-1,23
 1628 747 1628 747 1628 508 c 1,24,-1
 1626 470 l 1,25,-1
 908 470 l 1,26,27
 908 369 908 369 941 295 c 0,28,29
 975 215 975 215 1043 168 c 128,-1,30
 1111 121 1111 121 1208 121 c 0,31,32
 1307 121 1307 121 1375 145.5 c 128,-1,33
 1443 170 1443 170 1506 231 c 1,34,-1
 1604 144 l 1,35,36
 1521 61 1521 61 1427 24.5 c 128,-1,37
 1333 -12 1333 -12 1210 -12 c 0,38,39
 1055 -12 1055 -12 955.5 66 c 128,-1,40
 856 144 856 144 815 279 c 1,41,42
 764 136 764 136 662.5 58 c 128,-1,43
 561 -20 561 -20 408 -20 c 0,0,1
1487 592 m 1,44,-1
 1487 598 l 2,45,46
 1487 743 1487 743 1412 831 c 128,-1,47
 1337 919 1337 919 1192 919 c 0,48,49
 1104 919 1104 919 1039.5 875.5 c 128,-1,50
 975 832 975 832 942.5 758 c 128,-1,51
 910 684 910 684 907 592 c 1,52,-1
 1487 592 l 1,44,-1
446 108 m 0,53,54
 539 108 539 108 615.5 160.5 c 128,-1,55
 692 213 692 213 735 297 c 0,56,57
 775 376 775 376 775 470 c 1,58,-1
 467 470 l 2,59,60
 367 470 367 470 301.5 421 c 128,-1,61
 236 372 236 372 236 284 c 0,62,63
 236 236 236 236 269 195.5 c 128,-1,64
 302 155 302 155 350 131.5 c 128,-1,65
 398 108 398 108 446 108 c 0,53,54
EndSplineSet
EndChar

StartChar: eth
Encoding: 240 240 175
Width: 1181
GlyphClass: 1
Flags: W
LayerCount: 2
Fore
SplineSet
584 -16 m 0,0,1
 466 -16 466 -16 374 28.5 c 128,-1,2
 282 73 282 73 219 150.5 c 128,-1,3
 156 228 156 228 124 327.5 c 128,-1,4
 92 427 92 427 92 537 c 0,5,6
 92 677 92 677 147 796.5 c 128,-1,7
 202 916 202 916 314 990 c 0,8,9
 420 1060 420 1060 562 1060 c 0,10,11
 658 1060 658 1060 732 1032.5 c 128,-1,12
 806 1005 806 1005 843 966 c 1,13,14
 796 1152 796 1152 568 1287 c 1,15,-1
 474 1163 l 1,16,-1
 380 1218 l 1,17,-1
 472 1339 l 1,18,19
 400 1374 400 1374 298 1410 c 1,20,-1
 377 1517 l 1,21,22
 478 1482 478 1482 553 1446 c 1,23,-1
 617 1531 l 1,24,-1
 716 1479 l 1,25,-1
 652 1395 l 1,26,27
 875 1252 875 1252 974 1038 c 128,-1,28
 1073 824 1073 824 1073 527 c 0,29,30
 1073 385 1073 385 1017 260 c 128,-1,31
 961 135 961 135 845 58 c 0,32,33
 734 -16 734 -16 584 -16 c 0,0,1
583 127 m 0,34,35
 692 127 692 127 764.5 185 c 128,-1,36
 837 243 837 243 872.5 336.5 c 128,-1,37
 908 430 908 430 908 537 c 0,38,39
 908 642 908 642 872.5 735 c 128,-1,40
 837 828 837 828 765 886.5 c 128,-1,41
 693 945 693 945 583 945 c 0,42,43
 472 945 472 945 400 887 c 128,-1,44
 328 829 328 829 293 735.5 c 128,-1,45
 258 642 258 642 258 536 c 0,46,47
 258 432 258 432 292 338.5 c 128,-1,48
 326 245 326 245 398 186 c 128,-1,49
 470 127 470 127 583 127 c 0,34,35
EndSplineSet
EndChar

StartChar: divide
Encoding: 247 247 182
Width: 958
GlyphClass: 1
Flags: W
LayerCount: 2
Fore
SplineSet
573 902 m 1,0,-1
 377 902 l 1,1,-1
 377 1096 l 1,2,-1
 573 1096 l 1,3,-1
 573 902 l 1,0,-1
825 571 m 1,4,-1
 125 571 l 1,5,-1
 125 685 l 1,6,-1
 825 685 l 1,7,-1
 825 571 l 1,4,-1
573 142 m 1,8,-1
 377 142 l 1,9,-1
 377 335 l 1,10,-1
 573 335 l 1,11,-1
 573 142 l 1,8,-1
EndSplineSet
EndChar

StartChar: oslash
Encoding: 248 248 183
Width: 1143
GlyphClass: 1
Flags: W
LayerCount: 2
Fore
SplineSet
572 -20 m 0,0,1
 447 -20 447 -20 345 34 c 1,2,-1
 325 1 l 1,3,-1
 232 1 l 1,4,-1
 276 77 l 1,5,6
 189 150 189 150 139 262.5 c 128,-1,7
 89 375 89 375 89 514 c 0,8,9
 89 658 89 658 148.5 781 c 128,-1,10
 208 904 208 904 323 980 c 0,11,12
 433 1052 433 1052 576 1052 c 0,13,14
 696 1052 696 1052 797 1000 c 1,15,-1
 820 1039 l 1,16,-1
 914 1039 l 1,17,-1
 867 957 l 1,18,19
 957 885 957 885 1009 771 c 128,-1,20
 1061 657 1061 657 1061 518 c 0,21,22
 1061 371 1061 371 999.5 248.5 c 128,-1,23
 938 126 938 126 828 53 c 128,-1,24
 718 -20 718 -20 572 -20 c 0,0,1
350 208 m 1,25,-1
 729 882 l 1,26,27
 661 919 661 919 574 919 c 0,28,29
 463 919 463 919 392.5 864.5 c 128,-1,30
 322 810 322 810 289 718 c 128,-1,31
 256 626 256 626 256 516 c 0,32,33
 256 317 256 317 350 208 c 1,25,-1
574 112 m 0,34,35
 686 112 686 112 756 166.5 c 128,-1,36
 826 221 826 221 859.5 312.5 c 128,-1,37
 893 404 893 404 893 516 c 0,38,39
 893 608 893 608 869.5 690 c 128,-1,40
 846 772 846 772 794 831 c 1,41,-1
 413 153 l 1,42,43
 482 112 482 112 574 112 c 0,34,35
EndSplineSet
EndChar

StartChar: thorn
Encoding: 254 254 189
Width: 1162
GlyphClass: 1
Flags: W
LayerCount: 2
Fore
SplineSet
338 -438 m 1,0,-1
 179 -438 l 1,1,-1
 179 1413 l 1,2,-1
 338 1413 l 1,3,-1
 338 899 l 1,4,5
 388 973 388 973 468.5 1016.5 c 128,-1,6
 549 1060 549 1060 663 1060 c 0,7,8
 796 1060 796 1060 887 987 c 128,-1,9
 978 914 978 914 1025.5 791 c 128,-1,10
 1073 668 1073 668 1073 520 c 0,11,12
 1073 377 1073 377 1027 252.5 c 128,-1,13
 981 128 981 128 885 52 c 0,14,15
 792 -20 792 -20 663 -20 c 0,16,17
 551 -20 551 -20 469.5 23 c 128,-1,18
 388 66 388 66 338 140 c 1,19,-1
 338 -438 l 1,0,-1
623 118 m 0,20,21
 725 118 725 118 790.5 172 c 128,-1,22
 856 226 856 226 888 317 c 128,-1,23
 920 408 920 408 920 520 c 0,24,25
 920 625 920 625 889.5 716.5 c 128,-1,26
 859 808 859 808 793 864.5 c 128,-1,27
 727 921 727 921 623 921 c 0,28,29
 521 921 521 921 454 866.5 c 128,-1,30
 387 812 387 812 354.5 720 c 128,-1,31
 322 628 322 628 322 520 c 256,32,33
 322 412 322 412 354 320 c 128,-1,34
 386 228 386 228 452.5 173 c 128,-1,35
 519 118 519 118 623 118 c 0,20,21
EndSplineSet
EndChar

StartChar: dcaron
Encoding: 271 271 206
Width: 1232
GlyphClass: 1
Flags: W
LayerCount: 2
Fore
SplineSet
513 -20 m 0,0,1
 380 -20 380 -20 288 54 c 128,-1,2
 196 128 196 128 148 251 c 128,-1,3
 100 374 100 374 100 520 c 0,4,5
 100 663 100 663 147 787 c 128,-1,6
 194 911 194 911 292 988 c 0,7,8
 385 1060 385 1060 512 1060 c 0,9,10
 723 1060 723 1060 835 902 c 1,11,-1
 835 1413 l 1,12,-1
 984 1413 l 1,13,-1
 984 0 l 1,14,-1
 835 0 l 1,15,-1
 835 137 l 1,16,17
 721 -20 721 -20 513 -20 c 0,0,1
1211 1057 m 1,18,-1
 1100 1057 l 1,19,-1
 1207 1413 l 1,20,-1
 1427 1413 l 1,21,-1
 1211 1057 l 1,18,-1
550 116 m 0,22,23
 654 116 654 116 719.5 170.5 c 128,-1,24
 785 225 785 225 816 317 c 128,-1,25
 847 409 847 409 847 520 c 0,26,27
 847 626 847 626 817.5 717.5 c 128,-1,28
 788 809 788 809 722.5 865.5 c 128,-1,29
 657 922 657 922 550 922 c 0,30,31
 449 922 449 922 383 867.5 c 128,-1,32
 317 813 317 813 285 721 c 128,-1,33
 253 629 253 629 253 520 c 0,34,35
 253 414 253 414 283.5 322 c 128,-1,36
 314 230 314 230 379.5 173 c 128,-1,37
 445 116 445 116 550 116 c 0,22,23
EndSplineSet
EndChar

StartChar: dcroat
Encoding: 273 273 208
Width: 1158
GlyphClass: 1
Flags: W
LayerCount: 2
Fore
SplineSet
513 -20 m 0,0,1
 380 -20 380 -20 288 54 c 128,-1,2
 196 128 196 128 148 251 c 128,-1,3
 100 374 100 374 100 520 c 0,4,5
 100 663 100 663 147 787 c 128,-1,6
 194 911 194 911 292 988 c 0,7,8
 385 1060 385 1060 512 1060 c 0,9,10
 723 1060 723 1060 835 902 c 1,11,-1
 835 1178 l 1,12,-1
 526 1178 l 1,13,-1
 526 1294 l 1,14,-1
 835 1294 l 1,15,-1
 835 1413 l 1,16,-1
 984 1413 l 1,17,-1
 984 1294 l 1,18,-1
 1180 1294 l 1,19,-1
 1180 1178 l 1,20,-1
 984 1178 l 1,21,-1
 984 0 l 1,22,-1
 839 0 l 1,23,-1
 836 140 l 1,24,25
 722 -20 722 -20 513 -20 c 0,0,1
550 116 m 0,26,27
 654 116 654 116 719.5 170.5 c 128,-1,28
 785 225 785 225 816 317 c 128,-1,29
 847 409 847 409 847 520 c 0,30,31
 847 626 847 626 817.5 717.5 c 128,-1,32
 788 809 788 809 722.5 865.5 c 128,-1,33
 657 922 657 922 550 922 c 0,34,35
 449 922 449 922 383 867.5 c 128,-1,36
 317 813 317 813 285 721 c 128,-1,37
 253 629 253 629 253 520 c 0,38,39
 253 414 253 414 283.5 322 c 128,-1,40
 314 230 314 230 379.5 173 c 128,-1,41
 445 116 445 116 550 116 c 0,26,27
EndSplineSet
EndChar

StartChar: Hbar
Encoding: 294 294 229
Width: 1455
GlyphClass: 1
Flags: W
LayerCount: 2
Fore
SplineSet
1243 0 m 1,0,-1
 1084 0 l 1,1,-1
 1084 641 l 1,2,-1
 371 641 l 1,3,-1
 371 0 l 1,4,-1
 212 0 l 1,5,-1
 212 1071 l 1,6,-1
 97 1071 l 1,7,-1
 97 1160 l 1,8,-1
 212 1160 l 1,9,-1
 212 1413 l 1,10,-1
 371 1413 l 1,11,-1
 371 1160 l 1,12,-1
 1084 1160 l 1,13,-1
 1084 1413 l 1,14,-1
 1243 1413 l 1,15,-1
 1243 1160 l 1,16,-1
 1356 1160 l 1,17,-1
 1356 1071 l 1,18,-1
 1243 1071 l 1,19,-1
 1243 0 l 1,0,-1
1084 774 m 1,20,-1
 1084 1071 l 1,21,-1
 371 1071 l 1,22,-1
 371 774 l 1,23,-1
 1084 774 l 1,20,-1
EndSplineSet
Position2: "'cpsp' Capital Spacing lookup 0 subtable" dx=5 dy=0 dh=10 dv=0
EndChar

StartChar: hbar
Encoding: 295 295 230
Width: 1151
GlyphClass: 1
Flags: W
LayerCount: 2
Fore
SplineSet
1006 0 m 1,0,-1
 855 0 l 1,1,-1
 855 619 l 2,2,3
 855 746 855 746 806.5 830.5 c 128,-1,4
 758 915 758 915 640 915 c 0,5,6
 546 915 546 915 475.5 866 c 128,-1,7
 405 817 405 817 365 738.5 c 128,-1,8
 325 660 325 660 325 572 c 2,9,-1
 325 0 l 1,10,-1
 177 0 l 1,11,-1
 177 1152 l 1,12,-1
 -11 1152 l 1,13,-1
 -11 1268 l 1,14,-1
 177 1268 l 1,15,-1
 177 1413 l 1,16,-1
 325 1413 l 1,17,-1
 325 1268 l 1,18,-1
 642 1268 l 1,19,-1
 642 1152 l 1,20,-1
 325 1152 l 1,21,-1
 325 873 l 1,22,23
 379 957 379 957 469.5 1006.5 c 128,-1,24
 560 1056 560 1056 660 1056 c 0,25,26
 779 1056 779 1056 855.5 1000.5 c 128,-1,27
 932 945 932 945 969 850.5 c 128,-1,28
 1006 756 1006 756 1006 640 c 2,29,-1
 1006 0 l 1,0,-1
EndSplineSet
EndChar

StartChar: dotlessi
Encoding: 305 305 240
Width: 501
GlyphClass: 2
Flags: W
LayerCount: 2
Fore
SplineSet
333 0 m 1,0,-1
 168 0 l 1,1,-1
 168 1039 l 1,2,-1
 333 1039 l 1,3,-1
 333 0 l 1,0,-1
EndSplineSet
EndChar

StartChar: kgreenlandic
Encoding: 312 312 247
Width: 1071
GlyphClass: 1
Flags: W
LayerCount: 2
Fore
SplineSet
1050 0 m 1,0,-1
 863 0 l 1,1,-1
 546 548 l 1,2,-1
 324 302 l 1,3,-1
 324 0 l 1,4,-1
 175 0 l 1,5,-1
 175 1039 l 1,6,-1
 324 1039 l 1,7,-1
 324 495 l 1,8,-1
 788 1039 l 1,9,-1
 981 1039 l 1,10,-1
 642 657 l 1,11,-1
 1050 0 l 1,0,-1
EndSplineSet
EndChar

StartChar: Lcaron
Encoding: 317 317 252
Width: 1051
GlyphClass: 1
Flags: W
LayerCount: 2
Fore
SplineSet
975 0 m 1,0,-1
 212 0 l 1,1,-1
 212 1413 l 1,2,-1
 371 1413 l 1,3,-1
 371 145 l 1,4,-1
 975 145 l 1,5,-1
 975 0 l 1,0,-1
708 1017 m 1,6,-1
 601 1017 l 1,7,-1
 704 1413 l 1,8,-1
 916 1413 l 1,9,-1
 708 1017 l 1,6,-1
EndSplineSet
Position2: "'cpsp' Capital Spacing lookup 0 subtable" dx=5 dy=0 dh=10 dv=0
EndChar

StartChar: lcaron
Encoding: 318 318 253
Width: 584
GlyphClass: 1
Flags: W
LayerCount: 2
Fore
SplineSet
338 -20 m 0,0,1
 266 -20 266 -20 228.5 8 c 128,-1,2
 191 36 191 36 181.5 82.5 c 128,-1,3
 172 129 172 129 172 202 c 2,4,-1
 172 1413 l 1,5,-1
 323 1413 l 1,6,-1
 323 166 l 2,7,8
 323 151 323 151 333.5 130.5 c 128,-1,9
 344 110 344 110 375 110 c 0,10,11
 418 110 418 110 474 120 c 1,12,-1
 474 0 l 1,13,14
 408 -20 408 -20 338 -20 c 0,0,1
567 1017 m 1,15,-1
 455 1017 l 1,16,-1
 562 1413 l 1,17,-1
 782 1413 l 1,18,-1
 567 1017 l 1,15,-1
EndSplineSet
EndChar

StartChar: Lslash
Encoding: 321 321 256
Width: 1058
GlyphClass: 1
Flags: W
LayerCount: 2
Fore
SplineSet
993 0 m 1,0,-1
 230 0 l 1,1,-1
 230 317 l 1,2,-1
 126 202 l 1,3,-1
 126 387 l 1,4,-1
 230 505 l 1,5,-1
 230 1413 l 1,6,-1
 389 1413 l 1,7,-1
 389 686 l 1,8,-1
 755 1101 l 1,9,-1
 755 895 l 1,10,-1
 389 492 l 1,11,-1
 389 145 l 1,12,-1
 993 145 l 1,13,-1
 993 0 l 1,0,-1
EndSplineSet
Position2: "'cpsp' Capital Spacing lookup 0 subtable" dx=5 dy=0 dh=10 dv=0
EndChar

StartChar: lslash
Encoding: 322 322 257
Width: 531
GlyphClass: 1
Flags: W
LayerCount: 2
Fore
SplineSet
338 -20 m 0,0,1
 266 -20 266 -20 228.5 8 c 128,-1,2
 191 36 191 36 181.5 82.5 c 128,-1,3
 172 129 172 129 172 202 c 2,4,-1
 172 484 l 1,5,-1
 8 307 l 1,6,-1
 8 454 l 1,7,-1
 172 631 l 1,8,-1
 172 1413 l 1,9,-1
 323 1413 l 1,10,-1
 323 801 l 1,11,-1
 510 1004 l 1,12,-1
 510 857 l 1,13,-1
 323 654 l 1,14,-1
 323 166 l 2,15,16
 323 151 323 151 333.5 130.5 c 128,-1,17
 344 110 344 110 375 110 c 0,18,19
 418 110 418 110 474 120 c 1,20,-1
 474 0 l 1,21,22
 408 -20 408 -20 338 -20 c 0,0,1
EndSplineSet
EndChar

StartChar: Eng
Encoding: 330 330 265
Width: 1420
GlyphClass: 1
Flags: W
LayerCount: 2
Fore
SplineSet
924 -369 m 2,0,-1
 845 -369 l 1,1,-1
 845 -248 l 1,2,-1
 852 -248 l 2,3,4
 937 -248 937 -248 987.5 -214.5 c 128,-1,5
 1038 -181 1038 -181 1038 -127 c 0,6,7
 1038 -101 1038 -101 1024 -70 c 2,8,-1
 370 1228 l 1,9,-1
 370 0 l 1,10,-1
 212 0 l 1,11,-1
 212 1413 l 1,12,-1
 434 1413 l 1,13,-1
 1049 185 l 1,14,-1
 1049 1413 l 1,15,-1
 1206 1413 l 1,16,-1
 1206 0 l 2,17,18
 1206 -85 1206 -85 1191.5 -161.5 c 128,-1,19
 1177 -238 1177 -238 1114.5 -303.5 c 128,-1,20
 1052 -369 1052 -369 924 -369 c 2,0,-1
EndSplineSet
Position2: "'cpsp' Capital Spacing lookup 0 subtable" dx=5 dy=0 dh=10 dv=0
EndChar

StartChar: eng
Encoding: 331 331 266
Width: 1139
GlyphClass: 1
Flags: W
LayerCount: 2
Fore
SplineSet
728 -369 m 2,0,-1
 641 -369 l 1,1,-1
 641 -240 l 1,2,-1
 699 -240 l 2,3,4
 768 -240 768 -240 801.5 -208 c 128,-1,5
 835 -176 835 -176 843 -136.5 c 128,-1,6
 851 -97 851 -97 851 -51 c 2,7,-1
 851 623 l 2,8,9
 851 911 851 911 638 911 c 0,10,11
 548 911 548 911 477.5 866 c 128,-1,12
 407 821 407 821 366.5 749.5 c 128,-1,13
 326 678 326 678 326 598 c 2,14,-1
 326 9 l 1,15,-1
 175 9 l 1,16,-1
 175 1039 l 1,17,-1
 326 1039 l 1,18,-1
 326 880 l 1,19,20
 375 959 375 959 462 1007.5 c 128,-1,21
 549 1056 549 1056 648 1056 c 0,22,23
 773 1056 773 1056 851 999.5 c 128,-1,24
 929 943 929 943 965 847.5 c 128,-1,25
 1001 752 1001 752 1001 635 c 2,26,-1
 1001 -76 l 2,27,28
 1001 -193 1001 -193 948 -281 c 128,-1,29
 895 -369 895 -369 728 -369 c 2,0,-1
EndSplineSet
EndChar

StartChar: OE
Encoding: 338 338 273
Width: 2243
GlyphClass: 1
Flags: W
LayerCount: 2
Fore
SplineSet
756 -20 m 0,0,1
 549 -20 549 -20 407 78 c 0,2,3
 258 182 258 182 190.5 348.5 c 128,-1,4
 123 515 123 515 123 707 c 256,5,6
 123 899 123 899 190.5 1065.5 c 128,-1,7
 258 1232 258 1232 407 1337 c 0,8,9
 549 1434 549 1434 756 1434 c 0,10,11
 1101 1434 1101 1434 1233 1158 c 1,12,-1
 1233 1413 l 1,13,-1
 2132 1413 l 1,14,-1
 2132 1276 l 1,15,-1
 1392 1276 l 1,16,-1
 1392 774 l 1,17,-1
 2049 774 l 1,18,-1
 2049 641 l 1,19,-1
 1392 641 l 1,20,-1
 1392 145 l 1,21,-1
 2132 145 l 1,22,-1
 2132 0 l 1,23,-1
 1233 0 l 1,24,-1
 1233 256 l 1,25,26
 1106 -20 1106 -20 756 -20 c 0,0,1
756 124 m 0,27,28
 920 124 920 124 1027 204 c 0,29,30
 1137 289 1137 289 1185 421 c 128,-1,31
 1233 553 1233 553 1233 707 c 256,32,33
 1233 861 1233 861 1185 993 c 128,-1,34
 1137 1125 1137 1125 1027 1210 c 0,35,36
 920 1289 920 1289 756 1289 c 0,37,38
 594 1289 594 1289 488 1209 c 0,39,40
 378 1124 378 1124 330 991.5 c 128,-1,41
 282 859 282 859 282 707 c 0,42,43
 282 591 282 591 309 485.5 c 128,-1,44
 336 380 336 380 393 299 c 128,-1,45
 450 218 450 218 540 171 c 128,-1,46
 630 124 630 124 756 124 c 0,27,28
EndSplineSet
Position2: "'cpsp' Capital Spacing lookup 0 subtable" dx=5 dy=0 dh=10 dv=0
EndChar

StartChar: oe
Encoding: 339 339 274
Width: 1831
GlyphClass: 1
Flags: W
LayerCount: 2
Fore
SplineSet
574 -20 m 0,0,1
 426 -20 426 -20 317 53.5 c 128,-1,2
 208 127 208 127 148.5 249.5 c 128,-1,3
 89 372 89 372 89 516 c 0,4,5
 89 658 89 658 148.5 780.5 c 128,-1,6
 208 903 208 903 323 980 c 0,7,8
 433 1052 433 1052 574 1052 c 0,9,10
 709 1052 709 1052 805.5 993.5 c 128,-1,11
 902 935 902 935 959 836 c 1,12,13
 1007 934 1007 934 1096.5 993 c 128,-1,14
 1186 1052 1186 1052 1320 1052 c 0,15,16
 1554 1052 1554 1052 1653.5 899.5 c 128,-1,17
 1753 747 1753 747 1753 507 c 1,18,-1
 1751 470 l 1,19,-1
 1033 470 l 1,20,21
 1034 375 1034 375 1067.5 295 c 128,-1,22
 1101 215 1101 215 1167.5 165.5 c 128,-1,23
 1234 116 1234 116 1336 116 c 0,24,25
 1436 116 1436 116 1503.5 142 c 128,-1,26
 1571 168 1571 168 1626 229 c 1,27,-1
 1725 144 l 1,28,29
 1649 63 1649 63 1557 25.5 c 128,-1,30
 1465 -12 1465 -12 1338 -12 c 0,31,32
 1079 -12 1079 -12 961 201 c 1,33,34
 906 101 906 101 809 40.5 c 128,-1,35
 712 -20 712 -20 574 -20 c 0,0,1
1614 592 m 1,36,-1
 1614 598 l 2,37,38
 1614 743 1614 743 1540.5 832.5 c 128,-1,39
 1467 922 1467 922 1321 922 c 0,40,41
 1229 922 1229 922 1165.5 878 c 128,-1,42
 1102 834 1102 834 1069.5 759.5 c 128,-1,43
 1037 685 1037 685 1032 592 c 1,44,-1
 1614 592 l 1,36,-1
573 118 m 0,45,46
 686 118 686 118 756 171 c 128,-1,47
 826 224 826 224 859 314.5 c 128,-1,48
 892 405 892 405 892 516 c 0,49,50
 892 624 892 624 859.5 714.5 c 128,-1,51
 827 805 827 805 757 860 c 128,-1,52
 687 915 687 915 573 915 c 0,53,54
 462 915 462 915 391.5 861 c 128,-1,55
 321 807 321 807 287.5 715.5 c 128,-1,56
 254 624 254 624 254 515 c 0,57,58
 254 408 254 408 287 317 c 128,-1,59
 320 226 320 226 390.5 172 c 128,-1,60
 461 118 461 118 573 118 c 0,45,46
EndSplineSet
EndChar

StartChar: tcaron
Encoding: 357 357 292
Width: 699
GlyphClass: 1
Flags: W
LayerCount: 2
Fore
SplineSet
589 1135 m 1,0,-1
 491 1135 l 1,1,-1
 617 1477 l 1,2,-1
 821 1477 l 1,3,-1
 589 1135 l 1,0,-1
462 -20 m 0,4,5
 210 -20 210 -20 210 278 c 2,6,-1
 210 913 l 1,7,-1
 47 913 l 1,8,-1
 47 1039 l 1,9,-1
 210 1039 l 1,10,-1
 210 1245 l 1,11,-1
 359 1373 l 1,12,-1
 359 1039 l 1,13,-1
 625 1039 l 1,14,-1
 625 913 l 1,15,-1
 359 913 l 1,16,-1
 359 264 l 2,17,18
 359 110 359 110 472 110 c 0,19,20
 554 110 554 110 596 128 c 1,21,-1
 597 128 l 1,22,-1
 597 0 l 1,23,24
 590 -4 590 -4 553 -12 c 128,-1,25
 516 -20 516 -20 462 -20 c 0,4,5
EndSplineSet
EndChar

StartChar: Tbar
Encoding: 358 358 293
Width: 1234
GlyphClass: 1
Flags: W
LayerCount: 2
Fore
SplineSet
697 0 m 1,0,-1
 537 0 l 1,1,-1
 537 648 l 1,2,-1
 304 648 l 1,3,-1
 304 764 l 1,4,-1
 537 764 l 1,5,-1
 537 1282 l 1,6,-1
 60 1282 l 1,7,-1
 60 1413 l 1,8,-1
 1174 1413 l 1,9,-1
 1174 1282 l 1,10,-1
 697 1282 l 1,11,-1
 697 764 l 1,12,-1
 938 764 l 1,13,-1
 938 648 l 1,14,-1
 697 648 l 1,15,-1
 697 0 l 1,0,-1
EndSplineSet
Position2: "'cpsp' Capital Spacing lookup 0 subtable" dx=5 dy=0 dh=10 dv=0
EndChar

StartChar: tbar
Encoding: 359 359 294
Width: 692
GlyphClass: 1
Flags: W
LayerCount: 2
Fore
SplineSet
460 -20 m 0,0,1
 209 -20 209 -20 209 278 c 2,2,-1
 209 462 l 1,3,-1
 2 462 l 1,4,-1
 2 578 l 1,5,-1
 209 578 l 1,6,-1
 209 917 l 1,7,-1
 46 917 l 1,8,-1
 46 1039 l 1,9,-1
 210 1039 l 1,10,-1
 210 1239 l 1,11,-1
 359 1364 l 1,12,-1
 359 1039 l 1,13,-1
 624 1039 l 1,14,-1
 624 917 l 1,15,-1
 359 917 l 1,16,-1
 359 578 l 1,17,-1
 655 578 l 1,18,-1
 655 462 l 1,19,-1
 359 462 l 1,20,-1
 359 274 l 2,21,22
 359 186 359 186 397 144.5 c 128,-1,23
 435 103 435 103 493 103 c 0,24,25
 543 103 543 103 597 130 c 1,26,-1
 597 0 l 1,27,28
 548 -20 548 -20 460 -20 c 0,0,1
EndSplineSet
EndChar

StartChar: longs
Encoding: 383 383 318
Width: 696
GlyphClass: 2
Flags: W
LayerCount: 2
Fore
SplineSet
372 0 m 1,0,-1
 223 0 l 1,1,-1
 223 917 l 1,2,-1
 33 917 l 1,3,-1
 33 1037 l 1,4,-1
 224 1037 l 1,5,-1
 224 1191 l 2,6,7
 224 1272 224 1272 260.5 1325.5 c 128,-1,8
 297 1379 297 1379 360.5 1406.5 c 128,-1,9
 424 1434 424 1434 501 1434 c 0,10,11
 589 1434 589 1434 669 1396 c 1,12,-1
 632 1281 l 1,13,14
 564 1308 564 1308 510 1308 c 0,15,16
 450 1308 450 1308 411 1272 c 128,-1,17
 372 1236 372 1236 372 1159 c 2,18,-1
 372 0 l 1,0,-1
EndSplineSet
EndChar

StartChar: florin
Encoding: 402 402 319
Width: 1072
GlyphClass: 1
Flags: W
LayerCount: 2
Fore
SplineSet
119 -457 m 1,0,-1
 119 -322 l 1,1,2
 305 -322 305 -322 387.5 -243 c 128,-1,3
 470 -164 470 -164 470 6 c 2,4,-1
 470 907 l 1,5,-1
 285 907 l 1,6,-1
 285 1039 l 1,7,-1
 470 1039 l 1,8,-1
 470 1186 l 2,9,10
 470 1266 470 1266 507 1325 c 128,-1,11
 544 1384 544 1384 606.5 1417 c 128,-1,12
 669 1450 669 1450 742 1450 c 0,13,14
 795 1450 795 1450 848 1431 c 128,-1,15
 901 1412 901 1412 947 1374 c 1,16,-1
 857 1277 l 1,17,18
 829 1297 829 1297 798 1306 c 128,-1,19
 767 1315 767 1315 742 1315 c 0,20,21
 686 1315 686 1315 645.5 1281.5 c 128,-1,22
 605 1248 605 1248 605 1180 c 2,23,-1
 605 1039 l 1,24,-1
 922 1039 l 1,25,-1
 922 907 l 1,26,-1
 605 907 l 1,27,-1
 605 9 l 2,28,29
 605 -144 605 -144 544.5 -248.5 c 128,-1,30
 484 -353 484 -353 374.5 -405 c 128,-1,31
 265 -457 265 -457 119 -457 c 1,0,-1
EndSplineSet
EndChar

StartChar: uni01C3
Encoding: 451 451 324
Width: 646
GlyphClass: 1
Flags: W
LayerCount: 2
Fore
SplineSet
379 379 m 1,0,-1
 267 379 l 1,1,-1
 238 1435 l 1,2,-1
 408 1435 l 1,3,-1
 379 379 l 1,0,-1
420 0 m 1,4,-1
 226 0 l 1,5,-1
 226 192 l 1,6,-1
 420 192 l 1,7,-1
 420 0 l 1,4,-1
EndSplineSet
EndChar

StartChar: uni01DD
Encoding: 477 477 350
Width: 1051
GlyphClass: 1
Flags: W
LayerCount: 2
Fore
SplineSet
521 -12 m 0,0,1
 288 -12 288 -12 188.5 140 c 128,-1,2
 89 292 89 292 89 535 c 0,3,4
 89 544 89 544 91 554 c 0,5,6
 92 563 92 563 92 569 c 1,7,-1
 811 569 l 1,8,9
 807 738 807 738 723 829.5 c 128,-1,10
 639 921 639 921 507 921 c 0,11,12
 407 921 407 921 337.5 894.5 c 128,-1,13
 268 868 268 868 213 807 c 1,14,-1
 112 894 l 1,15,16
 189 975 189 975 282.5 1013.5 c 128,-1,17
 376 1052 376 1052 503 1052 c 0,18,19
 658 1052 658 1052 761.5 980.5 c 128,-1,20
 865 909 865 909 917 789.5 c 128,-1,21
 969 670 969 670 969 526 c 0,22,23
 969 387 969 387 920.5 264 c 128,-1,24
 872 141 872 141 768 62 c 0,25,26
 666 -12 666 -12 521 -12 c 0,0,1
522 120 m 0,27,28
 616 120 616 120 679 163.5 c 128,-1,29
 742 207 742 207 775 280.5 c 128,-1,30
 808 354 808 354 811 445 c 1,31,-1
 230 445 l 1,32,33
 231 350 231 350 263 277 c 128,-1,34
 295 204 295 204 359 162 c 128,-1,35
 423 120 423 120 522 120 c 0,27,28
EndSplineSet
EndChar

StartChar: uni0237
Encoding: 567 567 367
Width: 513
GlyphClass: 2
Flags: W
LayerCount: 2
Fore
SplineSet
74 -438 m 0,0,1
 38 -438 38 -438 -6.5 -428.5 c 128,-1,2
 -51 -419 -51 -419 -82 -407 c 1,3,-1
 -47 -275 l 1,4,5
 17 -291 17 -291 70 -291 c 0,6,7
 130 -291 130 -291 154 -253.5 c 128,-1,8
 178 -216 178 -216 178 -155 c 2,9,-1
 178 1039 l 1,10,-1
 339 1039 l 1,11,-1
 339 -143 l 2,12,13
 339 -228 339 -228 311.5 -295 c 128,-1,14
 284 -362 284 -362 225.5 -400 c 128,-1,15
 167 -438 167 -438 74 -438 c 0,0,1
EndSplineSet
EndChar

StartChar: uni0250
Encoding: 592 592 368
Width: 1075
GlyphClass: 1
Flags: W
LayerCount: 2
Fore
SplineSet
568 -20 m 0,0,1
 441 -20 441 -20 353 32.5 c 128,-1,2
 265 85 265 85 220 178.5 c 128,-1,3
 175 272 175 272 175 397 c 2,4,-1
 175 1035 l 1,5,-1
 299 1035 l 1,6,-1
 307 854 l 1,7,8
 378 961 378 961 467.5 1008.5 c 128,-1,9
 557 1056 557 1056 677 1056 c 0,10,11
 765 1056 765 1056 839 1018.5 c 128,-1,12
 913 981 913 981 958.5 912.5 c 128,-1,13
 1004 844 1004 844 1004 749 c 0,14,15
 1004 593 1004 593 904 517 c 128,-1,16
 804 441 804 441 629 441 c 2,17,-1
 309 441 l 1,18,19
 309 272 309 272 374.5 192 c 128,-1,20
 440 112 440 112 577 112 c 0,21,22
 668 112 668 112 739.5 156 c 128,-1,23
 811 200 811 200 855 265 c 1,24,-1
 965 176 l 1,25,26
 890 72 890 72 793 26 c 128,-1,27
 696 -20 696 -20 568 -20 c 0,0,1
617 565 m 2,28,29
 681 565 681 565 734 586 c 128,-1,30
 787 607 787 607 818.5 648 c 128,-1,31
 850 689 850 689 850 749 c 0,32,33
 850 838 850 838 790.5 879.5 c 128,-1,34
 731 921 731 921 640 921 c 0,35,36
 541 921 541 921 467 868 c 128,-1,37
 393 815 393 815 352 734 c 128,-1,38
 311 653 311 653 309 565 c 1,39,-1
 617 565 l 2,28,29
EndSplineSet
EndChar

StartChar: uni0254
Encoding: 596 596 369
Width: 996
GlyphClass: 1
Flags: W
LayerCount: 2
Fore
SplineSet
467 -20 m 0,0,1
 323 -20 323 -20 220.5 52 c 128,-1,2
 118 124 118 124 64 248 c 1,3,-1
 212 311 l 1,4,5
 237 217 237 217 306 162 c 128,-1,6
 375 107 375 107 470 107 c 0,7,8
 571 107 571 107 636 168 c 0,9,10
 704 232 704 232 732 325 c 128,-1,11
 760 418 760 418 760 518 c 0,12,13
 760 685 760 685 695 798 c 0,14,15
 620 928 620 928 470 928 c 0,16,17
 375 928 375 928 306 873 c 128,-1,18
 237 818 237 818 212 724 c 1,19,-1
 77 783 l 1,20,21
 122 912 122 912 222.5 984 c 128,-1,22
 323 1056 323 1056 465 1056 c 0,23,24
 577 1056 577 1056 661 1013 c 128,-1,25
 745 970 745 970 801 895 c 128,-1,26
 857 820 857 820 885 723 c 128,-1,27
 913 626 913 626 913 518 c 0,28,29
 913 379 913 379 865 256 c 128,-1,30
 817 133 817 133 713 54 c 0,31,32
 612 -20 612 -20 467 -20 c 0,0,1
EndSplineSet
EndChar

StartChar: uni0258
Encoding: 600 600 370
Width: 1051
GlyphClass: 1
Flags: W
LayerCount: 2
Fore
SplineSet
503 -12 m 0,0,1
 377 -12 377 -12 283 26.5 c 128,-1,2
 189 65 189 65 112 145 c 1,3,-1
 213 234 l 1,4,5
 268 172 268 172 338 145 c 128,-1,6
 408 118 408 118 507 118 c 0,7,8
 647 118 647 118 727.5 214 c 128,-1,9
 808 310 808 310 811 470 c 1,10,-1
 92 470 l 1,11,-1
 89 504 l 1,12,13
 89 748 89 748 188.5 900 c 128,-1,14
 288 1052 288 1052 521 1052 c 0,15,16
 670 1052 670 1052 769.5 977.5 c 128,-1,17
 869 903 869 903 919 780.5 c 128,-1,18
 969 658 969 658 969 514 c 0,19,20
 969 411 969 411 941 316.5 c 128,-1,21
 913 222 913 222 855.5 148 c 128,-1,22
 798 74 798 74 710.5 31 c 128,-1,23
 623 -12 623 -12 503 -12 c 0,0,1
811 594 m 1,24,25
 808 682 808 682 776 755.5 c 128,-1,26
 744 829 744 829 681 874 c 128,-1,27
 618 919 618 919 522 919 c 0,28,29
 423 919 423 919 359 877 c 128,-1,30
 295 835 295 835 263 761.5 c 128,-1,31
 231 688 231 688 230 594 c 1,32,-1
 811 594 l 1,24,25
EndSplineSet
EndChar

StartChar: uni0259
Encoding: 601 601 371
Width: 1051
GlyphClass: 1
Flags: W
LayerCount: 2
Fore
SplineSet
521 -12 m 0,0,1
 288 -12 288 -12 188.5 140 c 128,-1,2
 89 292 89 292 89 535 c 0,3,4
 89 544 89 544 91 554 c 0,5,6
 92 563 92 563 92 569 c 1,7,-1
 811 569 l 1,8,9
 807 738 807 738 723 829.5 c 128,-1,10
 639 921 639 921 507 921 c 0,11,12
 407 921 407 921 337.5 894.5 c 128,-1,13
 268 868 268 868 213 807 c 1,14,-1
 112 894 l 1,15,16
 189 975 189 975 282.5 1013.5 c 128,-1,17
 376 1052 376 1052 503 1052 c 0,18,19
 658 1052 658 1052 761.5 980.5 c 128,-1,20
 865 909 865 909 917 789.5 c 128,-1,21
 969 670 969 670 969 526 c 0,22,23
 969 387 969 387 920.5 264 c 128,-1,24
 872 141 872 141 768 62 c 0,25,26
 666 -12 666 -12 521 -12 c 0,0,1
522 120 m 0,27,28
 616 120 616 120 679 163.5 c 128,-1,29
 742 207 742 207 775 280.5 c 128,-1,30
 808 354 808 354 811 445 c 1,31,-1
 230 445 l 1,32,33
 231 350 231 350 263 277 c 128,-1,34
 295 204 295 204 359 162 c 128,-1,35
 423 120 423 120 522 120 c 0,27,28
EndSplineSet
EndChar

StartChar: uni02D0
Encoding: 720 720 376
Width: 532
GlyphClass: 1
Flags: W
LayerCount: 2
Fore
SplineSet
285 637 m 1,0,-1
 55 999 l 1,1,-1
 457 1037 l 1,2,-1
 285 637 l 1,0,-1
75 -38 m 1,3,-1
 246 362 l 1,4,-1
 477 0 l 1,5,-1
 75 -38 l 1,3,-1
EndSplineSet
EndChar

StartChar: uni02D1
Encoding: 721 721 377
Width: 553
GlyphClass: 1
Flags: W
LayerCount: 2
Fore
SplineSet
297 265 m 1,0,-1
 66 628 l 1,1,-1
 469 666 l 1,2,-1
 297 265 l 1,0,-1
EndSplineSet
EndChar

StartChar: uni02F5
Encoding: 757 757 384
Width: 1285
GlyphClass: 1
Flags: W
LayerCount: 2
Fore
SplineSet
631 717 m 1,0,-1
 464 717 l 1,1,-1
 221 999 l 1,2,-1
 419 999 l 1,3,-1
 631 717 l 1,0,-1
1058 717 m 1,4,-1
 892 717 l 1,5,-1
 648 999 l 1,6,-1
 846 999 l 1,7,-1
 1058 717 l 1,4,-1
EndSplineSet
EndChar

StartChar: uni02F6
Encoding: 758 758 385
Width: 1285
GlyphClass: 1
Flags: W
LayerCount: 2
Fore
SplineSet
393 717 m 1,0,-1
 226 717 l 1,1,-1
 440 999 l 1,2,-1
 636 999 l 1,3,-1
 393 717 l 1,0,-1
820 717 m 1,4,-1
 654 717 l 1,5,-1
 868 999 l 1,6,-1
 1064 999 l 1,7,-1
 820 717 l 1,4,-1
EndSplineSet
EndChar

StartChar: gravecomb
Encoding: 768 768 386
Width: 0
VWidth: 2040
GlyphClass: 4
Flags: W
AnchorPoint: "Anchor-1" -145 1039 mark 0
LayerCount: 2
Fore
SplineSet
-67 1162 m 1,0,-1
 -219 1162 l 1,1,-1
 -477 1453 l 1,2,-1
 -285 1453 l 1,3,-1
 -67 1162 l 1,0,-1
EndSplineSet
EndChar

StartChar: acutecomb
Encoding: 769 769 387
Width: 0
VWidth: 2040
GlyphClass: 4
Flags: W
AnchorPoint: "Anchor-1" -342 1039 mark 0
LayerCount: 2
Fore
SplineSet
-333 1164 m 5,0,-1
 -466 1164 l 1,1,-1
 -249 1453 l 1,2,-1
 -56 1453 l 1,3,-1
 -333 1164 l 5,0,-1
EndSplineSet
EndChar

StartChar: uni0302
Encoding: 770 770 388
Width: 0
VWidth: 2040
GlyphClass: 4
Flags: W
AnchorPoint: "Anchor-1" -325 1065 mark 0
LayerCount: 2
Fore
SplineSet
-46 1164 m 1,0,-1
 -207 1164 l 1,1,-1
 -375 1350 l 1,2,-1
 -542 1164 l 1,3,-1
 -704 1164 l 1,4,-1
 -375 1519 l 1,5,-1
 -46 1164 l 1,0,-1
EndSplineSet
EndChar

StartChar: tildecomb
Encoding: 771 771 389
Width: 0
VWidth: 2040
GlyphClass: 4
Flags: W
AnchorPoint: "Anchor-1" -436 1060 mark 0
LayerCount: 2
Fore
SplineSet
-307 1189 m 0,0,1
 -355 1189 -355 1189 -391.5 1212.5 c 128,-1,2
 -428 1236 -428 1236 -469 1283 c 0,3,4
 -499 1316 -499 1316 -519.5 1331 c 128,-1,5
 -540 1346 -540 1346 -562 1346 c 0,6,7
 -600 1346 -600 1346 -615.5 1307 c 128,-1,8
 -631 1268 -631 1268 -631 1209 c 1,9,-1
 -731 1209 l 1,10,11
 -731 1318 -731 1318 -689 1388.5 c 128,-1,12
 -647 1459 -647 1459 -562 1459 c 0,13,14
 -506 1459 -506 1459 -468 1433 c 128,-1,15
 -430 1407 -430 1407 -393 1362 c 0,16,17
 -366 1330 -366 1330 -346.5 1315 c 128,-1,18
 -327 1300 -327 1300 -305 1300 c 0,19,20
 -234 1300 -234 1300 -234 1453 c 1,21,-1
 -128 1453 l 1,22,23
 -128 1322 -128 1322 -175.5 1255.5 c 128,-1,24
 -223 1189 -223 1189 -307 1189 c 0,0,1
EndSplineSet
EndChar

StartChar: uni0304
Encoding: 772 772 390
Width: 0
VWidth: 2040
GlyphClass: 4
Flags: W
AnchorPoint: "Anchor-1" -418 1039 mark 0
LayerCount: 2
Fore
SplineSet
-160 1223 m 1,0,-1
 -701 1223 l 1,1,-1
 -701 1348 l 1,2,-1
 -160 1348 l 1,3,-1
 -160 1223 l 1,0,-1
EndSplineSet
EndChar

StartChar: uni0306
Encoding: 774 774 391
Width: 0
VWidth: 2040
GlyphClass: 4
Flags: W
AnchorPoint: "Anchor-1" -405 1039 mark 0
LayerCount: 2
Fore
SplineSet
-416 1183 m 0,0,1
 -503 1183 -503 1183 -572.5 1213 c 128,-1,2
 -642 1243 -642 1243 -682.5 1303 c 128,-1,3
 -723 1363 -723 1363 -723 1453 c 1,4,-1
 -587 1453 l 1,5,6
 -587 1381 -587 1381 -536 1339 c 128,-1,7
 -485 1297 -485 1297 -416 1297 c 0,8,9
 -346 1297 -346 1297 -296 1339.5 c 128,-1,10
 -246 1382 -246 1382 -246 1453 c 1,11,-1
 -110 1453 l 1,12,13
 -110 1364 -110 1364 -149.5 1304 c 128,-1,14
 -189 1244 -189 1244 -258 1213.5 c 128,-1,15
 -327 1183 -327 1183 -416 1183 c 0,0,1
EndSplineSet
EndChar

StartChar: uni0307
Encoding: 775 775 392
Width: 0
VWidth: 2040
GlyphClass: 4
Flags: W
AnchorPoint: "Anchor-1" -269 1039 mark 0
LayerCount: 2
Fore
SplineSet
-164 1261 m 1,0,-1
 -337 1261 l 1,1,-1
 -337 1453 l 1,2,-1
 -164 1453 l 1,3,-1
 -164 1261 l 1,0,-1
EndSplineSet
EndChar

StartChar: uni0308
Encoding: 776 776 393
Width: 0
VWidth: 2040
GlyphClass: 4
Flags: W
AnchorPoint: "Anchor-1" -420 1039 mark 0
LayerCount: 2
Fore
SplineSet
-501 1261 m 1,0,-1
 -670 1261 l 1,1,-1
 -670 1453 l 1,2,-1
 -501 1453 l 1,3,-1
 -501 1261 l 1,0,-1
-165 1261 m 1,4,-1
 -333 1261 l 1,5,-1
 -333 1453 l 1,6,-1
 -165 1453 l 1,7,-1
 -165 1261 l 1,4,-1
EndSplineSet
EndChar

StartChar: hookabovecomb
Encoding: 777 777 394
Width: 0
VWidth: 2040
GlyphClass: 4
Flags: W
AnchorPoint: "Anchor-1" -300 1026 mark 0
LayerCount: 2
Fore
SplineSet
-349 1083 m 1,0,-1
 -369 1154 l 1,1,2
 -306 1166 -306 1166 -284 1173 c 0,3,4
 -218 1195 -218 1195 -218 1263 c 0,5,6
 -218 1354 -218 1354 -339 1369 c 0,7,8
 -376 1373 -376 1373 -433 1373 c 1,9,-1
 -433 1476 l 1,10,11
 -373 1476 -373 1476 -331.5 1472 c 128,-1,12
 -290 1468 -290 1468 -245 1453 c 0,13,14
 -179 1430 -179 1430 -139.5 1385.5 c 128,-1,15
 -100 1341 -100 1341 -100 1274 c 0,16,17
 -100 1154 -100 1154 -219 1114 c 0,18,19
 -267 1098 -267 1098 -349 1083 c 1,0,-1
EndSplineSet
EndChar

StartChar: uni030A
Encoding: 778 778 395
Width: 0
VWidth: 2040
GlyphClass: 4
Flags: W
AnchorPoint: "Anchor-1" -316 1039 mark 0
LayerCount: 2
Fore
SplineSet
-317 1119 m 0,0,1
 -408 1119 -408 1119 -464 1180.5 c 128,-1,2
 -520 1242 -520 1242 -520 1322 c 0,3,4
 -520 1411 -520 1411 -459.5 1468.5 c 128,-1,5
 -399 1526 -399 1526 -317 1526 c 256,6,7
 -235 1526 -235 1526 -174 1467.5 c 128,-1,8
 -113 1409 -113 1409 -113 1322 c 256,9,10
 -113 1235 -113 1235 -174 1177 c 128,-1,11
 -235 1119 -235 1119 -317 1119 c 0,0,1
-317 1222 m 256,12,13
 -275 1222 -275 1222 -246 1250.5 c 128,-1,14
 -217 1279 -217 1279 -217 1323 c 0,15,16
 -217 1364 -217 1364 -244.5 1392.5 c 128,-1,17
 -272 1421 -272 1421 -317 1421 c 0,18,19
 -361 1421 -361 1421 -388 1394 c 128,-1,20
 -415 1367 -415 1367 -415 1323 c 0,21,22
 -415 1278 -415 1278 -387 1250 c 128,-1,23
 -359 1222 -359 1222 -317 1222 c 256,12,13
EndSplineSet
EndChar

StartChar: uni030B
Encoding: 779 779 396
Width: 0
VWidth: 2040
GlyphClass: 4
Flags: W
AnchorPoint: "Anchor-1" -547 1039 mark 0
LayerCount: 2
Fore
SplineSet
-663 1159 m 1,0,-1
 -797 1159 l 1,1,-1
 -580 1453 l 1,2,-1
 -392 1453 l 1,3,-1
 -663 1159 l 1,0,-1
-333 1159 m 1,4,-1
 -467 1159 l 1,5,-1
 -250 1453 l 1,6,-1
 -57 1453 l 1,7,-1
 -333 1159 l 1,4,-1
EndSplineSet
EndChar

StartChar: uni030C
Encoding: 780 780 397
Width: 0
VWidth: 2040
GlyphClass: 4
Flags: W
AnchorPoint: "Anchor-1" -327 1039 mark 0
LayerCount: 2
Fore
SplineSet
-375 1121 m 1,0,-1
 -704 1453 l 1,1,-1
 -542 1453 l 1,2,-1
 -375 1272 l 1,3,-1
 -207 1453 l 1,4,-1
 -46 1453 l 1,5,-1
 -375 1121 l 1,0,-1
EndSplineSet
EndChar

StartChar: uni030F
Encoding: 783 783 398
Width: 0
VWidth: 2040
GlyphClass: 4
Flags: W
AnchorPoint: "Anchor-1" -342 1039 mark 0
LayerCount: 2
Fore
SplineSet
-400 1159 m 1,0,-1
 -570 1159 l 1,1,-1
 -828 1453 l 1,2,-1
 -617 1453 l 1,3,-1
 -400 1159 l 1,0,-1
-67 1159 m 1,4,-1
 -239 1159 l 1,5,-1
 -495 1453 l 1,6,-1
 -284 1453 l 1,7,-1
 -67 1159 l 1,4,-1
EndSplineSet
EndChar

StartChar: uni0312
Encoding: 786 786 399
Width: 0
VWidth: 2040
GlyphClass: 4
Flags: W
AnchorPoint: "Anchor-1" -291 1039 mark 0
LayerCount: 2
Fore
SplineSet
-231 1163 m 1,0,-1
 -443 1163 l 1,1,-1
 -215 1463 l 1,2,-1
 -108 1463 l 1,3,-1
 -231 1163 l 1,0,-1
EndSplineSet
EndChar

StartChar: uni031B
Encoding: 795 795 400
Width: 0
GlyphClass: 1
Flags: W
LayerCount: 2
Fore
SplineSet
-400 992 m 1,0,-1
 -400 1100 l 1,1,2
 -314 1100 -314 1100 -271.5 1150 c 128,-1,3
 -229 1200 -229 1200 -229 1311 c 2,4,-1
 -229 1394 l 1,5,-1
 -115 1394 l 1,6,-1
 -115 1302 l 2,7,8
 -115 1211 -115 1211 -144 1141 c 128,-1,9
 -173 1071 -173 1071 -236 1031.5 c 128,-1,10
 -299 992 -299 992 -400 992 c 1,0,-1
EndSplineSet
EndChar

StartChar: dotbelowcomb
Encoding: 803 803 401
Width: 0
GlyphClass: 4
Flags: W
AnchorPoint: "Anchor-1" -269 -561 mark 0
LayerCount: 2
Fore
SplineSet
-164 -349 m 1,0,-1
 -337 -349 l 1,1,-1
 -337 -157 l 1,2,-1
 -164 -157 l 1,3,-1
 -164 -349 l 1,0,-1
EndSplineSet
EndChar

StartChar: uni0326
Encoding: 806 806 402
Width: 0
GlyphClass: 4
Flags: W
AnchorPoint: "Anchor-3" -244 -459 basemark 0
AnchorPoint: "Anchor-3" -177 0 mark 0
AnchorPoint: "Anchor-0" -177 0 mark 0
LayerCount: 2
Fore
SplineSet
-292 -446 m 1,0,-1
 -399 -446 l 1,1,-1
 -276 -111 l 1,2,-1
 -64 -111 l 1,3,-1
 -292 -446 l 1,0,-1
EndSplineSet
EndChar

StartChar: uni0327
Encoding: 807 807 403
Width: 0
GlyphClass: 4
Flags: W
AnchorPoint: "Anchor-3" -285 -500 basemark 0
AnchorPoint: "Anchor-3" -262 0 mark 0
AnchorPoint: "Anchor-0" -262 0 mark 0
LayerCount: 2
Fore
SplineSet
-312 -504 m 0,0,1
 -377 -504 -377 -504 -425 -468 c 128,-1,2
 -473 -432 -473 -432 -494 -380 c 1,3,-1
 -395 -329 l 1,4,5
 -389 -358 -389 -358 -365 -379.5 c 128,-1,6
 -341 -401 -341 -401 -306 -401 c 0,7,8
 -260 -401 -260 -401 -234 -372 c 128,-1,9
 -208 -343 -208 -343 -208 -305 c 0,10,11
 -208 -273 -208 -273 -228 -244.5 c 128,-1,12
 -248 -216 -248 -216 -289 -198 c 128,-1,13
 -330 -180 -330 -180 -394 -180 c 2,14,-1
 -436 -180 l 1,15,-1
 -337 0 l 1,16,-1
 -218 0 l 1,17,-1
 -286 -117 l 1,18,19
 -192 -123 -192 -123 -146 -174.5 c 128,-1,20
 -100 -226 -100 -226 -100 -297 c 0,21,22
 -100 -347 -100 -347 -124.5 -394.5 c 128,-1,23
 -149 -442 -149 -442 -196.5 -473 c 128,-1,24
 -244 -504 -244 -504 -312 -504 c 0,0,1
EndSplineSet
EndChar

StartChar: uni0328
Encoding: 808 808 404
Width: 0
GlyphClass: 4
Flags: W
AnchorPoint: "Anchor-2" -169 0 mark 0
LayerCount: 2
Fore
SplineSet
-278 -451 m 0,0,1
 -365 -451 -365 -451 -424.5 -396 c 128,-1,2
 -484 -341 -484 -341 -484 -246 c 0,3,4
 -484 -177 -484 -177 -446 -124.5 c 128,-1,5
 -408 -72 -408 -72 -360.5 -42 c 128,-1,6
 -313 -12 -313 -12 -271 0 c 1,7,-1
 -147 0 l 1,8,9
 -171 -8 -171 -8 -222.5 -34.5 c 128,-1,10
 -274 -61 -274 -61 -324 -111.5 c 128,-1,11
 -374 -162 -374 -162 -374 -229 c 0,12,13
 -374 -282 -374 -282 -348.5 -309.5 c 128,-1,14
 -323 -337 -323 -337 -287 -337 c 0,15,16
 -209 -337 -209 -337 -165 -273 c 1,17,-1
 -72 -338 l 1,18,19
 -111 -394 -111 -394 -160.5 -422.5 c 128,-1,20
 -210 -451 -210 -451 -278 -451 c 0,0,1
EndSplineSet
EndChar

StartChar: pi
Encoding: 960 960 405
Width: 1010
GlyphClass: 1
Flags: W
LayerCount: 2
Fore
SplineSet
850 -20 m 0,0,1
 785 -20 785 -20 737.5 14.5 c 128,-1,2
 690 49 690 49 664.5 104 c 128,-1,3
 639 159 639 159 639 221 c 2,4,-1
 639 889 l 1,5,-1
 346 889 l 1,6,-1
 346 0 l 1,7,-1
 196 0 l 1,8,-1
 196 889 l 1,9,-1
 110 889 l 1,10,-1
 110 1039 l 1,11,-1
 874 1039 l 1,12,-1
 874 889 l 1,13,-1
 789 889 l 1,14,-1
 789 222 l 2,15,16
 789 163 789 163 810.5 134.5 c 128,-1,17
 832 106 832 106 865 106 c 0,18,19
 893 106 893 106 921 124 c 1,20,-1
 962 11 l 1,21,22
 909 -20 909 -20 850 -20 c 0,0,1
EndSplineSet
EndChar

StartChar: uni0402
Encoding: 1026 1026 408
Width: 1631
GlyphClass: 1
Flags: W
LayerCount: 2
Fore
SplineSet
1140 -17 m 0,0,1
 1042 -17 1042 -17 959 14.5 c 128,-1,2
 876 46 876 46 819 110 c 1,3,-1
 922 215 l 1,4,5
 995 127 995 127 1135 127 c 0,6,7
 1237 127 1237 127 1301.5 221 c 128,-1,8
 1366 315 1366 315 1366 455 c 0,9,10
 1366 597 1366 597 1333 681.5 c 128,-1,11
 1300 766 1300 766 1231 807 c 0,12,13
 1157 851 1157 851 1030 851 c 0,14,15
 922 851 922 851 834.5 809.5 c 128,-1,16
 747 768 747 768 697 704 c 1,17,-1
 697 0 l 1,18,-1
 538 0 l 1,19,-1
 538 1284 l 1,20,-1
 60 1284 l 1,21,-1
 60 1413 l 1,22,-1
 1174 1413 l 1,23,-1
 1174 1284 l 1,24,-1
 697 1284 l 1,25,-1
 697 876 l 1,26,27
 842 1001 842 1001 1030 1001 c 0,28,29
 1525 1001 1525 1001 1525 460 c 0,30,31
 1525 328 1525 328 1477 220 c 128,-1,32
 1429 112 1429 112 1342.5 47.5 c 128,-1,33
 1256 -17 1256 -17 1140 -17 c 0,0,1
EndSplineSet
Position2: "'cpsp' Capital Spacing lookup 0 subtable" dx=5 dy=0 dh=10 dv=0
EndChar

StartChar: uni0404
Encoding: 1028 1028 410
Width: 1420
GlyphClass: 1
Flags: W
LayerCount: 2
Fore
SplineSet
759 -20 m 0,0,1
 551 -20 551 -20 408 77 c 0,2,3
 259 181 259 181 192 347 c 128,-1,4
 125 513 125 513 125 707 c 256,5,6
 125 901 125 901 192 1068 c 128,-1,7
 259 1235 259 1235 407 1339 c 0,8,9
 549 1436 549 1436 757 1436 c 0,10,11
 946 1436 946 1436 1096 1344 c 128,-1,12
 1246 1252 1246 1252 1332 1060 c 1,13,-1
 1186 1000 l 1,14,15
 1143 1149 1143 1149 1028.5 1219 c 128,-1,16
 914 1289 914 1289 755 1289 c 0,17,18
 603 1289 603 1289 501.5 1220.5 c 128,-1,19
 400 1152 400 1152 346 1035 c 128,-1,20
 292 918 292 918 283 771 c 1,21,-1
 914 771 l 1,22,-1
 914 654 l 1,23,-1
 283 654 l 1,24,25
 291 504 291 504 344 385.5 c 128,-1,26
 397 267 397 267 499.5 196.5 c 128,-1,27
 602 126 602 126 759 126 c 0,28,29
 1077 126 1077 126 1187 418 c 1,30,-1
 1334 358 l 1,31,32
 1249 165 1249 165 1099 72.5 c 128,-1,33
 949 -20 949 -20 759 -20 c 0,0,1
EndSplineSet
Position2: "'cpsp' Capital Spacing lookup 0 subtable" dx=5 dy=0 dh=10 dv=0
EndChar

StartChar: uni0406
Encoding: 1030 1030 412
Width: 582
GlyphClass: 1
Flags: W
LayerCount: 2
Fore
SplineSet
371 0 m 1,0,-1
 212 0 l 1,1,-1
 212 1413 l 1,2,-1
 371 1413 l 1,3,-1
 371 0 l 1,0,-1
EndSplineSet
Position2: "'cpsp' Capital Spacing lookup 0 subtable" dx=5 dy=0 dh=10 dv=0
EndChar

StartChar: uni0409
Encoding: 1033 1033 415
Width: 2019
GlyphClass: 1
Flags: W
LayerCount: 2
Fore
SplineSet
224 -20 m 0,0,1
 184 -20 184 -20 138 -9.5 c 128,-1,2
 92 1 92 1 55 23 c 1,3,-1
 118 168 l 1,4,5
 154 155 154 155 177 149.5 c 128,-1,6
 200 144 200 144 224 144 c 0,7,8
 288 144 288 144 327 262 c 0,9,10
 395 480 395 480 395 881 c 2,11,-1
 395 1413 l 1,12,-1
 1240 1413 l 1,13,-1
 1240 776 l 1,14,-1
 1479 776 l 2,15,16
 1689 776 1689 776 1809.5 674.5 c 128,-1,17
 1930 573 1930 573 1930 391 c 0,18,19
 1930 265 1930 265 1873 178 c 128,-1,20
 1816 91 1816 91 1714 45.5 c 128,-1,21
 1612 0 1612 0 1479 0 c 2,22,-1
 1083 0 l 1,23,-1
 1083 1278 l 1,24,-1
 552 1278 l 1,25,-1
 552 882 l 2,26,27
 552 653 552 653 534.5 466.5 c 128,-1,28
 517 280 517 280 444.5 130 c 128,-1,29
 372 -20 372 -20 224 -20 c 0,0,1
1479 141 m 2,30,31
 1622 141 1622 141 1699 207 c 128,-1,32
 1776 273 1776 273 1776 391 c 0,33,34
 1776 516 1776 516 1695.5 575.5 c 128,-1,35
 1615 635 1615 635 1479 635 c 2,36,-1
 1240 635 l 1,37,-1
 1240 141 l 1,38,-1
 1479 141 l 2,30,31
EndSplineSet
Position2: "'cpsp' Capital Spacing lookup 0 subtable" dx=5 dy=0 dh=10 dv=0
EndChar

StartChar: uni040A
Encoding: 1034 1034 416
Width: 2022
GlyphClass: 1
Flags: W
LayerCount: 2
Fore
SplineSet
1482 0 m 2,0,-1
 1084 0 l 1,1,-1
 1084 639 l 1,2,-1
 369 639 l 1,3,-1
 369 0 l 1,4,-1
 212 0 l 1,5,-1
 212 1413 l 1,6,-1
 369 1413 l 1,7,-1
 369 774 l 1,8,-1
 1084 774 l 1,9,-1
 1084 1413 l 1,10,-1
 1243 1413 l 1,11,-1
 1243 776 l 1,12,-1
 1482 776 l 2,13,14
 1692 776 1692 776 1812.5 674.5 c 128,-1,15
 1933 573 1933 573 1933 391 c 0,16,17
 1933 265 1933 265 1876 178 c 128,-1,18
 1819 91 1819 91 1717 45.5 c 128,-1,19
 1615 0 1615 0 1482 0 c 2,0,-1
1482 141 m 2,20,21
 1621 141 1621 141 1699.5 206 c 128,-1,22
 1778 271 1778 271 1778 391 c 0,23,24
 1778 516 1778 516 1697.5 575.5 c 128,-1,25
 1617 635 1617 635 1482 635 c 2,26,-1
 1243 635 l 1,27,-1
 1243 141 l 1,28,-1
 1482 141 l 2,20,21
EndSplineSet
Position2: "'cpsp' Capital Spacing lookup 0 subtable" dx=5 dy=0 dh=10 dv=0
EndChar

StartChar: uni040B
Encoding: 1035 1035 417
Width: 1652
GlyphClass: 1
Flags: W
LayerCount: 2
Fore
SplineSet
1525 0 m 1,0,-1
 1366 0 l 1,1,-1
 1366 401 l 2,2,3
 1366 615 1366 615 1290 733 c 128,-1,4
 1214 851 1214 851 1030 851 c 0,5,6
 922 851 922 851 834.5 809.5 c 128,-1,7
 747 768 747 768 697 704 c 1,8,-1
 697 0 l 1,9,-1
 538 0 l 1,10,-1
 538 1284 l 1,11,-1
 60 1284 l 1,12,-1
 60 1413 l 1,13,-1
 1174 1413 l 1,14,-1
 1174 1284 l 1,15,-1
 697 1284 l 1,16,-1
 697 876 l 1,17,18
 819 1001 819 1001 1030 1001 c 0,19,20
 1282 1001 1282 1001 1403.5 837.5 c 128,-1,21
 1525 674 1525 674 1525 396 c 2,22,-1
 1525 0 l 1,0,-1
EndSplineSet
Position2: "'cpsp' Capital Spacing lookup 0 subtable" dx=5 dy=0 dh=10 dv=0
EndChar

StartChar: uni040F
Encoding: 1039 1039 421
Width: 1453
GlyphClass: 1
Flags: W
LayerCount: 2
Fore
SplineSet
805 -307 m 1,0,-1
 648 -307 l 1,1,-1
 648 0 l 1,2,-1
 212 0 l 1,3,-1
 212 1413 l 1,4,-1
 369 1413 l 1,5,-1
 369 137 l 1,6,-1
 1084 137 l 1,7,-1
 1084 1413 l 1,8,-1
 1241 1413 l 1,9,-1
 1241 0 l 1,10,-1
 805 0 l 1,11,-1
 805 -307 l 1,0,-1
EndSplineSet
Position2: "'cpsp' Capital Spacing lookup 0 subtable" dx=5 dy=0 dh=10 dv=0
EndChar

StartChar: uni0410
Encoding: 1040 1040 422
Width: 1304
GlyphClass: 1
Flags: W
LayerCount: 2
Fore
SplineSet
1241 0 m 1,0,-1
 1072 0 l 1,1,-1
 961 307 l 1,2,-1
 345 307 l 1,3,-1
 235 0 l 1,4,-1
 63 0 l 1,5,-1
 592 1413 l 1,6,-1
 714 1413 l 1,7,-1
 1241 0 l 1,0,-1
911 452 m 1,8,-1
 654 1181 l 1,9,-1
 395 452 l 1,10,-1
 911 452 l 1,8,-1
EndSplineSet
Position2: "'cpsp' Capital Spacing lookup 0 subtable" dx=5 dy=0 dh=10 dv=0
EndChar

StartChar: uni0411
Encoding: 1041 1041 423
Width: 1244
GlyphClass: 1
Flags: W
LayerCount: 2
Fore
SplineSet
676 0 m 2,0,-1
 212 0 l 1,1,-1
 212 1413 l 1,2,-1
 958 1413 l 1,3,-1
 958 1270 l 1,4,-1
 369 1270 l 1,5,-1
 369 793 l 1,6,-1
 701 793 l 2,7,8
 898 793 898 793 1012.5 689.5 c 128,-1,9
 1127 586 1127 586 1127 388 c 0,10,11
 1127 265 1127 265 1068.5 178 c 128,-1,12
 1010 91 1010 91 908 45.5 c 128,-1,13
 806 0 806 0 676 0 c 2,0,-1
680 147 m 2,14,15
 757 147 757 147 822 178.5 c 128,-1,16
 887 210 887 210 927 267 c 128,-1,17
 967 324 967 324 967 401 c 0,18,19
 967 481 967 481 927 536 c 128,-1,20
 887 591 887 591 822 619.5 c 128,-1,21
 757 648 757 648 683 648 c 2,22,-1
 369 648 l 1,23,-1
 369 147 l 1,24,-1
 680 147 l 2,14,15
EndSplineSet
Position2: "'cpsp' Capital Spacing lookup 0 subtable" dx=5 dy=0 dh=10 dv=0
EndChar

StartChar: uni0413
Encoding: 1043 1043 425
Width: 1068
GlyphClass: 1
Flags: W
LayerCount: 2
Fore
SplineSet
369 0 m 1,0,-1
 212 0 l 1,1,-1
 212 1413 l 1,2,-1
 1008 1413 l 1,3,-1
 1008 1278 l 1,4,-1
 369 1278 l 1,5,-1
 369 0 l 1,0,-1
EndSplineSet
Position2: "'cpsp' Capital Spacing lookup 0 subtable" dx=5 dy=0 dh=10 dv=0
EndChar

StartChar: uni0414
Encoding: 1044 1044 426
Width: 1448
GlyphClass: 2
Flags: W
LayerCount: 2
Fore
SplineSet
1336 -307 m 1,0,-1
 1180 -307 l 1,1,-1
 1180 0 l 1,2,-1
 219 0 l 1,3,-1
 219 -307 l 1,4,-1
 61 -307 l 1,5,-1
 61 127 l 1,6,-1
 196 127 l 1,7,8
 290 303 290 303 331.5 479.5 c 128,-1,9
 373 656 373 656 373 918 c 2,10,-1
 373 1413 l 1,11,-1
 1215 1413 l 1,12,-1
 1215 127 l 1,13,-1
 1336 127 l 1,14,-1
 1336 -307 l 1,0,-1
1058 127 m 1,15,-1
 1058 1278 l 1,16,-1
 530 1278 l 1,17,-1
 530 918 l 2,18,19
 530 659 530 659 490 484.5 c 128,-1,20
 450 310 450 310 355 127 c 1,21,-1
 1058 127 l 1,15,-1
EndSplineSet
Substitution2: "'ss02' Style Set 2 lookup 18 subtable" uni0414.1
Substitution2: "'ss03' Style Set 3 lookup 17 subtable" uni0431.loclSRB
Substitution2: "'locl' Localized Forms in Cyrillic lookup 10 subtable" uni0414.1
Substitution2: "'locl' Localized Forms in Cyrillic lookup 9 subtable" uni0414.loclSRB
Substitution2: "'locl' Localized Forms in Cyrillic lookup 8 subtable" uni0431.loclSRB
Position2: "'cpsp' Capital Spacing lookup 0 subtable" dx=5 dy=0 dh=10 dv=0
EndChar

StartChar: uni0416
Encoding: 1046 1046 428
Width: 1954
GlyphClass: 1
Flags: W
LayerCount: 2
Fore
SplineSet
1882 0 m 1,0,-1
 1692 0 l 1,1,-1
 1492 563 l 2,2,3
 1472 620 1472 620 1422.5 662.5 c 128,-1,4
 1373 705 1373 705 1300 705 c 2,5,-1
 1056 705 l 1,6,-1
 1056 0 l 1,7,-1
 898 0 l 1,8,-1
 898 705 l 1,9,-1
 653 705 l 2,10,11
 579 705 579 705 531 664 c 128,-1,12
 483 623 483 623 463 563 c 2,13,-1
 261 0 l 1,14,-1
 72 0 l 1,15,-1
 315 643 l 2,16,17
 328 678 328 678 361.5 718 c 128,-1,18
 395 758 395 758 445.5 787 c 128,-1,19
 496 816 496 816 559 816 c 1,20,-1
 149 1413 l 1,21,-1
 348 1413 l 1,22,-1
 731 839 l 1,23,-1
 898 839 l 1,24,-1
 898 1413 l 1,25,-1
 1056 1413 l 1,26,-1
 1056 839 l 1,27,-1
 1223 839 l 1,28,-1
 1604 1413 l 1,29,-1
 1805 1413 l 1,30,-1
 1395 816 l 1,31,32
 1456 816 1456 816 1507 786.5 c 128,-1,33
 1558 757 1558 757 1592 717.5 c 128,-1,34
 1626 678 1626 678 1639 643 c 2,35,-1
 1882 0 l 1,0,-1
EndSplineSet
Position2: "'cpsp' Capital Spacing lookup 0 subtable" dx=5 dy=0 dh=10 dv=0
EndChar

StartChar: uni0417
Encoding: 1047 1047 429
Width: 1112
GlyphClass: 1
Flags: W
LayerCount: 2
Fore
SplineSet
519 -20 m 0,0,1
 377 -20 377 -20 260 35.5 c 128,-1,2
 143 91 143 91 84 209 c 1,3,-1
 215 295 l 1,4,5
 253 202 253 202 336 157 c 128,-1,6
 419 112 419 112 519 112 c 0,7,8
 601 112 601 112 674 144 c 128,-1,9
 747 176 747 176 793 240.5 c 128,-1,10
 839 305 839 305 839 403 c 0,11,12
 839 495 839 495 795 556.5 c 128,-1,13
 751 618 751 618 678.5 649 c 128,-1,14
 606 680 606 680 519 680 c 2,15,-1
 352 680 l 1,16,-1
 351 820 l 1,17,-1
 525 820 l 2,18,19
 593 820 593 820 650.5 846 c 128,-1,20
 708 872 708 872 742.5 923.5 c 128,-1,21
 777 975 777 975 777 1051 c 0,22,23
 777 1130 777 1130 743 1185 c 128,-1,24
 709 1240 709 1240 651 1268.5 c 128,-1,25
 593 1297 593 1297 523 1297 c 0,26,27
 462 1297 462 1297 404.5 1272 c 128,-1,28
 347 1247 347 1247 309.5 1197 c 128,-1,29
 272 1147 272 1147 272 1074 c 1,30,-1
 118 1074 l 1,31,32
 124 1247 124 1247 241.5 1340.5 c 128,-1,33
 359 1434 359 1434 521 1434 c 0,34,35
 627 1434 627 1434 718.5 1392 c 128,-1,36
 810 1350 810 1350 866 1269 c 128,-1,37
 922 1188 922 1188 922 1070 c 0,38,39
 922 974 922 974 877.5 893 c 128,-1,40
 833 812 833 812 743 762 c 1,41,42
 857 717 857 717 925.5 622.5 c 128,-1,43
 994 528 994 528 994 390 c 256,44,45
 994 252 994 252 929.5 161 c 128,-1,46
 865 70 865 70 757 25 c 128,-1,47
 649 -20 649 -20 519 -20 c 0,0,1
EndSplineSet
Position2: "'cpsp' Capital Spacing lookup 0 subtable" dx=5 dy=0 dh=10 dv=0
EndChar

StartChar: uni0418
Encoding: 1048 1048 430
Width: 1418
GlyphClass: 1
Flags: W
LayerCount: 2
Fore
SplineSet
1206 0 m 1,0,-1
 1048 0 l 1,1,-1
 1048 1247 l 1,2,-1
 444 0 l 1,3,-1
 212 0 l 1,4,-1
 212 1413 l 1,5,-1
 369 1413 l 1,6,-1
 369 168 l 1,7,-1
 977 1413 l 1,8,-1
 1206 1413 l 1,9,-1
 1206 0 l 1,0,-1
EndSplineSet
Position2: "'cpsp' Capital Spacing lookup 0 subtable" dx=5 dy=0 dh=10 dv=0
EndChar

StartChar: uni041A
Encoding: 1050 1050 432
Width: 1266
GlyphClass: 1
Flags: W
LayerCount: 2
Fore
SplineSet
1195 0 m 1,0,-1
 1006 0 l 1,1,-1
 804 563 l 2,2,3
 795 591 795 591 769 623.5 c 128,-1,4
 743 656 743 656 703 680.5 c 128,-1,5
 663 705 663 705 614 705 c 2,6,-1
 369 705 l 1,7,-1
 369 0 l 1,8,-1
 212 0 l 1,9,-1
 212 1413 l 1,10,-1
 369 1413 l 1,11,-1
 369 839 l 1,12,-1
 537 839 l 1,13,-1
 918 1413 l 1,14,-1
 1119 1413 l 1,15,-1
 708 816 l 1,16,17
 769 816 769 816 820 786.5 c 128,-1,18
 871 757 871 757 905.5 717.5 c 128,-1,19
 940 678 940 678 953 643 c 2,20,-1
 1195 0 l 1,0,-1
EndSplineSet
Position2: "'cpsp' Capital Spacing lookup 0 subtable" dx=5 dy=0 dh=10 dv=0
EndChar

StartChar: uni041B
Encoding: 1051 1051 433
Width: 1458
GlyphClass: 2
Flags: W
LayerCount: 2
Fore
SplineSet
231 -20 m 0,0,1
 191 -20 191 -20 145.5 -9 c 128,-1,2
 100 2 100 2 63 23 c 1,3,-1
 126 171 l 1,4,5
 173 139 173 139 214 139 c 0,6,7
 301 139 301 139 342.5 280 c 128,-1,8
 384 421 384 421 393.5 615.5 c 128,-1,9
 403 810 403 810 403 1108 c 2,10,-1
 403 1413 l 1,11,-1
 1246 1413 l 1,12,-1
 1246 0 l 1,13,-1
 1091 0 l 1,14,-1
 1091 1278 l 1,15,-1
 560 1278 l 1,16,-1
 560 1096 l 2,17,18
 560 745 560 745 543.5 522 c 128,-1,19
 527 299 527 299 455 139.5 c 128,-1,20
 383 -20 383 -20 231 -20 c 0,0,1
EndSplineSet
Substitution2: "'ss02' Style Set 2 lookup 18 subtable" uni041B.1
Substitution2: "'ss03' Style Set 3 lookup 17 subtable" uni0414.loclSRB
Substitution2: "'locl' Localized Forms in Cyrillic lookup 10 subtable" uni041B.1
Substitution2: "'locl' Localized Forms in Cyrillic lookup 9 subtable" uni041B.loclSRB
Substitution2: "'locl' Localized Forms in Cyrillic lookup 8 subtable" uni0414.loclSRB
Position2: "'cpsp' Capital Spacing lookup 0 subtable" dx=5 dy=0 dh=10 dv=0
EndChar

StartChar: uni041F
Encoding: 1055 1055 437
Width: 1453
GlyphClass: 1
Flags: W
LayerCount: 2
Fore
SplineSet
1241 0 m 1,0,-1
 1084 0 l 1,1,-1
 1084 1278 l 1,2,-1
 369 1278 l 1,3,-1
 369 0 l 1,4,-1
 212 0 l 1,5,-1
 212 1413 l 1,6,-1
 1241 1413 l 1,7,-1
 1241 0 l 1,0,-1
EndSplineSet
Position2: "'cpsp' Capital Spacing lookup 0 subtable" dx=5 dy=0 dh=10 dv=0
EndChar

StartChar: uni0420
Encoding: 1056 1056 438
Width: 1148
GlyphClass: 1
Flags: W
LayerCount: 2
Fore
SplineSet
370 0 m 1,0,-1
 212 0 l 1,1,-1
 212 1413 l 1,2,-1
 608 1413 l 2,3,4
 743 1413 743 1413 845 1367.5 c 128,-1,5
 947 1322 947 1322 1003.5 1234.5 c 128,-1,6
 1060 1147 1060 1147 1060 1023 c 0,7,8
 1060 897 1060 897 1003.5 811 c 128,-1,9
 947 725 947 725 845.5 681 c 128,-1,10
 744 637 744 637 608 637 c 2,11,-1
 370 637 l 1,12,-1
 370 0 l 1,0,-1
608 779 m 2,13,14
 744 779 744 779 824.5 838 c 128,-1,15
 905 897 905 897 905 1023 c 0,16,17
 905 1141 905 1141 827.5 1207 c 128,-1,18
 750 1273 750 1273 608 1273 c 2,19,-1
 370 1273 l 1,20,-1
 370 779 l 1,21,-1
 608 779 l 2,13,14
EndSplineSet
Position2: "'cpsp' Capital Spacing lookup 0 subtable" dx=5 dy=0 dh=10 dv=0
EndChar

StartChar: uni0421
Encoding: 1057 1057 439
Width: 1420
GlyphClass: 1
Flags: W
LayerCount: 2
Fore
SplineSet
759 -20 m 0,0,1
 551 -20 551 -20 408 77 c 0,2,3
 259 181 259 181 192 347 c 128,-1,4
 125 513 125 513 125 707 c 256,5,6
 125 901 125 901 192 1068 c 128,-1,7
 259 1235 259 1235 407 1339 c 0,8,9
 549 1436 549 1436 757 1436 c 0,10,11
 946 1436 946 1436 1096 1344 c 128,-1,12
 1246 1252 1246 1252 1332 1060 c 1,13,-1
 1186 1000 l 1,14,15
 1143 1149 1143 1149 1028.5 1219 c 128,-1,16
 914 1289 914 1289 755 1289 c 0,17,18
 595 1289 595 1289 489 1212 c 0,19,20
 378 1129 378 1129 329.5 999 c 128,-1,21
 281 869 281 869 281 717 c 0,22,23
 281 558 281 558 329.5 423.5 c 128,-1,24
 378 289 378 289 489 205 c 0,25,26
 596 126 596 126 759 126 c 0,27,28
 1077 126 1077 126 1187 418 c 1,29,-1
 1334 358 l 1,30,31
 1249 165 1249 165 1099 72.5 c 128,-1,32
 949 -20 949 -20 759 -20 c 0,0,1
EndSplineSet
Position2: "'cpsp' Capital Spacing lookup 0 subtable" dx=5 dy=0 dh=10 dv=0
EndChar

StartChar: uni0422
Encoding: 1058 1058 440
Width: 1234
GlyphClass: 1
Flags: W
LayerCount: 2
Fore
SplineSet
696 0 m 1,0,-1
 538 0 l 1,1,-1
 538 1284 l 1,2,-1
 60 1284 l 1,3,-1
 60 1413 l 1,4,-1
 1174 1413 l 1,5,-1
 1174 1284 l 1,6,-1
 696 1284 l 1,7,-1
 696 0 l 1,0,-1
EndSplineSet
Position2: "'cpsp' Capital Spacing lookup 0 subtable" dx=5 dy=0 dh=10 dv=0
EndChar

StartChar: uni0423
Encoding: 1059 1059 441
Width: 1115
GlyphClass: 1
Flags: W
LayerCount: 2
Fore
SplineSet
431 0 m 1,0,-1
 262 0 l 1,1,-1
 459 457 l 1,2,-1
 63 1413 l 1,3,-1
 236 1413 l 1,4,-1
 542 624 l 1,5,-1
 875 1413 l 1,6,-1
 1052 1413 l 1,7,-1
 431 0 l 1,0,-1
EndSplineSet
Position2: "'cpsp' Capital Spacing lookup 0 subtable" dx=5 dy=0 dh=10 dv=0
EndChar

StartChar: uni0424
Encoding: 1060 1060 442
Width: 1690
GlyphClass: 1
Flags: W
LayerCount: 2
Fore
SplineSet
924 0 m 1,0,-1
 766 0 l 1,1,-1
 766 116 l 1,2,3
 123 116 123 116 123 704 c 0,4,5
 123 894 123 894 191 1030 c 0,6,7
 332 1312 332 1312 766 1312 c 1,8,-1
 766 1413 l 1,9,-1
 924 1413 l 1,10,-1
 924 1312 l 1,11,12
 1148 1312 1148 1312 1290 1239 c 0,13,14
 1567 1097 1567 1097 1567 706 c 0,15,16
 1567 116 1567 116 924 116 c 1,17,-1
 924 0 l 1,0,-1
766 261 m 1,18,-1
 766 1167 l 1,19,20
 278 1167 278 1167 278 706 c 0,21,22
 278 471 278 471 402 366 c 128,-1,23
 526 261 526 261 766 261 c 1,18,-1
924 261 m 1,24,25
 1165 261 1165 261 1288.5 367.5 c 128,-1,26
 1412 474 1412 474 1412 706 c 0,27,28
 1412 1167 1412 1167 924 1167 c 1,29,-1
 924 261 l 1,24,25
EndSplineSet
Position2: "'cpsp' Capital Spacing lookup 0 subtable" dx=5 dy=0 dh=10 dv=0
EndChar

StartChar: uni0425
Encoding: 1061 1061 443
Width: 1260
GlyphClass: 1
Flags: W
LayerCount: 2
Fore
SplineSet
1188 0 m 1,0,-1
 1001 0 l 1,1,-1
 627 578 l 1,2,-1
 261 0 l 1,3,-1
 72 0 l 1,4,-1
 539 707 l 1,5,-1
 74 1413 l 1,6,-1
 263 1413 l 1,7,-1
 629 826 l 1,8,-1
 999 1413 l 1,9,-1
 1186 1413 l 1,10,-1
 723 707 l 1,11,-1
 1188 0 l 1,0,-1
EndSplineSet
Position2: "'cpsp' Capital Spacing lookup 0 subtable" dx=5 dy=0 dh=10 dv=0
EndChar

StartChar: uni0426
Encoding: 1062 1062 444
Width: 1479
GlyphClass: 1
Flags: W
LayerCount: 2
Fore
SplineSet
1385 -253 m 1,0,-1
 1229 -253 l 1,1,-1
 1229 0 l 1,2,-1
 212 0 l 1,3,-1
 212 1413 l 1,4,-1
 369 1413 l 1,5,-1
 369 137 l 1,6,-1
 1084 137 l 1,7,-1
 1084 1413 l 1,8,-1
 1241 1413 l 1,9,-1
 1241 137 l 1,10,-1
 1385 137 l 1,11,-1
 1385 -253 l 1,0,-1
EndSplineSet
Position2: "'cpsp' Capital Spacing lookup 0 subtable" dx=5 dy=0 dh=10 dv=0
EndChar

StartChar: uni0427
Encoding: 1063 1063 445
Width: 1325
GlyphClass: 1
Flags: W
LayerCount: 2
Fore
SplineSet
1114 0 m 1,0,-1
 955 0 l 1,1,-1
 955 537 l 1,2,3
 832 411 832 411 621 411 c 0,4,5
 370 411 370 411 248.5 575 c 128,-1,6
 127 739 127 739 127 1017 c 2,7,-1
 127 1413 l 1,8,-1
 286 1413 l 1,9,-1
 286 1011 l 2,10,11
 286 798 286 798 362 680 c 128,-1,12
 438 562 438 562 621 562 c 0,13,14
 730 562 730 562 817 603.5 c 128,-1,15
 904 645 904 645 955 709 c 1,16,-1
 955 1413 l 1,17,-1
 1114 1413 l 1,18,-1
 1114 0 l 1,0,-1
EndSplineSet
Position2: "'cpsp' Capital Spacing lookup 0 subtable" dx=5 dy=0 dh=10 dv=0
EndChar

StartChar: uni0428
Encoding: 1064 1064 446
Width: 1745
GlyphClass: 1
Flags: W
LayerCount: 2
Fore
SplineSet
1533 0 m 1,0,-1
 212 0 l 1,1,-1
 212 1413 l 1,2,-1
 369 1413 l 1,3,-1
 369 137 l 1,4,-1
 791 137 l 1,5,-1
 791 1413 l 1,6,-1
 949 1413 l 1,7,-1
 949 137 l 1,8,-1
 1376 137 l 1,9,-1
 1376 1413 l 1,10,-1
 1533 1413 l 1,11,-1
 1533 0 l 1,0,-1
EndSplineSet
Position2: "'cpsp' Capital Spacing lookup 0 subtable" dx=5 dy=0 dh=10 dv=0
EndChar

StartChar: uni0429
Encoding: 1065 1065 447
Width: 1770
GlyphClass: 1
Flags: W
LayerCount: 2
Fore
SplineSet
1676 -253 m 1,0,-1
 1521 -253 l 1,1,-1
 1521 0 l 1,2,-1
 212 0 l 1,3,-1
 212 1413 l 1,4,-1
 369 1413 l 1,5,-1
 369 137 l 1,6,-1
 791 137 l 1,7,-1
 791 1413 l 1,8,-1
 949 1413 l 1,9,-1
 949 137 l 1,10,-1
 1376 137 l 1,11,-1
 1376 1413 l 1,12,-1
 1533 1413 l 1,13,-1
 1533 137 l 1,14,-1
 1676 137 l 1,15,-1
 1676 -253 l 1,0,-1
EndSplineSet
Position2: "'cpsp' Capital Spacing lookup 0 subtable" dx=5 dy=0 dh=10 dv=0
EndChar

StartChar: uni042A
Encoding: 1066 1066 448
Width: 1369
GlyphClass: 1
Flags: W
LayerCount: 2
Fore
SplineSet
829 0 m 2,0,-1
 433 0 l 1,1,-1
 433 1285 l 1,2,-1
 60 1285 l 1,3,-1
 60 1413 l 1,4,-1
 590 1413 l 1,5,-1
 590 776 l 1,6,-1
 829 776 l 2,7,8
 1039 776 1039 776 1159.5 674.5 c 128,-1,9
 1280 573 1280 573 1280 391 c 0,10,11
 1280 265 1280 265 1223 178 c 128,-1,12
 1166 91 1166 91 1064 45.5 c 128,-1,13
 962 0 962 0 829 0 c 2,0,-1
829 141 m 2,14,15
 972 141 972 141 1049 207 c 128,-1,16
 1126 273 1126 273 1126 391 c 0,17,18
 1126 516 1126 516 1045.5 575.5 c 128,-1,19
 965 635 965 635 829 635 c 2,20,-1
 590 635 l 1,21,-1
 590 141 l 1,22,-1
 829 141 l 2,14,15
EndSplineSet
Position2: "'cpsp' Capital Spacing lookup 0 subtable" dx=5 dy=0 dh=10 dv=0
EndChar

StartChar: uni042B
Encoding: 1067 1067 449
Width: 1627
GlyphClass: 1
Flags: W
LayerCount: 2
Fore
SplineSet
608 0 m 2,0,-1
 212 0 l 1,1,-1
 212 1413 l 1,2,-1
 370 1413 l 1,3,-1
 370 776 l 1,4,-1
 608 776 l 2,5,6
 739 776 739 776 842 733 c 128,-1,7
 945 690 945 690 1005 600 c 0,8,9
 1060 513 1060 513 1060 391 c 0,10,11
 1060 265 1060 265 1003 178 c 128,-1,12
 946 91 946 91 844 45.5 c 128,-1,13
 742 0 742 0 608 0 c 2,0,-1
1415 0 m 1,14,-1
 1258 0 l 1,15,-1
 1258 1413 l 1,16,-1
 1415 1413 l 1,17,-1
 1415 0 l 1,14,-1
608 141 m 2,18,19
 751 141 751 141 828 207 c 128,-1,20
 905 273 905 273 905 391 c 0,21,22
 905 516 905 516 824.5 575.5 c 128,-1,23
 744 635 744 635 608 635 c 2,24,-1
 370 635 l 1,25,-1
 370 141 l 1,26,-1
 608 141 l 2,18,19
EndSplineSet
Position2: "'cpsp' Capital Spacing lookup 0 subtable" dx=5 dy=0 dh=10 dv=0
EndChar

StartChar: uni042C
Encoding: 1068 1068 450
Width: 1148
GlyphClass: 1
Flags: W
LayerCount: 2
Fore
SplineSet
608 0 m 2,0,-1
 212 0 l 1,1,-1
 212 1413 l 1,2,-1
 370 1413 l 1,3,-1
 370 776 l 1,4,-1
 608 776 l 2,5,6
 739 776 739 776 842 733 c 128,-1,7
 945 690 945 690 1005 600 c 0,8,9
 1060 513 1060 513 1060 391 c 0,10,11
 1060 265 1060 265 1003 178 c 128,-1,12
 946 91 946 91 844 45.5 c 128,-1,13
 742 0 742 0 608 0 c 2,0,-1
608 141 m 2,14,15
 751 141 751 141 828 207 c 128,-1,16
 905 273 905 273 905 391 c 0,17,18
 905 516 905 516 824.5 575.5 c 128,-1,19
 744 635 744 635 608 635 c 2,20,-1
 370 635 l 1,21,-1
 370 141 l 1,22,-1
 608 141 l 2,14,15
EndSplineSet
Position2: "'cpsp' Capital Spacing lookup 0 subtable" dx=5 dy=0 dh=10 dv=0
EndChar

StartChar: uni042D
Encoding: 1069 1069 451
Width: 1420
GlyphClass: 1
Flags: W
LayerCount: 2
Fore
SplineSet
661 -20 m 0,0,1
 471 -20 471 -20 321.5 72.5 c 128,-1,2
 172 165 172 165 86 358 c 1,3,-1
 233 418 l 1,4,5
 290 269 290 269 397 197.5 c 128,-1,6
 504 126 504 126 661 126 c 0,7,8
 815 126 815 126 917.5 195 c 128,-1,9
 1020 264 1020 264 1074 383 c 128,-1,10
 1128 502 1128 502 1137 654 c 1,11,-1
 506 654 l 1,12,-1
 506 771 l 1,13,-1
 1135 771 l 1,14,15
 1123 996 1123 996 1012 1135 c 0,16,17
 890 1289 890 1289 665 1289 c 0,18,19
 506 1289 506 1289 391.5 1219 c 128,-1,20
 277 1149 277 1149 234 1000 c 1,21,-1
 88 1060 l 1,22,23
 174 1252 174 1252 324 1344 c 128,-1,24
 474 1436 474 1436 663 1436 c 0,25,26
 871 1436 871 1436 1014 1339 c 0,27,28
 1162 1235 1162 1235 1229 1068 c 128,-1,29
 1296 901 1296 901 1296 707 c 256,30,31
 1296 513 1296 513 1228.5 347 c 128,-1,32
 1161 181 1161 181 1012 77 c 0,33,34
 869 -20 869 -20 661 -20 c 0,0,1
EndSplineSet
Position2: "'cpsp' Capital Spacing lookup 0 subtable" dx=5 dy=0 dh=10 dv=0
EndChar

StartChar: uni042E
Encoding: 1070 1070 452
Width: 1892
GlyphClass: 2
Flags: W
LayerCount: 2
Fore
SplineSet
1131 -20 m 0,0,1
 995 -20 995 -20 889.5 21 c 128,-1,2
 784 62 784 62 708 134 c 128,-1,3
 632 206 632 206 585 302 c 0,4,5
 511 451 511 451 500 639 c 1,6,-1
 369 639 l 1,7,-1
 369 0 l 1,8,-1
 212 0 l 1,9,-1
 212 1413 l 1,10,-1
 369 1413 l 1,11,-1
 369 774 l 1,12,-1
 500 774 l 1,13,14
 510 954 510 954 581.5 1104 c 128,-1,15
 653 1254 653 1254 797 1347 c 0,16,17
 935 1434 935 1434 1131 1434 c 0,18,19
 1341 1434 1341 1434 1484 1337 c 0,20,21
 1633 1233 1633 1233 1700 1067 c 128,-1,22
 1767 901 1767 901 1767 707 c 256,23,24
 1767 513 1767 513 1700 347 c 128,-1,25
 1633 181 1633 181 1484 77 c 0,26,27
 1341 -20 1341 -20 1131 -20 c 0,0,1
1131 126 m 256,28,29
 1293 126 1293 126 1401 206 c 0,30,31
 1513 291 1513 291 1562 423 c 128,-1,32
 1611 555 1611 555 1611 707 c 0,33,34
 1611 858 1611 858 1562 990.5 c 128,-1,35
 1513 1123 1513 1123 1401 1208 c 0,36,37
 1293 1287 1293 1287 1131 1287 c 256,38,39
 969 1287 969 1287 862 1208 c 0,40,41
 751 1123 751 1123 702.5 990.5 c 128,-1,42
 654 858 654 858 654 707 c 0,43,44
 654 554 654 554 702.5 422 c 128,-1,45
 751 290 751 290 862 205 c 0,46,47
 969 126 969 126 1131 126 c 256,28,29
EndSplineSet
Substitution2: "'ss02' Style Set 2 lookup 18 subtable" uni042E.1
Substitution2: "'ss03' Style Set 3 lookup 17 subtable" uni041B.loclSRB
Substitution2: "'locl' Localized Forms in Cyrillic lookup 10 subtable" uni042E.1
Position2: "'cpsp' Capital Spacing lookup 0 subtable" dx=5 dy=0 dh=10 dv=0
EndChar

StartChar: uni042F
Encoding: 1071 1071 453
Width: 1220
GlyphClass: 1
Flags: W
LayerCount: 2
Fore
SplineSet
1008 -2 m 1,0,-1
 849 -2 l 1,1,-1
 849 632 l 1,2,-1
 617 632 l 1,3,-1
 264 -2 l 1,4,-1
 78 -2 l 1,5,-1
 461 653 l 1,6,7
 320 684 320 684 240 782 c 128,-1,8
 160 880 160 880 160 1019 c 0,9,10
 160 1143 160 1143 220 1230.5 c 128,-1,11
 280 1318 280 1318 381 1364.5 c 128,-1,12
 482 1411 482 1411 604 1411 c 2,13,-1
 1008 1411 l 1,14,-1
 1008 -2 l 1,0,-1
847 778 m 1,15,-1
 847 1271 l 1,16,-1
 602 1271 l 2,17,18
 522 1271 522 1271 457 1243 c 128,-1,19
 392 1215 392 1215 354 1159 c 128,-1,20
 316 1103 316 1103 316 1019 c 0,21,22
 316 942 316 942 350 890 c 128,-1,23
 384 838 384 838 443 810 c 128,-1,24
 502 782 502 782 578 778 c 1,25,-1
 847 778 l 1,15,-1
EndSplineSet
Position2: "'cpsp' Capital Spacing lookup 0 subtable" dx=5 dy=0 dh=10 dv=0
EndChar

StartChar: uni0431
Encoding: 1073 1073 455
Width: 1149
GlyphClass: 1
Flags: W
LayerCount: 2
Fore
SplineSet
596 -20 m 0,0,1
 453 -20 453 -20 350 46.5 c 128,-1,2
 247 113 247 113 191 225.5 c 128,-1,3
 135 338 135 338 135 475 c 2,4,-1
 135 810 l 2,5,6
 135 1121 135 1121 357 1246 c 1,7,8
 570 1358 570 1358 844 1434 c 1,9,-1
 844 1289 l 1,10,11
 621 1212 621 1212 562 1189 c 0,12,13
 482 1159 482 1159 430 1126 c 0,14,15
 335 1069 335 1069 303.5 992 c 128,-1,16
 272 915 272 915 272 781 c 1,17,18
 326 856 326 856 418 907.5 c 128,-1,19
 510 959 510 959 630 959 c 0,20,21
 772 959 772 959 870 892.5 c 128,-1,22
 968 826 968 826 1018.5 715.5 c 128,-1,23
 1069 605 1069 605 1069 473 c 0,24,25
 1069 329 1069 329 1006 218 c 128,-1,26
 943 107 943 107 835.5 43.5 c 128,-1,27
 728 -20 728 -20 596 -20 c 0,0,1
596 104 m 0,28,29
 703 104 703 104 771 153 c 128,-1,30
 839 202 839 202 872 285.5 c 128,-1,31
 905 369 905 369 905 470 c 0,32,33
 905 567 905 567 874 649.5 c 128,-1,34
 843 732 843 732 775 782.5 c 128,-1,35
 707 833 707 833 596 833 c 0,36,37
 489 833 489 833 421.5 783 c 128,-1,38
 354 733 354 733 321 650 c 128,-1,39
 288 567 288 567 288 470 c 0,40,41
 288 370 288 370 319.5 287 c 128,-1,42
 351 204 351 204 419 154 c 128,-1,43
 487 104 487 104 596 104 c 0,28,29
EndSplineSet
Substitution2: "'locl' Localized Forms in Cyrillic lookup 8 subtable" uni0431.loclSRB
Substitution2: "'aalt' Access All Alternates lookup 0 subtable" uni0431.loclSRB
EndChar

StartChar: uni0432
Encoding: 1074 1074 456
Width: 1071
GlyphClass: 2
Flags: W
LayerCount: 2
Fore
SplineSet
603 0 m 2,0,-1
 172 0 l 1,1,-1
 172 1039 l 1,2,-1
 605 1039 l 2,3,4
 763 1039 763 1039 844 981.5 c 128,-1,5
 925 924 925 924 925 781 c 0,6,7
 925 695 925 695 881 631 c 128,-1,8
 837 567 837 567 741 551 c 1,9,10
 865 539 865 539 923.5 475.5 c 128,-1,11
 982 412 982 412 982 315 c 0,12,13
 982 195 982 195 945 124.5 c 128,-1,14
 908 54 908 54 825.5 27 c 128,-1,15
 743 0 743 0 603 0 c 2,0,-1
574 609 m 2,16,17
 655 609 655 609 715 653.5 c 128,-1,18
 775 698 775 698 775 763 c 0,19,20
 775 847 775 847 727 881.5 c 128,-1,21
 679 916 679 916 574 916 c 2,22,-1
 311 916 l 1,23,-1
 311 609 l 1,24,-1
 574 609 l 2,16,17
572 132 m 2,25,26
 677 132 677 132 731.5 149 c 128,-1,27
 786 166 786 166 808 205 c 128,-1,28
 830 244 830 244 830 316 c 0,29,30
 830 407 830 407 762 442 c 128,-1,31
 694 477 694 477 572 477 c 2,32,-1
 311 477 l 1,33,-1
 311 132 l 1,34,-1
 572 132 l 2,25,26
EndSplineSet
Substitution2: "'ss02' Style Set 2 lookup 18 subtable" uni0432.1
Substitution2: "'ss03' Style Set 3 lookup 17 subtable" uni0432.loclSRB
Substitution2: "'locl' Localized Forms in Cyrillic lookup 10 subtable" uni0432.1
Substitution2: "'locl' Localized Forms in Cyrillic lookup 9 subtable" uni0432.loclSRB
Substitution2: "'locl' Localized Forms in Cyrillic lookup 8 subtable" uni0432.loclSRB
EndChar

StartChar: uni0433
Encoding: 1075 1075 457
Width: 779
GlyphClass: 2
Flags: W
LayerCount: 2
Fore
SplineSet
322 0 m 1,0,-1
 172 0 l 1,1,-1
 172 1039 l 1,2,-1
 759 1039 l 1,3,-1
 759 921 l 1,4,-1
 322 921 l 1,5,-1
 322 0 l 1,0,-1
EndSplineSet
Substitution2: "'ss02' Style Set 2 lookup 18 subtable" uni0433.1
Substitution2: "'ss03' Style Set 3 lookup 17 subtable" uni0433.loclSRB
Substitution2: "'locl' Localized Forms in Cyrillic lookup 10 subtable" uni0433.1
Substitution2: "'locl' Localized Forms in Cyrillic lookup 9 subtable" uni0433.loclSRB
Substitution2: "'locl' Localized Forms in Cyrillic lookup 8 subtable" uni0433.loclSRB
EndChar

StartChar: uni0434
Encoding: 1076 1076 458
Width: 1109
GlyphClass: 2
Flags: W
LayerCount: 2
Fore
SplineSet
1016 -307 m 1,0,-1
 866 -307 l 1,1,-1
 866 0 l 1,2,-1
 179 0 l 1,3,-1
 179 -307 l 1,4,-1
 30 -307 l 1,5,-1
 30 120 l 1,6,-1
 135 120 l 1,7,8
 272 288 272 288 272 642 c 2,9,-1
 272 1039 l 1,10,-1
 921 1039 l 1,11,-1
 921 120 l 1,12,-1
 1016 120 l 1,13,-1
 1016 -307 l 1,0,-1
771 120 m 1,14,-1
 771 921 l 1,15,-1
 421 921 l 1,16,-1
 421 644 l 2,17,18
 421 455 421 455 389 324 c 128,-1,19
 357 193 357 193 303 120 c 1,20,-1
 771 120 l 1,14,-1
EndSplineSet
Substitution2: "'ss02' Style Set 2 lookup 18 subtable" uni0434.1
Substitution2: "'ss03' Style Set 3 lookup 17 subtable" uni0434.loclSRB
Substitution2: "'locl' Localized Forms in Cyrillic lookup 10 subtable" uni0434.1
Substitution2: "'locl' Localized Forms in Cyrillic lookup 9 subtable" uni0434.loclSRB
Substitution2: "'locl' Localized Forms in Cyrillic lookup 8 subtable" uni0434.loclSRB
EndChar

StartChar: uni0435
Encoding: 1077 1077 459
Width: 1060
GlyphClass: 1
Flags: W
LayerCount: 2
Fore
SplineSet
556 -12 m 0,0,1
 407 -12 407 -12 302.5 58.5 c 128,-1,2
 198 129 198 129 146.5 249 c 128,-1,3
 95 369 95 369 95 514 c 0,4,5
 95 657 95 657 146 780 c 128,-1,6
 197 903 197 903 296.5 977.5 c 128,-1,7
 396 1052 396 1052 538 1052 c 0,8,9
 771 1052 771 1052 873 899.5 c 128,-1,10
 975 747 975 747 975 508 c 1,11,-1
 970 470 l 1,12,-1
 252 470 l 1,13,14
 252 369 252 369 285 294 c 0,15,16
 319 214 319 214 387.5 167 c 128,-1,17
 456 120 456 120 553 120 c 0,18,19
 652 120 652 120 720.5 144.5 c 128,-1,20
 789 169 789 169 847 231 c 1,21,-1
 949 143 l 1,22,23
 865 60 865 60 773 24 c 128,-1,24
 681 -12 681 -12 556 -12 c 0,0,1
832 592 m 1,25,-1
 832 598 l 2,26,27
 832 744 832 744 757.5 831.5 c 128,-1,28
 683 919 683 919 538 919 c 0,29,30
 448 919 448 919 384.5 876.5 c 128,-1,31
 321 834 321 834 289 759 c 128,-1,32
 257 684 257 684 252 592 c 1,33,-1
 832 592 l 1,25,-1
EndSplineSet
EndChar

StartChar: uni0436
Encoding: 1078 1078 460
Width: 1480
GlyphClass: 2
Flags: W
LayerCount: 2
Fore
SplineSet
1436 0 m 1,0,-1
 1255 0 l 1,1,-1
 1128 375 l 2,2,3
 1102 456 1102 456 1061.5 490.5 c 128,-1,4
 1021 525 1021 525 959 525 c 2,5,-1
 818 525 l 1,6,-1
 818 0 l 1,7,-1
 667 0 l 1,8,-1
 667 525 l 1,9,-1
 525 525 l 2,10,11
 463 525 463 525 423 490.5 c 128,-1,12
 383 456 383 456 357 375 c 2,13,-1
 229 0 l 1,14,-1
 48 0 l 1,15,-1
 217 452 l 2,16,17
 243 518 243 518 285.5 568.5 c 128,-1,18
 328 619 328 619 379 619 c 1,19,-1
 113 1039 l 1,20,-1
 304 1039 l 1,21,-1
 535 651 l 1,22,-1
 667 651 l 1,23,-1
 667 1039 l 1,24,-1
 818 1039 l 1,25,-1
 818 651 l 1,26,-1
 951 651 l 1,27,-1
 1182 1039 l 1,28,-1
 1371 1039 l 1,29,-1
 1106 619 l 1,30,31
 1158 619 1158 619 1199.5 568.5 c 128,-1,32
 1241 518 1241 518 1267 452 c 2,33,-1
 1436 0 l 1,0,-1
EndSplineSet
Substitution2: "'ss02' Style Set 2 lookup 18 subtable" uni0436.1
Substitution2: "'ss03' Style Set 3 lookup 17 subtable" uni0436.loclSRB
Substitution2: "'locl' Localized Forms in Cyrillic lookup 10 subtable" uni0436.1
Substitution2: "'locl' Localized Forms in Cyrillic lookup 9 subtable" uni0436.loclSRB
Substitution2: "'locl' Localized Forms in Cyrillic lookup 8 subtable" uni0436.loclSRB
EndChar

StartChar: uni0437
Encoding: 1079 1079 461
Width: 965
GlyphClass: 2
Flags: W
LayerCount: 2
Fore
SplineSet
454 -20 m 0,0,1
 320 -20 320 -20 228.5 26.5 c 128,-1,2
 137 73 137 73 50 171 c 1,3,-1
 167 265 l 1,4,5
 262 104 262 104 443 104 c 0,6,7
 722 104 722 104 722 291 c 0,8,9
 722 384 722 384 657.5 419.5 c 128,-1,10
 593 455 593 455 471 455 c 2,11,-1
 340 455 l 1,12,-1
 340 585 l 1,13,-1
 499 585 l 1,14,15
 587 603 587 603 629.5 646 c 128,-1,16
 672 689 672 689 672 764 c 0,17,18
 672 841 672 841 624 884 c 128,-1,19
 576 927 576 927 458 927 c 0,20,21
 372 927 372 927 298.5 883.5 c 128,-1,22
 225 840 225 840 186 767 c 1,23,-1
 62 837 l 1,24,25
 125 946 125 946 230 999 c 128,-1,26
 335 1052 335 1052 455 1052 c 0,27,28
 820 1052 820 1052 822 765 c 0,29,30
 822 559 822 559 647 527 c 1,31,32
 755 513 755 513 814.5 446 c 128,-1,33
 874 379 874 379 874 292 c 0,34,35
 874 186 874 186 822.5 116.5 c 128,-1,36
 771 47 771 47 677 13.5 c 128,-1,37
 583 -20 583 -20 454 -20 c 0,0,1
EndSplineSet
Substitution2: "'ss02' Style Set 2 lookup 18 subtable" uni0437.1
Substitution2: "'ss03' Style Set 3 lookup 17 subtable" uni0437.loclSRB
Substitution2: "'locl' Localized Forms in Cyrillic lookup 10 subtable" uni0437.1
Substitution2: "'locl' Localized Forms in Cyrillic lookup 9 subtable" uni0437.loclSRB
Substitution2: "'locl' Localized Forms in Cyrillic lookup 8 subtable" uni0437.loclSRB
EndChar

StartChar: uni0438
Encoding: 1080 1080 462
Width: 1162
GlyphClass: 2
Flags: W
LayerCount: 2
Fore
SplineSet
1001 0 m 1,0,-1
 853 0 l 1,1,-1
 853 700 l 2,2,3
 853 753 853 753 863 821 c 1,4,-1
 853 821 l 1,5,-1
 346 0 l 1,6,-1
 175 0 l 1,7,-1
 175 1039 l 1,8,-1
 325 1039 l 1,9,-1
 325 340 l 2,10,11
 325 311 325 311 315 218 c 1,12,-1
 325 218 l 1,13,-1
 832 1039 l 1,14,-1
 1001 1039 l 1,15,-1
 1001 0 l 1,0,-1
EndSplineSet
Substitution2: "'ss02' Style Set 2 lookup 18 subtable" uni0438.1
Substitution2: "'ss03' Style Set 3 lookup 17 subtable" uni0438.loclSRB
Substitution2: "'locl' Localized Forms in Cyrillic lookup 10 subtable" uni0438.1
Substitution2: "'locl' Localized Forms in Cyrillic lookup 9 subtable" uni0438.loclSRB
Substitution2: "'locl' Localized Forms in Cyrillic lookup 8 subtable" uni0438.loclSRB
EndChar

StartChar: uni043A
Encoding: 1082 1082 464
Width: 986
GlyphClass: 2
Flags: W
LayerCount: 2
Fore
SplineSet
945 0 m 1,0,-1
 764 0 l 1,1,-1
 636 375 l 2,2,3
 610 456 610 456 570 490.5 c 128,-1,4
 530 525 530 525 467 525 c 2,5,-1
 326 525 l 1,6,-1
 326 0 l 1,7,-1
 175 0 l 1,8,-1
 175 1039 l 1,9,-1
 326 1039 l 1,10,-1
 326 651 l 1,11,-1
 458 651 l 1,12,-1
 689 1039 l 1,13,-1
 879 1039 l 1,14,-1
 614 619 l 1,15,16
 665 619 665 619 706.5 569 c 128,-1,17
 748 519 748 519 775 452 c 2,18,-1
 945 0 l 1,0,-1
EndSplineSet
Substitution2: "'ss02' Style Set 2 lookup 18 subtable" uni043A.1
Substitution2: "'ss03' Style Set 3 lookup 17 subtable" uni043A.loclSRB
Substitution2: "'locl' Localized Forms in Cyrillic lookup 10 subtable" uni043A.1
Substitution2: "'locl' Localized Forms in Cyrillic lookup 9 subtable" uni043A.loclSRB
Substitution2: "'locl' Localized Forms in Cyrillic lookup 8 subtable" uni043A.loclSRB
EndChar

StartChar: uni043B
Encoding: 1083 1083 465
Width: 1092
GlyphClass: 2
Flags: W
LayerCount: 2
Fore
SplineSet
198 -22 m 0,0,1
 153 -22 153 -22 103.5 -8.5 c 128,-1,2
 54 5 54 5 20 22 c 1,3,-1
 69 133 l 1,4,-1
 75 129 l 1,5,6
 127 100 127 100 155 100 c 0,7,8
 207 100 207 100 242.5 211 c 128,-1,9
 278 322 278 322 278 642 c 2,10,-1
 278 1039 l 1,11,-1
 924 1039 l 1,12,-1
 924 0 l 1,13,-1
 775 0 l 1,14,-1
 775 921 l 1,15,-1
 426 921 l 1,16,-1
 426 621 l 2,17,18
 426 356 426 356 393.5 214 c 128,-1,19
 361 72 361 72 312 25 c 128,-1,20
 263 -22 263 -22 198 -22 c 0,0,1
EndSplineSet
Substitution2: "'ss02' Style Set 2 lookup 18 subtable" uni043B.1
Substitution2: "'ss03' Style Set 3 lookup 17 subtable" uni043B.loclSRB
Substitution2: "'locl' Localized Forms in Cyrillic lookup 10 subtable" uni043B.1
Substitution2: "'locl' Localized Forms in Cyrillic lookup 9 subtable" uni043B.loclSRB
Substitution2: "'locl' Localized Forms in Cyrillic lookup 8 subtable" uni043B.loclSRB
EndChar

StartChar: uni043C
Encoding: 1084 1084 466
Width: 1423
GlyphClass: 1
Flags: W
LayerCount: 2
Fore
SplineSet
1262 0 m 1,0,-1
 1114 0 l 1,1,-1
 1114 841 l 1,2,-1
 779 0 l 1,3,-1
 659 0 l 1,4,-1
 323 839 l 1,5,-1
 323 0 l 1,6,-1
 175 0 l 1,7,-1
 175 1039 l 1,8,-1
 386 1039 l 1,9,-1
 720 191 l 1,10,-1
 1051 1038 l 1,11,-1
 1262 1038 l 1,12,-1
 1262 0 l 1,0,-1
EndSplineSet
EndChar

StartChar: uni043D
Encoding: 1085 1085 467
Width: 1162
GlyphClass: 1
Flags: W
LayerCount: 2
Fore
SplineSet
1001 0 m 1,0,-1
 852 0 l 1,1,-1
 852 513 l 1,2,-1
 326 513 l 1,3,-1
 326 0 l 1,4,-1
 175 0 l 1,5,-1
 175 1039 l 1,6,-1
 326 1039 l 1,7,-1
 326 631 l 1,8,-1
 852 631 l 1,9,-1
 852 1039 l 1,10,-1
 1001 1039 l 1,11,-1
 1001 0 l 1,0,-1
EndSplineSet
EndChar

StartChar: uni043F
Encoding: 1087 1087 469
Width: 1162
GlyphClass: 2
Flags: W
LayerCount: 2
Fore
SplineSet
1001 0 m 1,0,-1
 853 0 l 1,1,-1
 853 921 l 1,2,-1
 325 921 l 1,3,-1
 325 0 l 1,4,-1
 175 0 l 1,5,-1
 175 1039 l 1,6,-1
 1001 1039 l 1,7,-1
 1001 0 l 1,0,-1
EndSplineSet
Substitution2: "'ss02' Style Set 2 lookup 18 subtable" uni043F.1
Substitution2: "'ss03' Style Set 3 lookup 17 subtable" uni043F.loclSRB
Substitution2: "'locl' Localized Forms in Cyrillic lookup 10 subtable" uni043F.1
Substitution2: "'locl' Localized Forms in Cyrillic lookup 9 subtable" uni043F.loclSRB
Substitution2: "'locl' Localized Forms in Cyrillic lookup 8 subtable" uni043F.loclSRB
EndChar

StartChar: uni0440
Encoding: 1088 1088 470
Width: 1140
GlyphClass: 1
Flags: W
LayerCount: 2
Fore
SplineSet
325 -438 m 1,0,-1
 175 -438 l 1,1,-1
 175 1039 l 1,2,-1
 325 1039 l 1,3,-1
 325 900 l 1,4,5
 433 1060 433 1060 645 1060 c 0,6,7
 780 1060 780 1060 872.5 987 c 128,-1,8
 965 914 965 914 1013 791 c 128,-1,9
 1061 668 1061 668 1061 520 c 0,10,11
 1061 375 1061 375 1014 251 c 128,-1,12
 967 127 967 127 869 52 c 0,13,14
 774 -20 774 -20 645 -20 c 0,15,16
 435 -20 435 -20 325 139 c 1,17,-1
 325 -438 l 1,0,-1
609 111 m 0,18,19
 712 111 712 111 778.5 167.5 c 128,-1,20
 845 224 845 224 876.5 316.5 c 128,-1,21
 908 409 908 409 908 518 c 0,22,23
 908 624 908 624 877.5 717.5 c 128,-1,24
 847 811 847 811 781 869.5 c 128,-1,25
 715 928 715 928 609 928 c 0,26,27
 507 928 507 928 441.5 872.5 c 128,-1,28
 376 817 376 817 345 723.5 c 128,-1,29
 314 630 314 630 314 518 c 0,30,31
 314 410 314 410 344 317.5 c 128,-1,32
 374 225 374 225 439 168 c 128,-1,33
 504 111 504 111 609 111 c 0,18,19
EndSplineSet
EndChar

StartChar: uni0442
Encoding: 1090 1090 472
Width: 886
GlyphClass: 2
Flags: W
LayerCount: 2
Fore
SplineSet
517 0 m 1,0,-1
 369 0 l 1,1,-1
 369 921 l 1,2,-1
 28 921 l 1,3,-1
 28 1039 l 1,4,-1
 860 1039 l 1,5,-1
 860 921 l 1,6,-1
 517 921 l 1,7,-1
 517 0 l 1,0,-1
EndSplineSet
Substitution2: "'ss02' Style Set 2 lookup 18 subtable" uni0442.1
Substitution2: "'ss03' Style Set 3 lookup 17 subtable" uni0442.loclSRB
Substitution2: "'locl' Localized Forms in Cyrillic lookup 10 subtable" uni0442.1
Substitution2: "'locl' Localized Forms in Cyrillic lookup 9 subtable" uni0442.loclSRB
Substitution2: "'locl' Localized Forms in Cyrillic lookup 8 subtable" uni0442.loclSRB
EndChar

StartChar: uni0443
Encoding: 1091 1091 473
Width: 1011
GlyphClass: 1
Flags: W
LayerCount: 2
Fore
SplineSet
421 -430 m 1,0,-1
 261 -430 l 1,1,-1
 435 19 l 1,2,-1
 36 1039 l 1,3,-1
 208 1039 l 1,4,-1
 509 199 l 1,5,-1
 806 1039 l 1,6,-1
 978 1039 l 1,7,-1
 421 -430 l 1,0,-1
EndSplineSet
EndChar

StartChar: uni0444
Encoding: 1092 1092 474
Width: 1426
GlyphClass: 1
Flags: W
LayerCount: 2
Fore
SplineSet
792 -430 m 1,0,-1
 641 -430 l 1,1,-1
 641 -15 l 1,2,3
 608 -20 608 -20 575 -20 c 0,4,5
 426 -20 426 -20 317.5 54.5 c 128,-1,6
 209 129 209 129 149 251 c 128,-1,7
 89 373 89 373 89 516 c 0,8,9
 89 657 89 657 149 780.5 c 128,-1,10
 209 904 209 904 324 980 c 0,11,12
 435 1052 435 1052 575 1052 c 0,13,14
 621 1050 621 1050 641 1046 c 1,15,-1
 641 1413 l 1,16,-1
 792 1413 l 1,17,-1
 792 1046 l 1,18,19
 821 1052 821 1052 857 1052 c 0,20,21
 1007 1052 1007 1052 1116.5 977 c 128,-1,22
 1226 902 1226 902 1285.5 780 c 128,-1,23
 1345 658 1345 658 1345 516 c 0,24,25
 1345 370 1345 370 1284 247.5 c 128,-1,26
 1223 125 1223 125 1113 52.5 c 128,-1,27
 1003 -20 1003 -20 857 -20 c 0,28,29
 825 -20 825 -20 792 -15 c 1,30,-1
 792 -430 l 1,0,-1
575 112 m 0,31,32
 622 112 622 112 641 116 c 1,33,-1
 641 914 l 1,34,35
 608 919 608 919 575 919 c 0,36,37
 464 919 464 919 393 864.5 c 128,-1,38
 322 810 322 810 289 718 c 128,-1,39
 256 626 256 626 256 516 c 0,40,41
 256 404 256 404 289 312 c 128,-1,42
 322 220 322 220 392.5 166 c 128,-1,43
 463 112 463 112 575 112 c 0,31,32
858 112 m 0,44,45
 970 112 970 112 1040 166.5 c 128,-1,46
 1110 221 1110 221 1143.5 312.5 c 128,-1,47
 1177 404 1177 404 1177 516 c 0,48,49
 1177 624 1177 624 1145 715.5 c 128,-1,50
 1113 807 1113 807 1042.5 863 c 128,-1,51
 972 919 972 919 858 919 c 0,52,53
 826 919 826 919 792 914 c 1,54,-1
 792 116 l 1,55,56
 812 112 812 112 858 112 c 0,44,45
EndSplineSet
EndChar

StartChar: uni0445
Encoding: 1093 1093 475
Width: 955
GlyphClass: 1
Flags: W
LayerCount: 2
Fore
SplineSet
911 0 m 1,0,-1
 724 0 l 1,1,-1
 480 393 l 1,2,-1
 238 0 l 1,3,-1
 48 0 l 1,4,-1
 397 524 l 1,5,-1
 48 1039 l 1,6,-1
 238 1039 l 1,7,-1
 480 652 l 1,8,-1
 724 1039 l 1,9,-1
 911 1039 l 1,10,-1
 565 524 l 1,11,-1
 911 0 l 1,0,-1
EndSplineSet
EndChar

StartChar: uni0446
Encoding: 1094 1094 476
Width: 1196
GlyphClass: 2
Flags: W
LayerCount: 2
Fore
SplineSet
1143 -307 m 1,0,-1
 995 -307 l 1,1,-1
 995 0 l 1,2,-1
 175 0 l 1,3,-1
 175 1039 l 1,4,-1
 325 1039 l 1,5,-1
 325 120 l 1,6,-1
 853 120 l 1,7,-1
 853 1039 l 1,8,-1
 1001 1039 l 1,9,-1
 1001 120 l 1,10,-1
 1143 120 l 1,11,-1
 1143 -307 l 1,0,-1
EndSplineSet
Substitution2: "'ss02' Style Set 2 lookup 18 subtable" uni0446.1
Substitution2: "'ss03' Style Set 3 lookup 17 subtable" uni0446.loclSRB
Substitution2: "'locl' Localized Forms in Cyrillic lookup 10 subtable" uni0446.1
Substitution2: "'locl' Localized Forms in Cyrillic lookup 9 subtable" uni0446.loclSRB
Substitution2: "'locl' Localized Forms in Cyrillic lookup 8 subtable" uni0446.loclSRB
EndChar

StartChar: uni0447
Encoding: 1095 1095 477
Width: 1097
GlyphClass: 1
Flags: W
LayerCount: 2
Fore
SplineSet
932 0 m 1,0,-1
 781 0 l 1,1,-1
 781 447 l 1,2,3
 758 403 758 403 713 359 c 128,-1,4
 668 315 668 315 602.5 284.5 c 128,-1,5
 537 254 537 254 459 254 c 0,6,7
 333 254 333 254 254.5 314 c 128,-1,8
 176 374 176 374 139 474.5 c 128,-1,9
 102 575 102 575 102 698 c 2,10,-1
 102 1039 l 1,11,-1
 253 1039 l 1,12,-1
 253 693 l 2,13,14
 253 561 253 561 301.5 472 c 128,-1,15
 350 383 350 383 468 383 c 0,16,17
 557 383 557 383 628 432 c 128,-1,18
 699 481 699 481 740 558.5 c 128,-1,19
 781 636 781 636 781 719 c 2,20,-1
 781 1039 l 1,21,-1
 932 1039 l 1,22,-1
 932 0 l 1,0,-1
EndSplineSet
EndChar

StartChar: uni0448
Encoding: 1096 1096 478
Width: 1576
GlyphClass: 2
Flags: W
LayerCount: 2
Fore
SplineSet
1414 0 m 1,0,-1
 175 0 l 1,1,-1
 175 1039 l 1,2,-1
 325 1039 l 1,3,-1
 325 120 l 1,4,-1
 722 120 l 1,5,-1
 722 1039 l 1,6,-1
 869 1039 l 1,7,-1
 869 120 l 1,8,-1
 1267 120 l 1,9,-1
 1267 1039 l 1,10,-1
 1414 1039 l 1,11,-1
 1414 0 l 1,0,-1
EndSplineSet
Substitution2: "'ss02' Style Set 2 lookup 18 subtable" uni0448.1
Substitution2: "'ss03' Style Set 3 lookup 17 subtable" uni0448.loclSRB
Substitution2: "'locl' Localized Forms in Cyrillic lookup 10 subtable" uni0448.1
Substitution2: "'locl' Localized Forms in Cyrillic lookup 9 subtable" uni0448.loclSRB
Substitution2: "'locl' Localized Forms in Cyrillic lookup 8 subtable" uni0448.loclSRB
EndChar

StartChar: uni0449
Encoding: 1097 1097 479
Width: 1610
GlyphClass: 2
Flags: W
LayerCount: 2
Fore
SplineSet
1556 -307 m 1,0,-1
 1408 -307 l 1,1,-1
 1408 0 l 1,2,-1
 175 0 l 1,3,-1
 175 1039 l 1,4,-1
 325 1039 l 1,5,-1
 325 120 l 1,6,-1
 722 120 l 1,7,-1
 722 1039 l 1,8,-1
 869 1039 l 1,9,-1
 869 120 l 1,10,-1
 1267 120 l 1,11,-1
 1267 1039 l 1,12,-1
 1414 1039 l 1,13,-1
 1414 120 l 1,14,-1
 1556 120 l 1,15,-1
 1556 -307 l 1,0,-1
EndSplineSet
Substitution2: "'ss02' Style Set 2 lookup 18 subtable" uni0449.1
Substitution2: "'ss03' Style Set 3 lookup 17 subtable" uni0449.loclSRB
Substitution2: "'locl' Localized Forms in Cyrillic lookup 10 subtable" uni0449.1
Substitution2: "'locl' Localized Forms in Cyrillic lookup 9 subtable" uni0449.loclSRB
Substitution2: "'locl' Localized Forms in Cyrillic lookup 8 subtable" uni0449.loclSRB
EndChar

StartChar: uni044A
Encoding: 1098 1098 480
Width: 1144
GlyphClass: 2
Flags: W
LayerCount: 2
Fore
SplineSet
646 0 m 2,0,-1
 304 0 l 1,1,-1
 304 921 l 1,2,-1
 28 921 l 1,3,-1
 28 1039 l 1,4,-1
 452 1039 l 1,5,-1
 452 691 l 1,6,-1
 644 691 l 2,7,8
 777 691 777 691 863 660.5 c 128,-1,9
 949 630 949 630 998 556 c 0,10,11
 1048 478 1048 478 1048 339 c 0,12,13
 1048 230 1048 230 995.5 154.5 c 128,-1,14
 943 79 943 79 852 39.5 c 128,-1,15
 761 0 761 0 646 0 c 2,0,-1
646 122 m 2,16,17
 752 122 752 122 815 171 c 128,-1,18
 878 220 878 220 878 339 c 0,19,20
 878 469 878 469 816 519 c 128,-1,21
 754 569 754 569 646 569 c 2,22,-1
 452 569 l 1,23,-1
 452 122 l 1,24,-1
 646 122 l 2,16,17
EndSplineSet
Substitution2: "'ss02' Style Set 2 lookup 18 subtable" uni044A.1
Substitution2: "'locl' Localized Forms in Cyrillic lookup 10 subtable" uni044A.1
EndChar

StartChar: uni044B
Encoding: 1099 1099 481
Width: 1399
GlyphClass: 2
Flags: W
LayerCount: 2
Fore
SplineSet
519 0 m 2,0,-1
 175 0 l 1,1,-1
 175 1039 l 1,2,-1
 325 1039 l 1,3,-1
 325 687 l 1,4,-1
 517 687 l 2,5,6
 649 687 649 687 735 656.5 c 128,-1,7
 821 626 821 626 870.5 550.5 c 128,-1,8
 920 475 920 475 920 337 c 0,9,10
 920 228 920 228 867.5 153.5 c 128,-1,11
 815 79 815 79 724.5 39.5 c 128,-1,12
 634 0 634 0 519 0 c 2,0,-1
1239 0 m 1,13,-1
 1090 0 l 1,14,-1
 1090 1039 l 1,15,-1
 1239 1039 l 1,16,-1
 1239 0 l 1,13,-1
519 122 m 2,17,18
 625 122 625 122 688 170.5 c 128,-1,19
 751 219 751 219 751 337 c 0,20,21
 751 465 751 465 689 515 c 128,-1,22
 627 565 627 565 519 565 c 2,23,-1
 325 565 l 1,24,-1
 325 122 l 1,25,-1
 519 122 l 2,17,18
EndSplineSet
Substitution2: "'ss02' Style Set 2 lookup 18 subtable" uni044B.1
Substitution2: "'locl' Localized Forms in Cyrillic lookup 10 subtable" uni044B.1
EndChar

StartChar: uni044C
Encoding: 1100 1100 482
Width: 1009
GlyphClass: 2
Flags: W
LayerCount: 2
Fore
SplineSet
519 0 m 2,0,-1
 175 0 l 1,1,-1
 175 1039 l 1,2,-1
 325 1039 l 1,3,-1
 325 687 l 1,4,-1
 517 687 l 2,5,6
 649 687 649 687 735 656.5 c 128,-1,7
 821 626 821 626 870.5 550.5 c 128,-1,8
 920 475 920 475 920 337 c 0,9,10
 920 228 920 228 867.5 153.5 c 128,-1,11
 815 79 815 79 724.5 39.5 c 128,-1,12
 634 0 634 0 519 0 c 2,0,-1
519 122 m 2,13,14
 625 122 625 122 688 170.5 c 128,-1,15
 751 219 751 219 751 337 c 0,16,17
 751 465 751 465 689 515 c 128,-1,18
 627 565 627 565 519 565 c 2,19,-1
 325 565 l 1,20,-1
 325 122 l 1,21,-1
 519 122 l 2,13,14
EndSplineSet
Substitution2: "'ss02' Style Set 2 lookup 18 subtable" uni044C.1
Substitution2: "'locl' Localized Forms in Cyrillic lookup 10 subtable" uni044C.1
EndChar

StartChar: uni044D
Encoding: 1101 1101 483
Width: 1000
GlyphClass: 1
Flags: W
LayerCount: 2
Fore
SplineSet
466 -20 m 0,0,1
 326 -20 326 -20 224.5 50 c 128,-1,2
 123 120 123 120 75 253 c 1,3,-1
 210 313 l 1,4,5
 234 222 234 222 302.5 164.5 c 128,-1,6
 371 107 371 107 468 107 c 0,7,8
 600 107 600 107 671 206.5 c 128,-1,9
 742 306 742 306 756 452 c 1,10,-1
 338 452 l 1,11,-1
 338 563 l 1,12,-1
 757 563 l 1,13,14
 752 657 752 657 719.5 740 c 128,-1,15
 687 823 687 823 626 875.5 c 128,-1,16
 565 928 565 928 468 928 c 0,17,18
 375 928 375 928 305.5 873.5 c 128,-1,19
 236 819 236 819 210 722 c 1,20,-1
 63 786 l 1,21,22
 116 910 116 910 219 983 c 128,-1,23
 322 1056 322 1056 468 1056 c 0,24,25
 580 1056 580 1056 664.5 1012.5 c 128,-1,26
 749 969 749 969 805 894 c 128,-1,27
 861 819 861 819 889 722 c 128,-1,28
 917 625 917 625 917 518 c 0,29,30
 917 378 917 378 868.5 255 c 128,-1,31
 820 132 820 132 713 54 c 0,32,33
 612 -20 612 -20 466 -20 c 0,0,1
EndSplineSet
EndChar

StartChar: uni044E
Encoding: 1102 1102 484
Width: 1471
GlyphClass: 2
Flags: W
LayerCount: 2
Fore
SplineSet
907 -20 m 0,0,1
 759 -20 759 -20 650 53.5 c 128,-1,2
 541 127 541 127 481.5 248 c 128,-1,3
 422 369 422 369 420 514 c 1,4,-1
 325 514 l 1,5,-1
 325 0 l 1,6,-1
 175 0 l 1,7,-1
 175 1039 l 1,8,-1
 325 1039 l 1,9,-1
 325 632 l 1,10,-1
 429 632 l 1,11,12
 453 749 453 749 516 843.5 c 128,-1,13
 579 938 579 938 678 995 c 128,-1,14
 777 1052 777 1052 907 1052 c 0,15,16
 1056 1052 1056 1052 1164.5 977 c 128,-1,17
 1273 902 1273 902 1332.5 780 c 128,-1,18
 1392 658 1392 658 1392 516 c 0,19,20
 1392 365 1392 365 1329.5 243.5 c 128,-1,21
 1267 122 1267 122 1158 51 c 128,-1,22
 1049 -20 1049 -20 907 -20 c 0,0,1
907 112 m 0,23,24
 1019 112 1019 112 1089 166.5 c 128,-1,25
 1159 221 1159 221 1192.5 312.5 c 128,-1,26
 1226 404 1226 404 1226 516 c 0,27,28
 1226 624 1226 624 1194 715.5 c 128,-1,29
 1162 807 1162 807 1091.5 863 c 128,-1,30
 1021 919 1021 919 907 919 c 0,31,32
 795 919 795 919 724 864.5 c 128,-1,33
 653 810 653 810 619.5 718 c 128,-1,34
 586 626 586 626 586 516 c 0,35,36
 586 407 586 407 619 314.5 c 128,-1,37
 652 222 652 222 723 167 c 128,-1,38
 794 112 794 112 907 112 c 0,23,24
EndSplineSet
Substitution2: "'ss02' Style Set 2 lookup 18 subtable" uni044E.1
Substitution2: "'locl' Localized Forms in Cyrillic lookup 10 subtable" uni044E.1
EndChar

StartChar: uni044F
Encoding: 1103 1103 485
Width: 999
GlyphClass: 1
Flags: W
LayerCount: 2
Fore
SplineSet
835 0 m 1,0,-1
 685 0 l 1,1,-1
 685 481 l 1,2,-1
 538 481 l 2,3,4
 477 481 477 481 437 446.5 c 128,-1,5
 397 412 397 412 370 331 c 2,6,-1
 254 0 l 1,7,-1
 79 0 l 1,8,-1
 212 360 l 1,9,10
 281 527 281 527 368 527 c 1,11,12
 252 549 252 549 189.5 607.5 c 128,-1,13
 127 666 127 666 127 786 c 0,14,15
 127 852 127 852 159.5 910 c 128,-1,16
 192 968 192 968 264.5 1003.5 c 128,-1,17
 337 1039 337 1039 457 1039 c 2,18,-1
 835 1039 l 1,19,-1
 835 0 l 1,0,-1
685 609 m 1,20,-1
 685 919 l 1,21,-1
 451 919 l 2,22,23
 372 919 372 919 333.5 879 c 128,-1,24
 295 839 295 839 295 778 c 0,25,26
 295 609 295 609 504 609 c 2,27,-1
 685 609 l 1,20,-1
EndSplineSet
EndChar

StartChar: uni0452
Encoding: 1106 1106 488
Width: 1150
GlyphClass: 1
Flags: W
LayerCount: 2
Fore
SplineSet
629 -456 m 0,0,1
 532 -456 532 -456 451 -417.5 c 128,-1,2
 370 -379 370 -379 284 -294 c 1,3,-1
 381 -194 l 1,4,5
 443 -261 443 -261 497 -293 c 128,-1,6
 551 -325 551 -325 616 -325 c 0,7,8
 715 -324 715 -324 767 -278 c 0,9,10
 816 -236 816 -236 835 -159 c 128,-1,11
 854 -82 854 -82 854 42 c 2,12,-1
 854 620 l 2,13,14
 854 913 854 913 635 914 c 0,15,16
 543 914 543 914 473.5 866 c 128,-1,17
 404 818 404 818 365 739.5 c 128,-1,18
 326 661 326 661 326 570 c 2,19,-1
 326 11 l 1,20,-1
 177 11 l 1,21,-1
 177 1167 l 1,22,-1
 -14 1167 l 1,23,-1
 -14 1284 l 1,24,-1
 177 1284 l 1,25,-1
 177 1413 l 1,26,-1
 326 1413 l 1,27,-1
 326 1284 l 1,28,-1
 641 1284 l 1,29,-1
 641 1167 l 1,30,-1
 326 1167 l 1,31,-1
 326 876 l 1,32,33
 379 960 379 960 467 1007.5 c 128,-1,34
 555 1055 555 1055 652 1055 c 0,35,36
 776 1055 776 1055 853.5 999.5 c 128,-1,37
 931 944 931 944 968 850.5 c 128,-1,38
 1005 757 1005 757 1005 643 c 2,39,-1
 1005 50 l 2,40,41
 1005 -192 1005 -192 914 -324 c 128,-1,42
 823 -456 823 -456 629 -456 c 0,0,1
EndSplineSet
EndChar

StartChar: uni0454
Encoding: 1108 1108 490
Width: 1000
GlyphClass: 1
Flags: W
LayerCount: 2
Fore
SplineSet
541 -20 m 0,0,1
 429 -20 429 -20 344 23 c 128,-1,2
 259 66 259 66 202.5 141 c 128,-1,3
 146 216 146 216 117.5 313 c 128,-1,4
 89 410 89 410 89 518 c 0,5,6
 89 657 89 657 137.5 780 c 128,-1,7
 186 903 186 903 292 982 c 0,8,9
 393 1056 393 1056 539 1056 c 256,10,11
 685 1056 685 1056 787 983 c 128,-1,12
 889 910 889 910 943 786 c 1,13,-1
 797 722 l 1,14,15
 771 817 771 817 702 872.5 c 128,-1,16
 633 928 633 928 539 928 c 0,17,18
 444 928 444 928 382.5 877 c 128,-1,19
 321 826 321 826 289 743.5 c 128,-1,20
 257 661 257 661 250 563 c 1,21,-1
 669 563 l 1,22,-1
 669 452 l 1,23,-1
 250 452 l 1,24,25
 265 306 265 306 336 206.5 c 128,-1,26
 407 107 407 107 539 107 c 0,27,28
 637 107 637 107 704.5 165 c 128,-1,29
 772 223 772 223 797 313 c 1,30,-1
 931 253 l 1,31,32
 883 120 883 120 781 50 c 128,-1,33
 679 -20 679 -20 541 -20 c 0,0,1
EndSplineSet
EndChar

StartChar: uni0456
Encoding: 1110 1110 492
Width: 492
GlyphClass: 1
Flags: W
LayerCount: 2
Fore
SplineSet
335 1222 m 1,0,-1
 159 1222 l 1,1,-1
 159 1413 l 1,2,-1
 335 1413 l 1,3,-1
 335 1222 l 1,0,-1
320 0 m 1,4,-1
 170 0 l 1,5,-1
 170 999 l 1,6,-1
 320 999 l 1,7,-1
 320 0 l 1,4,-1
EndSplineSet
EndChar

StartChar: uni0458
Encoding: 1112 1112 494
Width: 501
GlyphClass: 1
Flags: W
LayerCount: 2
Fore
SplineSet
338 1224 m 1,0,-1
 162 1224 l 1,1,-1
 162 1421 l 1,2,-1
 338 1421 l 1,3,-1
 338 1224 l 1,0,-1
66 -438 m 0,4,5
 -7 -438 -7 -438 -86 -408 c 2,6,-1
 -89 -407 l 1,7,-1
 -56 -295 l 1,8,9
 4 -310 4 -310 63 -310 c 0,10,11
 177 -310 177 -310 177 -175 c 2,12,-1
 177 999 l 1,13,-1
 328 999 l 1,14,-1
 328 -154 l 2,15,16
 328 -237 328 -237 301 -301 c 0,17,18
 242 -438 242 -438 66 -438 c 0,4,5
EndSplineSet
EndChar

StartChar: uni0459
Encoding: 1113 1113 495
Width: 1659
GlyphClass: 1
Flags: W
LayerCount: 2
Fore
SplineSet
214 -22 m 0,0,1
 160 -22 160 -22 66 22 c 1,2,-1
 115 132 l 1,3,4
 143 117 143 117 163.5 108 c 128,-1,5
 184 99 184 99 207 99 c 0,6,7
 252 99 252 99 287.5 213 c 128,-1,8
 323 327 323 327 323 642 c 2,9,-1
 323 1039 l 1,10,-1
 971 1039 l 1,11,-1
 971 691 l 1,12,-1
 1162 691 l 2,13,14
 1294 691 1294 691 1380.5 660.5 c 128,-1,15
 1467 630 1467 630 1516 554 c 128,-1,16
 1565 478 1565 478 1565 339 c 0,17,18
 1565 229 1565 229 1512 153.5 c 128,-1,19
 1459 78 1459 78 1368.5 39 c 128,-1,20
 1278 0 1278 0 1165 0 c 2,21,-1
 821 0 l 1,22,-1
 821 921 l 1,23,-1
 471 921 l 1,24,-1
 471 646 l 2,25,26
 471 260 471 260 396 119 c 128,-1,27
 321 -22 321 -22 214 -22 c 0,0,1
1164 122 m 2,28,29
 1397 122 1397 122 1397 339 c 0,30,31
 1397 468 1397 468 1334.5 518.5 c 128,-1,32
 1272 569 1272 569 1164 569 c 2,33,-1
 971 569 l 1,34,-1
 971 122 l 1,35,-1
 1164 122 l 2,28,29
EndSplineSet
EndChar

StartChar: uni045A
Encoding: 1114 1114 496
Width: 1687
GlyphClass: 1
Flags: W
LayerCount: 2
Fore
SplineSet
1198 0 m 2,0,-1
 853 0 l 1,1,-1
 853 510 l 1,2,-1
 325 510 l 1,3,-1
 325 0 l 1,4,-1
 175 0 l 1,5,-1
 175 1039 l 1,6,-1
 325 1039 l 1,7,-1
 325 628 l 1,8,-1
 853 628 l 1,9,-1
 853 1039 l 1,10,-1
 1001 1039 l 1,11,-1
 1001 628 l 1,12,-1
 1194 628 l 2,13,14
 1330 628 1330 628 1415.5 602.5 c 128,-1,15
 1501 577 1501 577 1548 512 c 0,16,17
 1597 443 1597 443 1598 314 c 0,18,19
 1598 159 1598 159 1488.5 79.5 c 128,-1,20
 1379 0 1379 0 1198 0 c 2,0,-1
1197 122 m 2,21,22
 1273 122 1273 122 1324.5 139 c 128,-1,23
 1376 156 1376 156 1403 197.5 c 128,-1,24
 1430 239 1430 239 1430 314 c 0,25,26
 1430 401 1430 401 1401 441 c 128,-1,27
 1372 481 1372 481 1325 493.5 c 128,-1,28
 1278 506 1278 506 1197 506 c 2,29,-1
 1001 506 l 1,30,-1
 1001 122 l 1,31,-1
 1197 122 l 2,21,22
EndSplineSet
EndChar

StartChar: uni045F
Encoding: 1119 1119 501
Width: 1156
GlyphClass: 1
Flags: W
LayerCount: 2
Fore
SplineSet
658 -307 m 1,0,-1
 510 -307 l 1,1,-1
 510 0 l 1,2,-1
 175 0 l 1,3,-1
 175 1039 l 1,4,-1
 325 1039 l 1,5,-1
 325 120 l 1,6,-1
 847 120 l 1,7,-1
 847 1039 l 1,8,-1
 995 1039 l 1,9,-1
 995 0 l 1,10,-1
 658 0 l 1,11,-1
 658 -307 l 1,0,-1
EndSplineSet
EndChar

StartChar: uni0462
Encoding: 1122 1122 502
Width: 1328
GlyphClass: 1
Flags: W
LayerCount: 2
Fore
SplineSet
788 0 m 2,0,-1
 390 0 l 1,1,-1
 390 1101 l 1,2,-1
 68 1101 l 1,3,-1
 68 1236 l 1,4,-1
 390 1236 l 1,5,-1
 390 1413 l 1,6,-1
 549 1413 l 1,7,-1
 549 1236 l 1,8,-1
 897 1236 l 1,9,-1
 897 1101 l 1,10,-1
 549 1101 l 1,11,-1
 549 776 l 1,12,-1
 788 776 l 2,13,14
 998 776 998 776 1118.5 674.5 c 128,-1,15
 1239 573 1239 573 1239 391 c 0,16,17
 1239 265 1239 265 1182 178 c 128,-1,18
 1125 91 1125 91 1023 45.5 c 128,-1,19
 921 0 921 0 788 0 c 2,0,-1
788 141 m 2,20,21
 928 141 928 141 1006 206 c 128,-1,22
 1084 271 1084 271 1084 391 c 0,23,24
 1084 516 1084 516 1003.5 575.5 c 128,-1,25
 923 635 923 635 788 635 c 2,26,-1
 549 635 l 1,27,-1
 549 141 l 1,28,-1
 788 141 l 2,20,21
EndSplineSet
Position2: "'cpsp' Capital Spacing lookup 0 subtable" dx=5 dy=0 dh=10 dv=0
EndChar

StartChar: uni0463
Encoding: 1123 1123 503
Width: 1019
GlyphClass: 1
Flags: W
LayerCount: 2
Fore
SplineSet
519 0 m 2,0,-1
 177 0 l 1,1,-1
 177 1146 l 1,2,-1
 -28 1146 l 1,3,-1
 -28 1263 l 1,4,-1
 177 1263 l 1,5,-1
 177 1413 l 1,6,-1
 325 1413 l 1,7,-1
 325 1263 l 1,8,-1
 561 1263 l 1,9,-1
 561 1146 l 1,10,-1
 325 1146 l 1,11,-1
 325 665 l 1,12,-1
 517 665 l 2,13,14
 650 665 650 665 737 635.5 c 128,-1,15
 824 606 824 606 873 533 c 128,-1,16
 922 460 922 460 922 326 c 0,17,18
 922 221 922 221 869.5 148.5 c 128,-1,19
 817 76 817 76 726 38 c 128,-1,20
 635 0 635 0 519 0 c 2,0,-1
519 122 m 2,21,22
 627 122 627 122 690 168 c 128,-1,23
 753 214 753 214 753 326 c 0,24,25
 753 448 753 448 690.5 495.5 c 128,-1,26
 628 543 628 543 519 543 c 2,27,-1
 325 543 l 1,28,-1
 325 122 l 1,29,-1
 519 122 l 2,21,22
EndSplineSet
EndChar

StartChar: uni0464
Encoding: 1124 1124 504
Width: 1815
GlyphClass: 1
Flags: W
LayerCount: 2
Fore
SplineSet
1154 -20 m 0,0,1
 1003 -20 1003 -20 888 30 c 128,-1,2
 773 80 773 80 693.5 169.5 c 128,-1,3
 614 259 614 259 570.5 378.5 c 128,-1,4
 527 498 527 498 519 639 c 1,5,-1
 369 639 l 1,6,-1
 369 0 l 1,7,-1
 212 0 l 1,8,-1
 212 1413 l 1,9,-1
 369 1413 l 1,10,-1
 369 774 l 1,11,-1
 519 774 l 1,12,13
 529 956 529 956 600.5 1106 c 128,-1,14
 672 1256 672 1256 817 1349 c 0,15,16
 955 1436 955 1436 1152 1436 c 0,17,18
 1341 1436 1341 1436 1490.5 1344 c 128,-1,19
 1640 1252 1640 1252 1724 1060 c 1,20,-1
 1579 1000 l 1,21,22
 1536 1149 1536 1149 1422 1219 c 128,-1,23
 1308 1289 1308 1289 1150 1289 c 0,24,25
 997 1289 997 1289 894.5 1220.5 c 128,-1,26
 792 1152 792 1152 738.5 1036 c 128,-1,27
 685 920 685 920 677 774 c 1,28,-1
 1307 774 l 1,29,-1
 1307 639 l 1,30,-1
 678 639 l 1,31,32
 687 486 687 486 741.5 371 c 128,-1,33
 796 256 796 256 898 191 c 128,-1,34
 1000 126 1000 126 1154 126 c 0,35,36
 1471 126 1471 126 1579 418 c 1,37,-1
 1726 358 l 1,38,39
 1643 166 1643 166 1492.5 73 c 128,-1,40
 1342 -20 1342 -20 1154 -20 c 0,0,1
EndSplineSet
Position2: "'cpsp' Capital Spacing lookup 0 subtable" dx=5 dy=0 dh=10 dv=0
EndChar

StartChar: uni0465
Encoding: 1125 1125 505
Width: 1371
GlyphClass: 1
Flags: W
LayerCount: 2
Fore
SplineSet
917 -20 m 0,0,1
 770 -20 770 -20 672 51.5 c 128,-1,2
 574 123 574 123 523 241.5 c 128,-1,3
 472 360 472 360 469 505 c 1,4,-1
 325 505 l 1,5,-1
 325 0 l 1,6,-1
 175 0 l 1,7,-1
 175 1039 l 1,8,-1
 325 1039 l 1,9,-1
 325 625 l 1,10,-1
 477 625 l 1,11,12
 494 743 494 743 547 840 c 128,-1,13
 600 937 600 937 691.5 996.5 c 128,-1,14
 783 1056 783 1056 915 1056 c 0,15,16
 1059 1056 1059 1056 1161 983.5 c 128,-1,17
 1263 911 1263 911 1318 786 c 1,18,-1
 1170 722 l 1,19,20
 1144 815 1144 815 1076.5 871.5 c 128,-1,21
 1009 928 1009 928 912 928 c 0,22,23
 822 928 822 928 757 876 c 0,24,25
 689 819 689 819 657 749.5 c 128,-1,26
 625 680 625 680 624 625 c 1,27,-1
 1042 625 l 1,28,-1
 1042 513 l 1,29,-1
 624 513 l 1,30,31
 626 331 626 331 700 219 c 128,-1,32
 774 107 774 107 912 107 c 0,33,34
 1009 107 1009 107 1076.5 165 c 128,-1,35
 1144 223 1144 223 1170 313 c 1,36,-1
 1303 253 l 1,37,38
 1257 120 1257 120 1156.5 50 c 128,-1,39
 1056 -20 1056 -20 917 -20 c 0,0,1
EndSplineSet
EndChar

StartChar: uni0466
Encoding: 1126 1126 506
Width: 1304
GlyphClass: 1
Flags: W
LayerCount: 2
Fore
SplineSet
1241 0 m 1,0,-1
 1072 0 l 1,1,-1
 858 605 l 1,2,-1
 730 605 l 1,3,-1
 730 0 l 1,4,-1
 575 0 l 1,5,-1
 575 605 l 1,6,-1
 449 605 l 1,7,-1
 235 0 l 1,8,-1
 63 0 l 1,9,-1
 592 1413 l 1,10,-1
 714 1413 l 1,11,-1
 1241 0 l 1,0,-1
810 739 m 1,12,-1
 654 1181 l 1,13,-1
 497 739 l 1,14,-1
 810 739 l 1,12,-1
EndSplineSet
Position2: "'cpsp' Capital Spacing lookup 0 subtable" dx=5 dy=0 dh=10 dv=0
EndChar

StartChar: uni0467
Encoding: 1127 1127 507
Width: 1037
GlyphClass: 1
Flags: W
LayerCount: 2
Fore
SplineSet
977 0 m 1,0,-1
 806 0 l 1,1,-1
 685 379 l 1,2,-1
 589 379 l 1,3,-1
 589 0 l 1,4,-1
 453 0 l 1,5,-1
 453 379 l 1,6,-1
 363 379 l 1,7,-1
 220 0 l 1,8,-1
 66 0 l 1,9,-1
 461 1039 l 1,10,-1
 583 1039 l 1,11,-1
 977 0 l 1,0,-1
647 495 m 1,12,-1
 523 845 l 1,13,-1
 404 495 l 1,14,-1
 647 495 l 1,12,-1
EndSplineSet
EndChar

StartChar: uni0468
Encoding: 1128 1128 508
Width: 1690
GlyphClass: 1
Flags: W
LayerCount: 2
Fore
SplineSet
1627 0 m 1,0,-1
 1457 0 l 1,1,-1
 1244 605 l 1,2,-1
 1116 605 l 1,3,-1
 1116 0 l 1,4,-1
 961 0 l 1,5,-1
 961 605 l 1,6,-1
 834 605 l 1,7,-1
 621 0 l 1,8,-1
 449 0 l 1,9,-1
 688 639 l 1,10,-1
 369 639 l 1,11,-1
 369 0 l 1,12,-1
 212 0 l 1,13,-1
 212 1413 l 1,14,-1
 369 1413 l 1,15,-1
 369 774 l 1,16,-1
 739 774 l 1,17,-1
 978 1413 l 1,18,-1
 1100 1413 l 1,19,-1
 1627 0 l 1,0,-1
1196 739 m 1,20,-1
 1040 1181 l 1,21,-1
 883 739 l 1,22,-1
 1196 739 l 1,20,-1
EndSplineSet
Position2: "'cpsp' Capital Spacing lookup 0 subtable" dx=5 dy=0 dh=10 dv=0
EndChar

StartChar: uni0469
Encoding: 1129 1129 509
Width: 1376
GlyphClass: 1
Flags: W
LayerCount: 2
Fore
SplineSet
1320 0 m 1,0,-1
 1146 0 l 1,1,-1
 1027 380 l 1,2,-1
 932 380 l 1,3,-1
 932 0 l 1,4,-1
 795 0 l 1,5,-1
 795 380 l 1,6,-1
 705 380 l 1,7,-1
 563 0 l 1,8,-1
 406 0 l 1,9,-1
 562 410 l 1,10,-1
 325 410 l 1,11,-1
 325 0 l 1,12,-1
 175 0 l 1,13,-1
 175 1039 l 1,14,-1
 325 1039 l 1,15,-1
 325 529 l 1,16,-1
 609 529 l 1,17,-1
 802 1039 l 1,18,-1
 926 1039 l 1,19,-1
 1320 0 l 1,0,-1
989 496 m 1,20,-1
 866 844 l 1,21,-1
 746 496 l 1,22,-1
 989 496 l 1,20,-1
EndSplineSet
EndChar

StartChar: uni046A
Encoding: 1130 1130 510
Width: 1560
GlyphClass: 1
Flags: W
LayerCount: 2
Fore
SplineSet
1488 0 m 1,0,-1
 1303 0 l 1,1,-1
 1101 503 l 2,2,3
 1082 560 1082 560 1048 602 c 128,-1,4
 1014 644 1014 644 947 644 c 2,5,-1
 852 644 l 1,6,-1
 852 0 l 1,7,-1
 695 0 l 1,8,-1
 695 644 l 1,9,-1
 602 644 l 2,10,11
 536 644 536 644 501.5 601.5 c 128,-1,12
 467 559 467 559 448 503 c 2,13,-1
 246 0 l 1,14,-1
 64 0 l 1,15,-1
 299 583 l 2,16,17
 376 768 376 768 614 768 c 1,18,-1
 243 1278 l 1,19,-1
 243 1413 l 1,20,-1
 1304 1413 l 1,21,-1
 1304 1278 l 1,22,-1
 931 768 l 1,23,24
 1174 768 1174 768 1250 583 c 2,25,-1
 1488 0 l 1,0,-1
773 808 m 1,26,-1
 1119 1278 l 1,27,-1
 428 1278 l 1,28,-1
 773 808 l 1,26,-1
EndSplineSet
Position2: "'cpsp' Capital Spacing lookup 0 subtable" dx=5 dy=0 dh=10 dv=0
EndChar

StartChar: uni046B
Encoding: 1131 1131 511
Width: 1295
GlyphClass: 1
Flags: W
LayerCount: 2
Fore
SplineSet
1235 0 m 1,0,-1
 1054 0 l 1,1,-1
 926 375 l 2,2,3
 903 448 903 448 858 479.5 c 128,-1,4
 813 511 813 511 724 511 c 1,5,-1
 724 0 l 1,6,-1
 576 0 l 1,7,-1
 576 511 l 1,8,9
 487 511 487 511 442.5 481.5 c 128,-1,10
 398 452 398 452 374 375 c 2,11,-1
 246 0 l 1,12,-1
 66 0 l 1,13,-1
 235 455 l 2,14,15
 299 623 299 623 469 623 c 1,16,-1
 226 921 l 1,17,-1
 226 1039 l 1,18,-1
 1074 1039 l 1,19,-1
 1074 921 l 1,20,-1
 833 623 l 1,21,22
 1000 623 1000 623 1065 455 c 2,23,-1
 1235 0 l 1,0,-1
648 626 m 1,24,-1
 880 921 l 1,25,-1
 419 921 l 1,26,-1
 648 626 l 1,24,-1
EndSplineSet
EndChar

StartChar: uni046C
Encoding: 1132 1132 512
Width: 1917
GlyphClass: 1
Flags: W
LayerCount: 2
Fore
SplineSet
1845 0 m 1,0,-1
 1676 0 l 1,1,-1
 1475 503 l 2,2,3
 1460 542 1460 542 1443.5 570 c 128,-1,4
 1427 598 1427 598 1397.5 621 c 128,-1,5
 1368 644 1368 644 1321 644 c 2,6,-1
 1228 644 l 1,7,-1
 1228 0 l 1,8,-1
 1069 0 l 1,9,-1
 1069 644 l 1,10,-1
 977 644 l 2,11,12
 929 644 929 644 898 621.5 c 128,-1,13
 867 599 867 599 852.5 571.5 c 128,-1,14
 838 544 838 544 820 503 c 2,15,-1
 620 0 l 1,16,-1
 456 0 l 1,17,-1
 687 572 l 2,18,19
 698 602 698 602 719 636 c 1,20,-1
 369 636 l 1,21,-1
 369 0 l 1,22,-1
 212 0 l 1,23,-1
 212 1413 l 1,24,-1
 369 1413 l 1,25,-1
 369 768 l 1,26,-1
 990 768 l 1,27,-1
 616 1278 l 1,28,-1
 616 1413 l 1,29,-1
 1678 1413 l 1,30,-1
 1678 1278 l 1,31,-1
 1305 768 l 1,32,33
 1420 768 1420 768 1494 724 c 128,-1,34
 1568 680 1568 680 1607 583 c 2,35,-1
 1845 0 l 1,0,-1
1147 808 m 1,36,-1
 1492 1278 l 1,37,-1
 802 1278 l 1,38,-1
 1147 808 l 1,36,-1
EndSplineSet
Position2: "'cpsp' Capital Spacing lookup 0 subtable" dx=5 dy=0 dh=10 dv=0
EndChar

StartChar: uni046D
Encoding: 1133 1133 513
Width: 1616
GlyphClass: 1
Flags: W
LayerCount: 2
Fore
SplineSet
1561 0 m 1,0,-1
 1381 0 l 1,1,-1
 1254 378 l 2,2,3
 1226 464 1226 464 1186 495.5 c 128,-1,4
 1146 527 1146 527 1048 527 c 1,5,-1
 1048 0 l 1,6,-1
 902 0 l 1,7,-1
 902 527 l 1,8,9
 810 527 810 527 768 495.5 c 128,-1,10
 726 464 726 464 700 378 c 2,11,-1
 572 0 l 1,12,-1
 391 0 l 1,13,-1
 556 441 l 1,14,15
 567 482 567 482 596 521 c 1,16,-1
 325 521 l 1,17,-1
 325 0 l 1,18,-1
 175 0 l 1,19,-1
 175 1039 l 1,20,-1
 325 1039 l 1,21,-1
 325 641 l 1,22,-1
 777 641 l 1,23,-1
 552 921 l 1,24,-1
 552 1039 l 1,25,-1
 1399 1039 l 1,26,-1
 1399 921 l 1,27,-1
 1171 638 l 1,28,29
 1237 638 1237 638 1280 610 c 0,30,31
 1357 557 1357 557 1391 453 c 1,32,-1
 1561 0 l 1,0,-1
974 625 m 1,33,-1
 1206 921 l 1,34,-1
 744 921 l 1,35,-1
 974 625 l 1,33,-1
EndSplineSet
EndChar

